<svg width="32" height="32" viewBox="0 0 32 32" fill="none" xmlns="http://www.w3.org/2000/svg">
<path fill-rule="evenodd" clip-rule="evenodd" d="M12.6754 6.30614C12.5897 5.79757 12.5251 5.29476 12.4834 4.79191C12.4206 4.03762 12.4594 3.27757 12.4372 2.52328C12.4274 2.20328 12.3891 1.36901 12.4046 1.24901C12.5446 0.203294 13.3886 0.0432745 13.6354 0.0147031C13.7549 -0.00243975 14.9811 -0.139521 15.2457 1.22048C15.5703 2.88334 15.6743 4.5576 15.5594 6.1976C15.8274 7.59189 16.2857 8.98043 16.8909 10.2376C19.2989 15.2376 23.8874 15.7233 28.8589 15.6776C29.6234 15.6662 30.2583 16.2661 30.2983 17.0261C30.3383 17.7919 29.7692 18.4547 29.008 18.5233C26.2292 18.7919 21.2988 21.0205 19.5943 23.3405C19.2377 23.8262 19.0303 24.9976 18.756 26.1462C18.3731 27.7405 17.9177 29.3176 17.4074 29.9805C17.3309 30.0833 16.4 31.1348 16.1223 31.289C15.4549 31.6548 14.9206 31.4433 14.6172 31.249C14.3137 31.0547 13.9703 30.6719 13.8331 30.0376C13.6897 29.3747 13.8109 28.0147 13.7886 27.7233C13.7074 26.6661 13.496 24.5919 13.0646 22.809C12.832 21.849 12.584 20.9633 12.1737 20.5233C10.6549 18.8947 8.22629 19.1347 6.18115 19.4033C5.94629 19.4319 5.71144 19.4662 5.47715 19.4948C4.64458 19.7405 3.76056 19.9233 2.82627 20.0319C1.41542 20.1976 1.18343 18.9004 1.17086 18.8147C1.14458 18.6261 1.04685 17.6547 2.11028 17.2662C2.22628 17.2262 3.08229 17.0376 3.412 16.9633C3.87143 16.8604 4.33599 16.7805 4.80228 16.7062C9.61885 15.209 12.2349 11.0033 12.6754 6.30614ZM14.3286 11.5005C16.1469 15.2605 18.9063 17.0776 22.1771 17.9004H22.1766C20.1343 18.969 18.2766 20.3062 17.292 21.649C16.9183 22.1576 16.5754 23.1804 16.2663 24.329C16.0989 23.2604 15.8726 22.1233 15.5737 21.1518C15.2337 20.0433 14.776 19.1233 14.2651 18.5748C13.2789 17.5176 12.0411 16.929 10.7103 16.6376C12.3034 15.2262 13.5114 13.4662 14.3286 11.5005Z" fill="#C9FFE9"/>
</svg>
