<svg width="263" height="26" viewBox="0 0 263 26" fill="none" xmlns="http://www.w3.org/2000/svg">
<path d="M2 6.75161C26.1883 -3.16162 52.28 10.1071 75.9568 15.6609C89.3094 18.793 101.294 18.8223 114.947 18.8223C120.648 18.8223 126.146 18.2713 131.808 18.008C135.848 17.8201 140.515 18.1089 144.262 16.2357C145.86 15.4365 150 12.6774 148.572 6.75161C146 2.17737 142.4 1.62022 138.5 2.17735C131.172 3.22419 138.212 18.3612 140.813 20.0677C152.84 27.9607 171.642 22.1225 184.497 20.5467C201.034 18.5195 217.534 16.6276 234.217 16.2836C243.974 16.0824 252.547 16.5936 260.657 22.2711" stroke="#00B96E" stroke-width="3" stroke-linecap="round"/>
</svg>
