<svg width="24" height="24" viewBox="0 0 24 24" fill="none" xmlns="http://www.w3.org/2000/svg">
<g clip-path="url(#clip0_31_1211)">
<path fill-rule="evenodd" clip-rule="evenodd" d="M3.05636 10.6152C4.12713 10.2336 5.25392 9.72654 6.12284 8.99239C7.15484 8.12039 7.57454 6.99733 7.85639 5.81518C8.21823 4.29641 8.36282 2.67855 8.80159 1.15731C8.96405 0.592392 9.2767 0.378849 9.41085 0.28408C9.74993 0.0446953 10.0927 -0.0192921 10.4151 0.00470795C10.7973 0.0324003 11.3222 0.177006 11.6675 0.817621C11.7167 0.909313 11.7807 1.04901 11.8237 1.2404C11.8551 1.38071 11.8754 1.81947 11.9087 2.00039C11.9917 2.44593 12.0613 2.89148 12.1265 3.33948C12.3438 4.83056 12.4687 6.097 13.1548 7.46685C14.0859 9.32654 15.0189 10.4644 16.2841 10.9684C17.5075 11.4558 18.9702 11.3641 20.8391 10.9819C21.017 10.9389 21.193 10.9019 21.3671 10.8718C22.1911 10.7278 22.9788 11.2687 23.1407 12.0896C23.3025 12.9099 22.7788 13.7093 21.9622 13.8896C21.7918 13.9272 21.6238 13.9629 21.4576 13.9955C18.9321 14.6207 16.0084 16.8521 14.3093 18.8059C13.7856 19.4084 13.0188 21.0927 12.2367 22.1672C11.6595 22.9598 11.0108 23.4822 10.4662 23.6669C10.1013 23.7912 9.79361 23.7721 9.53946 23.7093C9.17022 23.6183 8.86378 23.4182 8.6287 23.1001C8.5007 22.9259 8.3819 22.6927 8.32529 22.3948C8.29821 22.2515 8.29515 21.8872 8.29576 21.7223C8.13638 21.174 7.9413 20.6385 7.79915 20.0853C7.46007 18.7653 6.79483 17.9296 6.00467 16.8256C5.2656 15.7924 4.47178 15.1432 3.30809 14.625C3.1567 14.5881 1.93516 14.289 1.50377 14.1173C0.87362 13.8656 0.573296 13.4441 0.464373 13.217C0.279142 12.8318 0.260082 12.4952 0.297005 12.2146C0.351774 11.8004 0.537622 11.4459 0.867468 11.1598C1.07178 10.9819 1.37701 10.809 1.78562 10.7247C2.10132 10.6589 2.93882 10.6207 3.05636 10.6152ZM10.2225 8.46377C10.2791 8.58992 10.3394 8.7167 10.4035 8.8447C11.7671 11.5684 13.2921 13.089 15.1456 13.8269L15.2078 13.8509C13.9678 14.7715 12.8453 15.8004 11.9874 16.7869C11.6342 17.193 11.1665 18.0367 10.6613 18.9019C10.2022 17.4096 9.45145 16.3549 8.50745 15.0349C7.78622 14.0275 7.03053 13.2693 6.10192 12.6515C6.82253 12.2816 7.50991 11.8484 8.10868 11.3426C9.1056 10.5001 9.76468 9.52408 10.2225 8.46377Z" fill="#C9FFE9"/>
</g>
<defs>
<clipPath id="clip0_31_1211">
<rect width="24" height="24" fill="white"/>
</clipPath>
</defs>
</svg>
