<svg width="72" height="76" viewBox="0 0 72 76" fill="none" xmlns="http://www.w3.org/2000/svg">
<path fill-rule="evenodd" clip-rule="evenodd" d="M28.9869 37.4592C29.1154 36.6963 29.2123 35.9421 29.2749 35.1879C29.3691 34.0564 29.3108 32.9164 29.3443 31.7849C29.3588 31.3049 29.4163 30.0535 29.3931 29.8735C29.1831 28.3049 27.9171 28.0649 27.5469 28.0221C27.3677 27.9963 25.5283 27.7907 25.1314 29.8307C24.6446 32.325 24.4886 34.8364 24.6609 37.2964C24.2589 39.3878 23.5714 41.4706 22.6637 43.3564C19.0517 50.8564 12.1689 51.5849 4.71172 51.5164C3.56487 51.4992 2.61255 52.3992 2.55254 53.5392C2.49254 54.6878 3.34626 55.6821 4.48797 55.7849C8.65625 56.1878 16.0517 59.5307 18.6086 63.0107C19.1434 63.7393 19.4546 65.4964 19.866 67.2193C20.4403 69.6107 21.1234 71.9764 21.8888 72.9707C22.0037 73.125 23.4 74.7021 23.8166 74.9336C24.8177 75.4821 25.6191 75.1649 26.0743 74.8735C26.5294 74.5821 27.0446 74.0078 27.2503 73.0564C27.4654 72.0621 27.2837 70.022 27.3171 69.5849C27.4389 67.9992 27.756 64.8878 28.4031 62.2135C28.752 60.7735 29.124 59.4449 29.7394 58.7849C32.0177 56.3421 35.6606 56.7021 38.7283 57.105C39.0806 57.1478 39.4328 57.1993 39.7843 57.2421C41.0331 57.6107 42.3592 57.8849 43.7606 58.0478C45.8769 58.2964 46.2249 56.3506 46.2437 56.2221C46.2831 55.9392 46.4297 54.4821 44.8346 53.8993C44.6606 53.8393 43.3766 53.5564 42.882 53.4449C42.1929 53.2907 41.496 53.1707 40.7966 53.0593C33.5717 50.8136 29.6477 44.5049 28.9869 37.4592ZM26.5071 45.2507C23.7797 50.8907 19.6406 53.6164 14.7343 54.8507H14.7351C17.7986 56.4535 20.5852 58.4593 22.062 60.4736C22.6226 61.2364 23.1369 62.7707 23.6006 64.4935C23.8517 62.8907 24.1911 61.1849 24.6394 59.7278C25.1494 58.0649 25.836 56.685 26.6023 55.8621C28.0817 54.2764 29.9383 53.3936 31.9346 52.9564C29.5449 50.8393 27.7328 48.1993 26.5071 45.2507Z" fill="#C9FFE9"/>
<g clip-path="url(#clip0_224_28)">
<path fill-rule="evenodd" clip-rule="evenodd" d="M68.9436 10.6152C67.8729 10.2336 66.7461 9.72654 65.8772 8.99239C64.8452 8.12039 64.4255 6.99733 64.1436 5.81518C63.7818 4.29641 63.6372 2.67855 63.1984 1.15731C63.036 0.592392 62.7233 0.378849 62.5892 0.28408C62.2501 0.0446953 61.9073 -0.0192921 61.5849 0.00470795C61.2027 0.0324003 60.6778 0.177006 60.3325 0.817621C60.2833 0.909313 60.2193 1.04901 60.1763 1.2404C60.1449 1.38071 60.1246 1.81947 60.0913 2.00039C60.0083 2.44593 59.9387 2.89148 59.8735 3.33948C59.6562 4.83056 59.5313 6.097 58.8452 7.46685C57.9141 9.32654 56.9811 10.4644 55.7159 10.9684C54.4925 11.4558 53.0298 11.3641 51.1609 10.9819C50.983 10.9389 50.807 10.9019 50.6329 10.8718C49.8089 10.7278 49.0212 11.2687 48.8593 12.0896C48.6975 12.9099 49.2212 13.7093 50.0378 13.8896C50.2082 13.9272 50.3762 13.9629 50.5424 13.9955C53.0679 14.6207 55.9916 16.8521 57.6907 18.8059C58.2144 19.4084 58.9812 21.0927 59.7633 22.1672C60.3405 22.9598 60.9892 23.4822 61.5338 23.6669C61.8987 23.7912 62.2064 23.7721 62.4605 23.7093C62.8298 23.6183 63.1362 23.4182 63.3713 23.1001C63.4993 22.9259 63.6181 22.6927 63.6747 22.3948C63.7018 22.2515 63.7049 21.8872 63.7042 21.7223C63.8636 21.174 64.0587 20.6385 64.2009 20.0853C64.5399 18.7653 65.2052 17.9296 65.9953 16.8256C66.7344 15.7924 67.5282 15.1432 68.6919 14.625C68.8433 14.5881 70.0648 14.289 70.4962 14.1173C71.1264 13.8656 71.4267 13.4441 71.5356 13.217C71.7209 12.8318 71.7399 12.4952 71.703 12.2146C71.6482 11.8004 71.4624 11.4459 71.1325 11.1598C70.9282 10.9819 70.623 10.809 70.2144 10.7247C69.8987 10.6589 69.0612 10.6207 68.9436 10.6152ZM61.7775 8.46377C61.7209 8.58992 61.6606 8.7167 61.5965 8.8447C60.2329 11.5684 58.7079 13.089 56.8544 13.8269L56.7922 13.8509C58.0322 14.7715 59.1547 15.8004 60.0126 16.7869C60.3658 17.193 60.8335 18.0367 61.3387 18.9019C61.7978 17.4096 62.5485 16.3549 63.4925 15.0349C64.2138 14.0275 64.9695 13.2693 65.8981 12.6515C65.1775 12.2816 64.4901 11.8484 63.8913 11.3426C62.8944 10.5001 62.2353 9.52408 61.7775 8.46377Z" fill="#C9FFE9"/>
</g>
<defs>
<clipPath id="clip0_224_28">
<rect width="24" height="24" fill="white" transform="matrix(-1 0 0 1 72 0)"/>
</clipPath>
</defs>
</svg>
