<svg width="163" height="12" viewBox="0 0 163 12" fill="none" xmlns="http://www.w3.org/2000/svg">
<path d="M2.26855 9.94231C3.95375 8.41031 6.81398 6.67375 9.04936 6.13087C14.2175 4.87576 17.344 8.31078 21.8354 10.0753C24.5662 11.1481 27.3824 9.08872 29.5691 7.74852C31.58 6.51598 34.7143 6.16681 36.9703 7.15021C38.9412 8.00932 41.1014 9.38332 43.3523 9.05593C47.794 8.40985 51.9783 1.0179 56.2713 4.203C58.9597 6.19763 59.0895 7.49331 62.7197 6.92862C65.4292 6.50713 70.9643 2.45335 73.4449 4.22516C77.9511 7.44386 83.4386 3.12216 88.2474 2.05353C89.8496 1.69748 90.7788 3.20134 91.9259 4.0922C93.6863 5.45933 96.3995 6.54595 98.6845 6.21951C102.331 5.69864 105.348 3.16101 108.368 5.51041C112.311 8.57707 118.298 2.27694 122.595 3.73765C127.254 5.32184 131.369 4.84484 136.201 4.75698C138.879 4.70828 141.699 6.73484 144.134 6.10871C149.621 4.69763 155.262 4.75698 161.019 4.75698" stroke="#C9FFE9" stroke-width="3" stroke-linecap="round"/>
</svg>
