<svg width="280" height="56" viewBox="0 0 280 56" fill="none" xmlns="http://www.w3.org/2000/svg">
<path fill-rule="evenodd" clip-rule="evenodd" d="M79.9149 9.68815C79.5214 9.58254 79.156 9.47706 78.819 9.37145C78.4818 9.26621 78.182 9.15174 77.9197 9.02855V8.26384H84.4391V9.02855C84.2144 9.13416 83.9475 9.23964 83.6382 9.34526C83.3291 9.45062 82.9873 9.56496 82.6125 9.68815V16.9935L84.5234 16.6241L89.2444 9.68815C88.8699 9.58254 88.5185 9.47262 88.1906 9.35828C87.8628 9.24407 87.5397 9.13416 87.2213 9.02855V8.26384H93.4036V9.02855C93.0661 9.16932 92.7198 9.2924 92.3637 9.39789C92.0078 9.5035 91.6517 9.60012 91.2958 9.68815L86.1814 16.7033C86.6685 17.2838 87.1837 17.9341 87.7269 18.6552C88.2703 19.376 88.837 20.1233 89.427 20.8967C90.0173 21.6704 90.6355 22.444 91.2818 23.2176C91.9281 23.9913 92.5978 24.7297 93.291 25.433L94.6117 26.0661V26.7254H91.0992L90.1438 26.0661C89.0383 24.8528 88.0313 23.5472 87.1229 22.1496C86.2141 20.7517 85.2541 19.332 84.2424 17.8904H82.6125V25.3275C82.931 25.4155 83.2447 25.5078 83.554 25.6045C83.8631 25.7011 84.158 25.8199 84.4391 25.9605V26.7254H77.8915V25.9605C78.4536 25.6792 79.1281 25.4681 79.9149 25.3275V17.6528L78.2289 18.0486C77.2173 19.4902 76.2803 20.8835 75.4185 22.2287C74.5569 23.5737 73.5733 24.8528 72.4681 26.0661L71.5126 26.7254H68V26.0661L69.3206 25.433C70.0138 24.7297 70.6883 24 71.344 23.2441C71.9997 22.488 72.6272 21.7407 73.2269 21.0023C73.8264 20.2639 74.3882 19.5474 74.9129 18.8528C75.4375 18.1584 75.915 17.521 76.346 16.9409L71.0628 9.68815C70.2948 9.47705 69.6297 9.25723 69.0678 9.02855V8.26384H75.2782V9.02855C75.0158 9.15174 74.7255 9.27051 74.4071 9.38472C74.0885 9.49894 73.742 9.60012 73.3672 9.68815L78.1164 16.7824H79.9149V9.68815ZM96.4893 13.5385H102.447V14.2242C102.241 14.3298 102.002 14.4353 101.73 14.5409C101.459 14.6464 101.135 14.7517 100.761 14.8572V22.0835L100.451 24.5365H100.592L101.688 22.5584L107.702 13.5385H111.495V14.2242C110.896 14.5409 110.278 14.7517 109.641 14.8572V25.433C109.997 25.521 110.334 25.6133 110.652 25.7099C110.971 25.8067 111.252 25.9255 111.495 26.0661V26.7254H105.538V26.0661C106.062 25.7847 106.624 25.5737 107.224 25.433V17.8904L107.505 15.8067H107.364L106.297 17.7847L100.339 26.7254H96.4893V26.0661C96.8078 25.9255 97.1169 25.8067 97.4167 25.7099C97.7164 25.6133 98.0254 25.521 98.3441 25.433V14.8572C97.6134 14.7517 96.995 14.5409 96.4893 14.2242V13.5385ZM126.946 22.8747C126.946 23.5781 126.777 24.1803 126.435 24.6814C126.098 25.1825 125.644 25.5912 125.068 25.9079C124.492 26.2242 123.827 26.4572 123.077 26.6066C122.323 26.7561 121.532 26.831 120.703 26.831C120.099 26.831 119.621 26.8259 119.26 26.8177C118.904 26.8088 118.604 26.7958 118.356 26.778C118.113 26.7605 117.907 26.7472 117.738 26.7386C117.565 26.7298 117.377 26.7254 117.171 26.7254H114.469V26.0661C115.05 25.7847 115.668 25.5737 116.324 25.433V14.8572C115.612 14.7341 114.994 14.5233 114.469 14.2242V13.5385H117.003C117.452 13.5385 117.841 13.5335 118.16 13.5255C118.483 13.5166 118.783 13.5033 119.063 13.4858C119.349 13.4682 119.63 13.455 119.911 13.4463C120.197 13.4374 120.506 13.4332 120.848 13.4332C122.506 13.4332 123.794 13.6661 124.717 14.1321C125.639 14.5978 126.103 15.4112 126.103 16.5715C126.103 16.9935 126.009 17.3715 125.822 17.7057C125.63 18.0396 125.386 18.3299 125.086 18.5758C124.782 18.822 124.445 19.0288 124.065 19.1957C123.691 19.3627 123.321 19.4815 122.965 19.5517C123.489 19.5869 123.995 19.6837 124.473 19.842C124.955 20.0002 125.377 20.2156 125.747 20.488C126.112 20.7606 126.402 21.0946 126.623 21.4902C126.838 21.8859 126.946 22.3473 126.946 22.8747ZM118.853 25.5912C119.115 25.644 119.448 25.6704 119.85 25.6704C120.253 25.6704 120.586 25.6704 120.848 25.6704C121.953 25.6704 122.777 25.4462 123.321 24.9979C123.864 24.5494 124.136 23.9123 124.136 23.0858C124.136 22.2241 123.808 21.5782 123.152 21.1473C122.497 20.7166 121.653 20.5012 120.623 20.5012H118.853V25.5912ZM118.853 19.7099L122.009 19.4462C122.351 19.288 122.698 18.9934 123.049 18.5629C123.4 18.1319 123.574 17.565 123.574 16.8617C123.574 16.0001 123.293 15.4066 122.735 15.0813C122.173 14.7563 121.354 14.5935 120.276 14.5935C120.066 14.5935 119.827 14.5973 119.565 14.6066C119.298 14.6155 119.063 14.6464 118.853 14.699V19.7099ZM130.144 20.1319C130.144 19.0243 130.299 18.0439 130.608 17.1914C130.917 16.3385 131.362 15.6177 131.943 15.0287C132.524 14.4396 133.221 13.9914 134.036 13.6837C134.851 13.376 135.755 13.2221 136.748 13.2221C137.91 13.2221 138.912 13.3891 139.755 13.7232C140.598 14.0573 141.286 14.5276 141.82 15.1342C142.354 15.7408 142.748 16.466 143 17.3099C143.253 18.1538 143.38 19.0947 143.38 20.1319C143.38 22.3473 142.78 24.0529 141.582 25.2484C140.382 26.444 138.771 27.0418 136.748 27.0418C135.624 27.0418 134.65 26.8793 133.826 26.554C133.001 26.2286 132.317 25.7627 131.774 25.1561C131.231 24.5494 130.823 23.8199 130.552 22.9671C130.28 22.1143 130.144 21.1694 130.144 20.1319ZM132.842 20.1319C132.842 20.9231 132.921 21.6704 133.081 22.3737C133.24 23.077 133.493 23.6879 133.84 24.2068C134.186 24.7254 134.64 25.1342 135.202 25.433C135.765 25.7318 136.439 25.8815 137.226 25.8815C138.237 25.8815 139.066 25.4155 139.713 24.4836C140.359 23.5518 140.682 22.1013 140.682 20.1319C140.682 19.3231 140.603 18.5715 140.443 17.8771C140.284 17.1824 140.036 16.5758 139.699 16.0573C139.361 15.5387 138.931 15.1299 138.406 14.8308C137.881 14.5319 137.254 14.3827 136.523 14.3827C135.418 14.3827 134.528 14.8484 133.854 15.7803C133.179 16.7122 132.842 18.1628 132.842 20.1319ZM146.41 13.5385H152.367V14.2242C152.161 14.3298 151.922 14.4353 151.65 14.5409C151.379 14.6464 151.056 14.7517 150.681 14.8572V22.0835L150.372 24.5365H150.512L151.608 22.5584L157.622 13.5385H161.416V14.2242C160.816 14.5409 160.198 14.7517 159.561 14.8572V25.433C159.917 25.521 160.254 25.6133 160.573 25.7099C160.891 25.8067 161.172 25.9255 161.416 26.0661V26.7254H155.458V26.0661C155.983 25.7847 156.545 25.5737 157.144 25.433V17.8904L157.425 15.8067H157.285L156.217 17.7847L150.26 26.7254H146.41V26.0661C146.728 25.9255 147.037 25.8067 147.337 25.7099C147.637 25.6133 147.946 25.521 148.264 25.433V14.8572C147.534 14.7517 146.915 14.5409 146.41 14.2242V13.5385ZM154.194 11.9561C153.257 11.9561 152.489 11.8638 151.889 11.6792C151.29 11.4946 150.812 11.2529 150.456 10.954C150.1 10.6551 149.852 10.3078 149.712 9.91216C149.571 9.51665 149.501 9.11659 149.501 8.71223C149.8 8.48355 150.128 8.31671 150.484 8.2111C150.84 8.10561 151.215 8.03541 151.608 8L152.311 8.3429V10.6903C152.573 10.7957 152.882 10.8704 153.238 10.9144C153.594 10.9583 153.922 10.9802 154.222 10.9802C154.409 10.9802 154.709 10.9627 155.121 10.9275C155.533 10.8925 155.87 10.8395 156.133 10.7693V8.3429L156.835 8C157.229 8.03541 157.598 8.11447 157.945 8.23754C158.292 8.36073 158.577 8.51884 158.802 8.71223C158.802 9.11659 158.727 9.51665 158.577 9.91216C158.428 10.3078 158.179 10.6551 157.833 10.954C157.486 11.2529 157.018 11.4946 156.428 11.6792C155.837 11.8638 155.093 11.9561 154.194 11.9561ZM193.586 26.7254H186.673V25.9605C187.048 25.8199 187.423 25.7011 187.798 25.6045C188.172 25.5078 188.556 25.4155 188.95 25.3275V13.4593L189.062 10.3738H188.837L187.91 13.1959L182.149 26.7254H181.419L175.939 13.1959L174.927 10.1101H174.674L174.703 13.4593V25.3275C175.058 25.3979 175.414 25.4859 175.77 25.5912C176.126 25.6968 176.482 25.8199 176.838 25.9605V26.7254H170.965V25.9605C171.321 25.8199 171.691 25.6925 172.075 25.578C172.459 25.4638 172.848 25.3715 173.241 25.3013V9.68815C172.848 9.6177 172.459 9.52538 172.075 9.41116C171.691 9.29695 171.312 9.16932 170.937 9.02855V8.26384H176.698L181.587 20.3165L182.542 23.033H182.571L183.526 20.2639L188.584 8.26384H193.615V9.02855C193.277 9.16932 192.931 9.29695 192.575 9.41116C192.219 9.52538 191.854 9.6177 191.479 9.68815V25.3539C191.872 25.4244 192.242 25.5078 192.589 25.6045C192.935 25.7011 193.268 25.8199 193.586 25.9605V26.7254ZM196.363 13.5385H202.321V14.2242C202.115 14.3298 201.876 14.4353 201.604 14.5409C201.332 14.6464 201.009 14.7517 200.635 14.8572V22.0835L200.325 24.5365H200.466L201.562 22.5584L207.576 13.5385H211.369V14.2242C210.77 14.5409 210.152 14.7517 209.514 14.8572V25.433C209.871 25.521 210.208 25.6133 210.526 25.7099C210.845 25.8067 211.126 25.9255 211.369 26.0661V26.7254H205.412V26.0661C205.936 25.7847 206.498 25.5737 207.098 25.433V17.8904L207.379 15.8067H207.238L206.17 17.7847L200.213 26.7254H196.363V26.0661C196.682 25.9255 196.991 25.8067 197.291 25.7099C197.59 25.6133 197.899 25.521 198.218 25.433V14.8572C197.487 14.7517 196.869 14.5409 196.363 14.2242V13.5385ZM220.357 32H214.118V31.3408C214.755 31.0595 215.373 30.8484 215.973 30.7077V15.0683L214.118 14.8572V14.1716C214.717 13.9253 215.331 13.7277 215.959 13.5781C216.586 13.4286 217.2 13.3101 217.799 13.2221H218.502V16.176H218.53C218.904 15.2791 219.429 14.5628 220.104 14.0265C220.778 13.4902 221.658 13.2221 222.745 13.2221C224.412 13.2221 225.705 13.7406 226.623 14.7782C227.541 15.8154 228 17.5035 228 19.842C228 20.9496 227.845 21.9518 227.536 22.8483C227.227 23.7452 226.787 24.501 226.215 25.1166C225.644 25.7318 224.951 26.2068 224.136 26.5407C223.321 26.8748 222.417 27.0418 221.424 27.0418C220.731 27.0418 220.188 27.0023 219.794 26.9232C219.401 26.8441 218.97 26.7078 218.502 26.5143V30.7077C218.801 30.743 219.101 30.8089 219.401 30.9056C219.701 31.0022 220.019 31.1474 220.357 31.3408V32ZM221.846 14.8572C220.928 14.8572 220.197 15.1299 219.654 15.6748C219.111 16.2198 218.727 16.967 218.502 17.9165V25.3013C218.839 25.4946 219.218 25.6395 219.64 25.7364C220.061 25.8331 220.609 25.8815 221.284 25.8815C221.902 25.8815 222.459 25.7318 222.956 25.433C223.452 25.1342 223.874 24.7121 224.22 24.1671C224.567 23.622 224.834 22.9847 225.021 22.255C225.209 21.5254 225.302 20.721 225.302 19.842C225.302 19.1209 225.241 18.4573 225.119 17.8506C224.998 17.244 224.801 16.7165 224.529 16.2684C224.258 15.82 223.902 15.4728 223.462 15.2265C223.021 14.9804 222.483 14.8572 221.846 14.8572Z" fill="white"/>
<path fill-rule="evenodd" clip-rule="evenodd" d="M46.5409 31.2549C46.3771 31.103 46.1401 31.0402 45.7709 31.0511C44.8128 31.0793 42.9423 31.6012 41.1161 32.3501C40.9723 32.409 40.8666 32.5333 40.8333 32.6831L40.4046 34.602L40.0653 33.4235C40.0264 33.2885 39.9279 33.1778 39.7974 33.1214C39.6663 33.0646 39.5172 33.0697 39.3897 33.1327C37.4139 34.118 35.8377 35.2172 34.7056 36.3996C32.9732 38.2093 31.8157 40.1105 31.358 41.8969C30.9477 43.4991 31.1524 44.8762 31.9248 45.8367L29.1903 48.6933C29.0096 48.8822 29.0187 49.1793 29.2105 49.3573C29.4026 49.5353 29.7046 49.5264 29.8854 49.3374L32.6288 46.4714C33.2627 46.9053 34.0476 47.1316 34.9442 47.1052C37.528 47.0293 40.2472 45.0464 42.0272 43.1863C45.4729 39.5872 47.4944 32.1399 46.5409 31.2549ZM25.4963 49.3571C24.4064 49.2535 23.4251 48.8179 22.6851 48.1665C22.3221 47.8469 22.017 47.4758 21.785 47.0664C21.553 47.4758 21.2479 47.8469 20.8849 48.1665C20.0326 48.9168 18.8601 49.381 17.5701 49.381C16.2801 49.381 15.1077 48.9168 14.2552 48.1665C13.3879 47.4031 12.8514 46.3457 12.8514 45.1752C12.8514 44.9016 13.077 44.6796 13.3551 44.6796C13.6332 44.6796 13.8588 44.9016 13.8588 45.1752C13.8588 46.0539 14.266 46.8517 14.924 47.4309C15.5971 48.0233 16.5324 48.3898 17.5701 48.3898C18.6078 48.3898 19.5432 48.0233 20.2161 47.4309C20.8742 46.8516 21.2814 46.0537 21.2814 45.1752C21.2814 44.9016 21.5069 44.6796 21.785 44.6796C22.0631 44.6796 22.2887 44.9016 22.2887 45.1752C22.2887 46.0539 22.696 46.8517 23.354 47.4309C23.9161 47.9257 24.6613 48.2629 25.4963 48.3605V35.1762C24.4064 35.0726 23.4251 34.6371 22.6851 33.9856C22.3221 33.6661 22.017 33.2949 21.785 32.8856C21.553 33.2949 21.2479 33.6661 20.8849 33.9856C20.0326 34.7358 18.8601 35.2001 17.5701 35.2001C16.2801 35.2001 15.1077 34.7359 14.2552 33.9856C13.8922 33.6661 13.5872 33.2949 13.3551 32.8856C13.1231 33.2949 12.8181 33.6661 12.4551 33.9856C11.6027 34.7358 10.4302 35.2001 9.14021 35.2001C7.85022 35.2001 6.67778 34.7359 5.82529 33.9856C5.46231 33.6661 5.15725 33.2949 4.92522 32.8856C4.69319 33.2949 4.38813 33.6661 4.02515 33.9856C3.28936 34.6333 2.31494 35.0677 1.23243 35.1744C1.9792 40.264 4.5466 44.8243 8.31369 48.2841C12.7274 52.3377 18.7871 54.8822 25.4963 55.0038V49.3571ZM21.9933 41.0739C22.2715 41.0739 22.497 41.2958 22.497 41.5695C22.497 41.8431 22.2715 42.0651 21.9933 42.0651C20.7033 42.0651 19.5309 41.6009 18.6784 40.8506C18.3154 40.531 18.0104 40.1599 17.7783 39.7505C17.5463 40.1599 17.2413 40.531 16.8783 40.8506C16.0259 41.6008 14.8534 42.0651 13.5635 42.0651C12.2735 42.0651 11.101 41.6009 10.2485 40.8506C9.8855 40.531 9.5805 40.1599 9.34847 39.7505C9.11639 40.1599 8.81139 40.531 8.4484 40.8506C7.59602 41.6008 6.42352 42.0651 5.13354 42.0651C4.85546 42.0651 4.62988 41.8431 4.62988 41.5695C4.62988 41.2958 4.85546 41.0739 5.13354 41.0739C6.17122 41.0739 7.10662 40.7074 7.77952 40.115C8.43763 39.5357 8.84481 38.7378 8.84481 37.8593C8.84481 37.5857 9.07035 37.3637 9.34847 37.3637C9.62655 37.3637 9.85213 37.5857 9.85213 37.8593C9.85213 38.738 10.2594 39.5358 10.9174 40.115C11.5904 40.7074 12.5258 41.0739 13.5635 41.0739C14.6011 41.0739 15.5365 40.7074 16.2094 40.115C16.8676 39.5357 17.2747 38.7378 17.2747 37.8593C17.2747 37.5857 17.5003 37.3637 17.7783 37.3637C18.0565 37.3637 18.282 37.5857 18.282 37.8593C18.282 38.738 18.6893 39.5358 19.3473 40.115C20.0203 40.7074 20.9556 41.0739 21.9933 41.0739ZM1.11129 34.1904C1.98786 34.1093 2.77123 33.765 3.35626 33.2501C4.01438 32.6707 4.42156 31.8728 4.42156 30.9943C4.42156 30.7207 4.64709 30.4987 4.92522 30.4987C5.20329 30.4987 5.42888 30.7207 5.42888 30.9943C5.42888 31.873 5.83611 32.6708 6.49417 33.2501C7.16713 33.8424 8.10253 34.2088 9.14021 34.2088C10.1779 34.2088 11.1133 33.8424 11.7862 33.2501C12.4443 32.6707 12.8514 31.8728 12.8514 30.9943C12.8514 30.7207 13.077 30.4987 13.3551 30.4987C13.6332 30.4987 13.8588 30.7207 13.8588 30.9943C13.8588 31.873 14.266 32.6708 14.924 33.2501C15.5971 33.8424 16.5324 34.2088 17.5701 34.2088C18.6078 34.2088 19.5432 33.8424 20.2161 33.2501C20.8742 32.6707 21.2814 31.8728 21.2814 30.9943C21.2814 30.7207 21.5069 30.4987 21.785 30.4987C22.0631 30.4987 22.2887 30.7207 22.2887 30.9943C22.2887 31.873 22.696 32.6708 23.354 33.2501C23.9161 33.7448 24.6613 34.0821 25.4963 34.1796V27.0089H1.00737V32.0885C1.00737 32.7971 1.04259 33.4982 1.11129 34.1904ZM16.0109 13.6092C16.1344 14.0518 16.2766 14.4967 16.4857 14.9941C16.6932 15.4871 16.9698 16.0361 17.3653 16.6928C17.7957 17.4075 18.0805 17.9924 18.2159 18.5433C18.3619 19.1378 18.3343 19.6737 18.1269 20.25C17.8966 20.8901 17.3601 21.7022 16.589 22.1582C15.9848 22.5154 15.2474 22.6622 14.4099 22.3705C13.5347 22.0656 12.9366 21.7445 12.3737 21.4425C11.9105 21.1939 11.4728 20.9591 10.9128 20.7639C10.3657 20.5735 9.85546 20.5096 9.31579 20.4423C8.64674 20.3589 7.93587 20.2701 7.04811 19.9607C6.2056 19.6672 5.6966 19.1051 5.42471 18.466C5.08379 17.6646 5.13391 16.7384 5.36509 16.0959C5.56754 15.5334 5.81156 15.1165 6.25993 14.7351C6.67546 14.3815 7.25468 14.0797 8.14451 13.7298L8.27562 13.6782C9.26187 13.2906 10.1272 12.9503 11.6351 11.9209C12.1238 11.5875 12.5775 11.4572 13.0135 11.4447C13.4365 11.4327 13.8154 11.532 14.1869 11.6615C14.5748 11.7965 14.9514 12.0048 15.2734 12.3211C15.5948 12.6372 15.8562 13.0558 16.0109 13.6092ZM15.5572 15.3696C15.3315 14.833 15.1772 14.35 15.043 13.8685C14.9394 13.4982 14.7705 13.2238 14.5651 13.0218C14.3599 12.8203 14.1118 12.6847 13.8525 12.5944C13.5771 12.4984 13.3059 12.4245 13.0412 12.432C12.7895 12.4391 12.5167 12.5217 12.2056 12.734C10.6098 13.8233 9.69234 14.1844 8.64721 14.5951L8.51605 14.6467C7.73526 14.9536 7.24233 15.2055 6.91704 15.4823C6.62434 15.7313 6.45811 16.0225 6.31326 16.425C6.15068 16.8767 6.11487 17.5264 6.35324 18.0866C6.52375 18.4873 6.84602 18.8409 7.38252 19.0277C8.17904 19.3052 8.82945 19.3865 9.44162 19.4628C10.0416 19.5378 10.6088 19.6087 11.2473 19.831C11.8732 20.049 12.3496 20.3047 12.8538 20.5753C13.378 20.8565 13.935 21.1555 14.7444 21.4375C15.2569 21.616 15.7063 21.5273 16.0735 21.3103C16.6218 20.986 17.0091 20.3924 17.1787 19.9209C17.3186 19.5323 17.3376 19.1724 17.2401 18.7756C17.132 18.3353 16.8827 17.832 16.4998 17.1961C16.0821 16.5025 15.7847 15.9105 15.5572 15.3696ZM19.115 13.9954C18.7987 14.4526 18.6508 14.9525 18.6679 15.3909C18.6826 15.772 18.8261 16.0987 19.0944 16.2811L19.0949 16.2803L19.0991 16.2844C19.3697 16.4657 19.7334 16.4779 20.1022 16.351C20.5216 16.2067 20.9396 15.8886 21.2561 15.4314C21.5732 14.9735 21.7209 14.4735 21.7039 14.0352C21.6891 13.6518 21.5441 13.3237 21.273 13.1418L21.2693 13.1392C20.9989 12.9602 20.6369 12.9487 20.2696 13.0751C19.8514 13.219 19.435 13.5355 19.1187 13.9905L19.1197 13.9911L19.1155 13.9954H19.115ZM17.6645 15.4257C17.6399 14.7887 17.8437 14.0774 18.2818 13.4425L18.2808 13.4419L18.285 13.4375C18.725 12.802 19.3249 12.3535 19.9387 12.1421C20.6032 11.9136 21.2892 11.9564 21.839 12.3248L21.8862 12.3576C22.4054 12.7291 22.6808 13.3268 22.707 14.0003C22.7317 14.6389 22.5268 15.3521 22.0865 15.9881C21.646 16.6243 21.046 17.0728 20.4323 17.2839C19.7698 17.5118 19.0858 17.4697 18.5369 17.1042L18.5364 17.1052L18.5322 17.101C17.9826 16.7325 17.6913 16.1192 17.6644 15.4257H17.6645ZM15.1794 8.17972C15.1085 8.94785 14.8061 9.62724 14.375 10.1041C13.9074 10.6211 13.2862 10.9116 12.6226 10.8523H12.6126L12.6119 10.8513C11.9543 10.7887 11.4009 10.3938 11.0375 9.80469C10.7006 9.25879 10.5277 8.53851 10.5984 7.77318L10.5986 7.77115C10.7164 6.50601 11.4211 5.67489 12.236 5.34022C12.5546 5.20927 12.8916 5.15383 13.2203 5.1767C13.5562 5.20018 13.8825 5.3053 14.1717 5.4949C14.8439 5.93548 15.3061 6.82167 15.1794 8.17972ZM13.6235 9.4459C13.9204 9.11756 14.1295 8.63967 14.1801 8.09076C14.2678 7.15012 14.0062 6.57465 13.6171 6.31963C13.4758 6.22698 13.3153 6.17559 13.1495 6.16395C12.9763 6.1519 12.7956 6.1824 12.6216 6.25389C12.1168 6.46122 11.6774 7.00701 11.5979 7.86011L11.5977 7.86219C11.5469 8.41255 11.6643 8.91948 11.8952 9.29376C12.0977 9.62178 12.3862 9.83955 12.7121 9.86886L12.7228 9.86969C13.045 9.89463 13.3656 9.73116 13.6235 9.4459ZM9.95964 10.5778C9.87801 11.3944 9.58641 11.9951 9.1684 12.3959C8.68148 12.8626 8.04143 13.0476 7.36499 12.9821C6.68898 12.9167 6.10225 12.6129 5.72068 12.0621C5.39339 11.5894 5.22938 10.9445 5.31096 10.1272C5.44039 8.83728 6.15564 8.00357 6.9811 7.67216C7.30516 7.54205 7.64718 7.48916 7.98012 7.51566C8.3195 7.54273 8.6497 7.65232 8.94303 7.84644C9.62808 8.2999 10.097 9.20522 9.95964 10.5778ZM8.4681 11.6873C8.72299 11.443 8.90369 11.047 8.96035 10.481C9.05588 9.52581 8.78657 8.93346 8.38435 8.66721C8.23908 8.57114 8.07338 8.51663 7.90149 8.50291C7.72328 8.48868 7.5373 8.51803 7.35871 8.58974C6.84602 8.79561 6.39833 9.34691 6.31031 10.224C6.25354 10.7919 6.35081 11.2159 6.55078 11.5047C6.7543 11.7984 7.08053 11.9617 7.46342 11.9988C7.84917 12.036 8.20655 11.938 8.4681 11.6873ZM19.2801 7.19303C19.8481 7.50974 20.1799 8.08983 20.257 8.77155C20.3274 9.39565 20.1801 10.1136 19.7982 10.7772C19.417 11.4393 18.8665 11.9324 18.2852 12.1939C17.6514 12.4791 16.9753 12.4975 16.4077 12.181C15.8396 11.8643 15.5077 11.2843 15.4306 10.6026C15.36 9.9787 15.5072 9.26066 15.8891 8.59722C16.2702 7.93519 16.8206 7.44193 17.4023 7.1802C18.0362 6.89494 18.7123 6.87659 19.2801 7.19303ZM19.2576 8.87999C19.2157 8.50847 19.0545 8.20315 18.7844 8.05257C18.5141 7.90188 18.1649 7.92277 17.8194 8.07829C17.4214 8.2574 17.0375 8.60735 16.7626 9.08498C16.4885 9.5613 16.3814 10.0652 16.4299 10.4942C16.4719 10.8656 16.6331 11.1708 16.9033 11.3214C17.1736 11.4721 17.5227 11.4512 17.8681 11.2958C18.2658 11.1169 18.6496 10.7672 18.9246 10.2894C19.1989 9.81295 19.3061 9.30898 19.2576 8.87999ZM38.7482 5.32213L34.3898 11.8263H35.9968C36.2749 11.8263 36.5004 12.0482 36.5004 12.3219C36.5004 12.4502 36.4508 12.5671 36.3696 12.6551L33.686 16.0623L35.4514 15.6268C35.7209 15.5605 35.9939 15.7216 36.0613 15.9868C36.0939 16.1149 36.0724 16.2438 36.0111 16.3504L33.4296 21.3539H44.0667L41.4744 16.3295C41.3495 16.0858 41.449 15.7883 41.6967 15.6654C41.8087 15.6099 41.9319 15.5995 42.0448 15.6273L43.8103 16.0623L41.1022 12.6239C40.9327 12.408 40.9733 12.0977 41.1927 11.9309C41.2841 11.8613 41.3922 11.8278 41.4996 11.8279V11.8263H43.1065L38.7482 5.32213ZM33.038 12.0508L38.3244 4.1619C38.3613 4.10417 38.4111 4.05325 38.4728 4.01335C38.7041 3.8637 39.0151 3.92699 39.1673 4.15468L44.4324 12.0121C44.5016 12.0969 44.543 12.2047 44.543 12.3219C44.543 12.5956 44.3174 12.8175 44.0393 12.8175H42.5252L45.4768 16.5651C45.5809 16.6829 45.6267 16.847 45.5854 17.0099C45.518 17.275 45.2449 17.4362 44.9754 17.3699L42.8701 16.8506L45.3173 21.5937C45.3632 21.6684 45.3895 21.7559 45.3895 21.8495C45.3895 22.1231 45.164 22.3451 44.8859 22.3451H32.6105V22.3439C32.5342 22.344 32.4568 22.3269 32.3842 22.2909C32.1366 22.168 32.037 21.8706 32.1619 21.6269L34.6263 16.8506L32.5209 17.3699C32.3768 17.4045 32.2184 17.377 32.092 17.2809C31.8725 17.1141 31.832 16.8037 32.0016 16.5879L34.9712 12.8175H33.457V12.8153C33.3624 12.8154 33.2666 12.7892 33.1816 12.7342C32.9503 12.5846 32.8859 12.2785 33.038 12.0508ZM1.00737 26.0176H25.4963V0.991204H1.00737V26.0176ZM26.5037 26.0176H50.9927V0.991204H26.5037V26.0176ZM50.9927 27.0089H26.5037V34.7044V48.8854V55.0038C33.2129 54.8822 39.2726 52.3377 43.6863 48.2841C48.2005 44.1382 50.9927 38.4121 50.9927 32.0885V27.0089ZM52 32.0885C52 38.6971 49.0846 44.6791 44.371 49.0081C39.6673 53.3279 33.1718 56 26 56C18.8282 56 12.3328 53.3279 7.62902 49.0081C2.91539 44.6791 0 38.6971 0 32.0885L0.000104747 0H52V32.0885ZM32.2841 42.1264C32.6955 40.5182 33.8025 38.7131 35.4006 37.0437C35.7743 36.6537 36.2175 36.2749 36.6975 35.9034L37.1596 40.3686L32.5921 45.1402C32.08 44.4132 31.966 43.3661 32.2841 42.1264ZM33.2841 45.787L34.5819 44.4312L38.1965 45.0666C37.0405 45.7445 35.9092 46.137 34.9157 46.1662C34.2756 46.1849 33.7307 46.0558 33.2841 45.787ZM39.3267 44.3113L35.3644 43.6144L40.0186 38.7522C40.1996 38.5632 40.1906 38.266 39.9986 38.0881C39.8065 37.9102 39.5045 37.9191 39.3238 38.108L38.0259 39.4641L37.5911 35.263C38.1197 34.9109 38.6813 34.5658 39.3063 34.2352L40.0042 36.6559C40.0639 36.8632 40.2592 37.0036 40.4779 36.9973C40.6966 36.9908 40.883 36.8387 40.93 36.6283L41.7124 33.1246C43.5952 32.3732 45.1396 32.0096 45.7995 31.9901C45.8181 31.9897 45.835 31.9896 45.8499 31.9891C45.9827 33.2305 44.4482 39.2872 41.3322 42.5419C40.683 43.2204 40.0067 43.8067 39.3267 44.3111V44.3113Z" fill="#D5BC84"/>
<path fill-rule="evenodd" clip-rule="evenodd" d="M72.2178 36H73.0115C72.9798 36.805 72.6205 37.3733 71.9333 37.7053C71.7675 37.7883 71.5108 37.8796 71.1634 37.979C70.3734 38.2281 69.8127 38.5288 69.481 38.8816C69.1493 39.2344 68.952 39.9335 68.8886 40.9792C69.0307 40.6639 69.2776 40.3505 69.6291 40.0394C69.9804 39.728 70.4842 39.5727 71.1396 39.5727C71.9057 39.5639 72.5198 39.8194 72.9819 40.338C73.4439 40.8568 73.6986 41.5188 73.7459 42.3237C73.817 43.2947 73.5979 44.1036 73.0886 44.7511C72.5792 45.3983 71.8703 45.7219 70.9619 45.7219C70.2114 45.7219 69.5304 45.4545 68.9183 44.9192C68.3061 44.3838 68 43.3817 68 41.913C68 40.701 68.1461 39.7447 68.4384 39.0434C68.7307 38.3423 69.096 37.8421 69.5342 37.5435C69.9726 37.2447 70.5156 37.0124 71.1634 36.8464C71.2817 36.8132 71.4103 36.776 71.5483 36.7343C71.6864 36.6928 71.7912 36.6514 71.8622 36.6097C72.107 36.4604 72.2256 36.2572 72.2178 36ZM70.9027 44.888C71.3449 44.888 71.6964 44.7677 71.9571 44.527C72.2178 44.2862 72.3936 43.9978 72.4841 43.6618C72.5751 43.3257 72.6205 42.9833 72.6205 42.6348C72.6205 42.0623 72.4822 41.5602 72.2059 41.1285C71.9295 40.6971 71.4951 40.4813 70.9027 40.4813C70.2946 40.4813 69.864 40.701 69.6114 41.1409C69.3585 41.5807 69.2243 42.0788 69.2086 42.6348C69.2086 43.1909 69.3308 43.7055 69.5757 44.1784C69.8205 44.6513 70.263 44.888 70.9027 44.888ZM76.9803 40.6182C76.9408 42.718 76.6761 44.1202 76.1864 44.8258C75.6968 45.5312 75.1082 45.8215 74.4212 45.6972V44.7758C75.0926 44.7426 75.517 44.2822 75.6948 43.3941C75.8725 42.5063 75.9811 41.2778 76.0205 39.7096H79.5985V45.5851H78.5915V40.6182H76.9803ZM81.6597 41.1784L81.1977 40.4314C81.8534 39.8589 82.5919 39.5727 83.4132 39.5727C84.2898 39.5727 84.8606 39.8236 85.1253 40.3257C85.3897 40.8277 85.5221 41.3442 85.5221 41.8755V44.029C85.5221 44.5104 85.7115 44.7592 86.0908 44.7758V45.7219C85.3641 45.7219 84.8744 45.44 84.6215 44.8755C84.2898 45.1244 83.9621 45.3257 83.6382 45.4792C83.3146 45.6328 82.9748 45.7137 82.6195 45.7219C82.0033 45.7307 81.5453 45.5684 81.2452 45.2365C80.9452 44.9047 80.795 44.498 80.795 44.0165C80.8028 43.1534 81.1502 42.5767 81.8376 42.2863C82.5246 41.9958 83.4093 41.8588 84.4912 41.8755C84.5229 41.2945 84.4143 40.9066 84.1655 40.7116C83.9167 40.5164 83.6227 40.4356 83.2829 40.4689C82.8721 40.4856 82.3312 40.722 81.6597 41.1784ZM84.5032 42.7345C83.887 42.7095 83.3775 42.7657 82.9747 42.9022C82.572 43.0393 82.2975 43.2073 82.1514 43.4066C82.0054 43.6058 81.9322 43.8091 81.9322 44.0165C81.9322 44.2405 82.0154 44.4336 82.1811 44.5953C82.3471 44.7571 82.576 44.8258 82.8683 44.8009C83.192 44.7759 83.5042 44.6742 83.8043 44.4959C84.1042 44.3174 84.3333 44.083 84.4912 43.7926L84.5032 42.7345ZM90.7231 40.6059H88.1523V45.5851H87.1573V39.722H90.7231V40.6059ZM94.2298 45.7219C93.2347 45.7219 92.5002 45.4025 92.0263 44.7634C91.5525 44.1244 91.3233 43.3983 91.3391 42.5849C91.355 42.0538 91.4815 41.558 91.7183 41.0973C91.9553 40.6369 92.2927 40.2676 92.7312 39.9895C93.1696 39.7115 93.6691 39.5727 94.2298 39.5727C95.0673 39.5727 95.7542 39.865 96.2913 40.4501C96.8285 41.0351 97.1049 41.747 97.1207 42.5849C97.1444 43.4149 96.9194 44.1452 96.4453 44.7758C95.9714 45.4066 95.2329 45.7219 94.2298 45.7219ZM94.2298 44.8133C94.6958 44.8133 95.0592 44.695 95.3198 44.4585C95.5805 44.2221 95.7562 43.9397 95.8472 43.6121C95.9379 43.284 95.9833 42.9501 95.9833 42.6099C95.9833 42.0456 95.8472 41.5517 95.5747 41.1285C95.302 40.7053 94.8538 40.4938 94.2298 40.4938C93.6139 40.4938 93.1717 40.7053 92.9029 41.1285C92.6345 41.5517 92.4924 42.0456 92.4766 42.6099C92.4766 43.1826 92.6028 43.6927 92.8557 44.1411C93.1084 44.5894 93.5664 44.8133 94.2298 44.8133ZM99.49 45.5851V40.6059H97.7603V39.722H102.167V40.6059H100.497V45.5851H99.49ZM103.257 45.5851V39.722H105.39C106.646 39.722 107.27 40.2032 107.262 41.166C107.246 41.4646 107.157 41.7364 106.995 41.9812C106.833 42.2261 106.602 42.3856 106.302 42.4606C106.618 42.4937 106.914 42.6224 107.191 42.8463C107.467 43.0704 107.609 43.4191 107.617 43.892C107.649 45.0207 106.966 45.5851 105.568 45.5851H103.257ZM104.253 42.087H105.094C105.449 42.087 105.712 42.0248 105.882 41.9002C106.051 41.776 106.124 41.5559 106.101 41.2406C106.077 40.9834 105.978 40.8132 105.805 40.7302C105.631 40.6473 105.394 40.6059 105.094 40.6059H104.253V42.087ZM104.253 44.6888H105.26C105.67 44.6888 105.98 44.6328 106.19 44.5207C106.399 44.4086 106.492 44.1658 106.468 43.7926C106.452 43.502 106.361 43.2925 106.196 43.1638C106.03 43.0353 105.718 42.9709 105.26 42.9709H104.253V44.6888ZM111.313 45.7219C110.318 45.7219 109.584 45.4025 109.11 44.7634C108.636 44.1244 108.407 43.3983 108.423 42.5849C108.439 42.0538 108.565 41.558 108.802 41.0973C109.039 40.6369 109.376 40.2676 109.815 39.9895C110.253 39.7115 110.753 39.5727 111.313 39.5727C112.151 39.5727 112.838 39.865 113.375 40.4501C113.912 41.0351 114.189 41.747 114.204 42.5849C114.228 43.4149 114.003 44.1452 113.529 44.7758C113.055 45.4066 112.317 45.7219 111.313 45.7219ZM111.313 44.8133C111.779 44.8133 112.143 44.695 112.403 44.4585C112.664 44.2221 112.84 43.9397 112.931 43.6121C113.021 43.284 113.067 42.9501 113.067 42.6099C113.067 42.0456 112.931 41.5517 112.658 41.1285C112.386 40.7053 111.937 40.4938 111.313 40.4938C110.698 40.4938 110.255 40.7053 109.987 41.1285C109.718 41.5517 109.576 42.0456 109.56 42.6099C109.56 43.1826 109.686 43.6927 109.939 44.1411C110.192 44.5894 110.65 44.8133 111.313 44.8133ZM116.431 44.9127V48H115.413V39.722H116.431V40.5684C116.558 40.361 116.757 40.1473 117.03 39.9272C117.302 39.7075 117.675 39.5889 118.149 39.5727C118.876 39.531 119.492 39.7757 119.998 40.307C120.503 40.8381 120.756 41.6059 120.756 42.6099C120.756 43.4563 120.543 44.1888 120.116 44.807C119.689 45.4254 119.054 45.7301 118.208 45.7219C117.435 45.7054 116.842 45.4358 116.431 44.9127ZM116.42 42.6224C116.42 43.1949 116.547 43.6888 116.799 44.1036C117.052 44.5186 117.487 44.722 118.103 44.7136C118.6 44.6888 118.981 44.475 119.246 44.0728C119.51 43.67 119.635 43.1744 119.619 42.5849C119.619 41.921 119.467 41.4148 119.163 41.0663C118.859 40.7177 118.494 40.5435 118.067 40.5435C117.648 40.5435 117.271 40.7053 116.936 41.0291C116.6 41.3525 116.428 41.8838 116.42 42.6224ZM122.984 43.4191L125.59 40.6431V39.722H126.597V45.5851H125.59V41.9502L122.984 44.7136V45.5851H121.989V39.722H122.984V43.4191ZM129.393 45.5851V40.6059H127.663V39.722H132.07V40.6059H130.4V45.5851H129.393ZM137.236 43.9294L137.864 44.5519C137.232 45.3236 136.454 45.7137 135.53 45.7219C134.709 45.7219 134.041 45.44 133.528 44.8755C133.014 44.3112 132.75 43.5809 132.734 42.6846C132.725 41.7799 132.967 41.0351 133.456 40.4501C133.946 39.865 134.582 39.5727 135.364 39.5727C135.964 39.5727 136.454 39.7386 136.833 40.0706C137.212 40.4024 137.481 40.8174 137.639 41.3153C137.797 41.8131 137.868 42.3237 137.852 42.8463H133.871C133.855 43.3442 133.992 43.7841 134.28 44.1659C134.568 44.5476 134.985 44.7426 135.53 44.7511C135.885 44.7599 136.173 44.7012 136.395 44.5766C136.616 44.4523 136.896 44.2366 137.236 43.9294ZM133.93 41.9624H136.726C136.726 41.5726 136.602 41.2304 136.353 40.9357C136.104 40.6409 135.767 40.4938 135.34 40.4938C134.906 40.4938 134.566 40.6349 134.321 40.9169C134.076 41.1992 133.946 41.5477 133.93 41.9624ZM141.074 40.6182C141.035 42.718 140.77 44.1202 140.281 44.8258C139.791 45.5312 139.203 45.8215 138.515 45.6972V44.7758C139.187 44.7426 139.611 44.2822 139.789 43.3941C139.967 42.5063 140.075 41.2778 140.115 39.7096H143.693V45.5851H142.686V40.6182H141.074ZM145.328 39.722H146.311V41.4895H147.496C148.222 41.4895 148.773 41.6369 149.148 41.9314C149.524 42.2261 149.723 42.7345 149.747 43.4563C149.77 44.2533 149.577 44.807 149.166 45.1182C148.756 45.4293 148.143 45.5851 147.33 45.5851H145.316L145.328 39.722H145.328ZM146.311 44.6888H147.413C147.76 44.6888 148.054 44.6163 148.296 44.4708C148.536 44.3257 148.657 44.0208 148.657 43.5559C148.665 42.7674 148.25 42.3733 147.413 42.3733H146.311V44.6888ZM151.903 42.8588V45.5851H150.908V39.722H151.903V41.9624H154.509V39.722H155.516V45.5851H154.509V42.8588H151.903ZM162.4 45.5851L162.411 39.722H163.394V45.5851H162.399H162.4ZM157.151 39.722H158.146V41.4895H159.035C159.761 41.4895 160.316 41.6391 160.699 41.9377C161.082 42.2363 161.278 42.7427 161.286 43.4563C161.317 44.2533 161.128 44.807 160.717 45.1182C160.307 45.4293 159.698 45.5851 158.893 45.5851H157.151V39.722ZM158.146 44.6888H158.952C159.299 44.6888 159.594 44.6163 159.835 44.4708C160.076 44.3257 160.196 44.0208 160.196 43.5559C160.204 42.7674 159.789 42.3733 158.952 42.3733H158.146V44.6888ZM165.669 36.7717L166.345 36.76C166.368 37.0835 166.469 37.3552 166.647 37.5753C166.824 37.7954 167.055 37.9051 167.34 37.9051C167.64 37.9051 167.873 37.7869 168.039 37.5505C168.205 37.3138 168.296 37.0544 168.312 36.7725H168.987C169.01 37.1542 168.943 37.4922 168.785 37.7869C168.627 38.0816 168.422 38.3035 168.169 38.4528C167.916 38.6022 167.64 38.6771 167.34 38.6771C166.89 38.6771 166.497 38.5048 166.161 38.1605C165.825 37.8159 165.662 37.3535 165.669 36.7725V36.7717ZM166.025 43.4191L168.643 40.6431V39.722H169.65V45.5851H168.643V41.9502L166.025 44.7136V45.5851H165.042V39.722H166.025V43.4191ZM178.761 40.6805V37.2072H179.815V40.6805C180.083 39.9998 180.55 39.6431 181.213 39.6099C181.695 39.5599 182.109 39.6888 182.457 39.9959C182.805 40.303 183.065 40.7075 183.239 41.2094C183.413 41.7116 183.499 42.2406 183.499 42.7966C183.499 43.6266 183.304 44.3279 182.913 44.9004C182.522 45.4729 181.995 45.7468 181.332 45.7219C180.628 45.7054 180.123 45.3693 179.815 44.7136V48H178.761V44.7136C178.46 45.3526 177.959 45.6887 177.256 45.7219C176.585 45.7468 176.057 45.4792 175.674 44.9192C175.291 44.3589 175.092 43.6513 175.076 42.7966C175.06 42.2573 175.141 41.7322 175.319 41.2219C175.497 40.7116 175.761 40.303 176.113 39.9959C176.464 39.6888 176.881 39.5599 177.363 39.6099C177.591 39.6099 177.844 39.6866 178.121 39.8401C178.397 39.9937 178.61 40.2737 178.761 40.6805ZM178.784 42.7469C178.784 42.3899 178.753 42.0498 178.69 41.7262C178.626 41.4024 178.5 41.1182 178.311 40.8733C178.121 40.6286 177.852 40.502 177.505 40.4938C177.142 40.4938 176.833 40.6555 176.581 40.9792C176.328 41.303 176.198 41.8838 176.19 42.7219C176.19 43.5601 176.322 44.1287 176.587 44.4273C176.851 44.7262 177.153 44.8672 177.493 44.8505C178.322 44.834 178.753 44.1329 178.784 42.7469ZM179.779 42.7469C179.819 44.1329 180.253 44.834 181.083 44.8505C181.43 44.8672 181.734 44.7242 181.995 44.4213C182.256 44.1184 182.386 43.5519 182.386 42.7219C182.386 41.8838 182.252 41.303 181.983 40.9792C181.714 40.6555 181.407 40.4938 181.059 40.4938C180.798 40.5025 180.569 40.5954 180.372 40.7739C180.174 40.9522 180.024 41.2156 179.922 41.5644C179.819 41.913 179.772 42.307 179.779 42.7469ZM187.172 45.7219C186.177 45.7219 185.443 45.4025 184.969 44.7634C184.495 44.1244 184.266 43.3983 184.281 42.5849C184.297 42.0538 184.424 41.558 184.661 41.0973C184.898 40.6369 185.235 40.2676 185.674 39.9895C186.112 39.7115 186.611 39.5727 187.172 39.5727C188.01 39.5727 188.697 39.865 189.234 40.4501C189.771 41.0351 190.047 41.747 190.063 42.5849C190.087 43.4149 189.862 44.1452 189.388 44.7758C188.914 45.4066 188.175 45.7219 187.172 45.7219ZM187.172 44.8133C187.638 44.8133 188.002 44.695 188.262 44.4585C188.523 44.2221 188.699 43.9397 188.79 43.6121C188.88 43.284 188.926 42.9501 188.926 42.6099C188.926 42.0456 188.79 41.5517 188.517 41.1285C188.244 40.7053 187.796 40.4938 187.172 40.4938C186.556 40.4938 186.114 40.7053 185.845 41.1285C185.577 41.5517 185.435 42.0456 185.419 42.6099C185.419 43.1826 185.545 43.6927 185.798 44.1411C186.051 44.5894 186.509 44.8133 187.172 44.8133ZM192.267 42.8588V45.5851H191.271V39.722H192.267V41.9624H194.873V39.722H195.88V45.5851H194.873V42.8588H192.267ZM196.946 47.3029V44.6888H197.645C197.985 44.2323 198.216 43.6453 198.338 42.9274C198.461 42.2094 198.51 41.1409 198.486 39.722H202.206V44.6888H203V47.3029H202.005V45.5851H197.941V47.3029H196.946ZM201.188 44.6888V40.6059H199.47V40.9792C199.47 41.311 199.466 41.5559 199.457 41.7137C199.418 42.9999 199.205 43.9917 198.818 44.6888H201.187H201.188Z" fill="#D5BC84"/>
</svg>
