<svg width="161" height="36" viewBox="0 0 161 36" fill="none" xmlns="http://www.w3.org/2000/svg">
<g clip-path="url(#clip0_107_105)">
<path d="M31.374 2.37933C33.0675 2.66144 34.62 4.07288 35.8904 5.06116C38.5713 7.45998 40.4068 10.565 39.9855 14.2351C39.7034 15.7876 38.9981 17.4811 39.2802 19.1747C39.4213 20.4487 40.9738 22.4207 40.6917 23.55C40.2676 25.2436 37.7278 23.9732 36.8805 23.409C35.187 22.135 34.6228 20.4451 34.0595 18.6095C32.931 15.3635 32.931 11.1301 30.3903 8.73036L31.374 2.37933Z" fill="#B66E43"/>
<path d="M31.3111 2.6041C32.6088 2.84525 33.7026 3.63242 34.7218 4.4296C35.681 5.18037 36.5664 5.96753 37.3509 6.90394C38.9398 8.79769 39.8989 11.1455 39.7988 13.6381C39.7424 15.0031 39.1809 16.3035 39.018 17.6558C38.8824 18.7833 39.119 19.7662 39.585 20.7808C39.949 21.5807 40.697 22.6673 40.4358 23.5873C40.1747 24.5074 38.9489 24.1252 38.3355 23.8977C35.4134 22.8175 34.488 19.6551 33.8027 16.9023C33.0902 14.0349 32.7926 10.7324 30.5503 8.56746C30.3328 8.35907 30.0043 8.68849 30.22 8.8978C31.8853 10.5067 32.4213 12.8427 32.9009 15.024C33.3741 17.1753 33.8446 19.4322 34.872 21.4006C35.7138 23.014 37.2562 24.2662 39.0681 24.5902C39.7379 24.7103 40.4449 24.5847 40.7907 23.9441C41.1948 23.1969 40.7835 22.2878 40.475 21.5889C40.1437 20.8382 39.7115 20.1129 39.5322 19.3057C39.2683 18.1227 39.5886 16.8778 39.8771 15.7311C40.1273 14.7301 40.3075 13.7955 40.2657 12.7617C40.2193 11.7989 40.0228 10.8492 39.6833 9.94705C39.0271 8.16068 37.845 6.61092 36.4873 5.29867C35.7765 4.61251 34.9612 4.00462 34.1585 3.42949C33.3395 2.84343 32.434 2.34201 31.4348 2.15546C31.14 2.10086 31.0144 2.55132 31.3102 2.60592L31.3111 2.6041Z" fill="#20191B"/>
<path d="M15.0018 1.95618C13.2927 2.22945 11.6588 2.85413 10.2033 3.79078C8.65078 4.9192 7.23933 6.18959 6.67512 8.02419C6.25105 9.71865 6.53316 11.6943 5.68684 13.2468C4.83961 15.0814 3.00501 15.9286 1.45252 17.0571C0.17849 18.0453 -0.382083 18.8926 1.17041 19.7389C4.13435 21.7145 8.79183 21.0129 11.4737 18.8926C15.1474 16.2107 16.5543 11.6943 16.6944 7.31892L15.0018 1.95618Z" fill="#B66E43"/>
<path d="M14.9398 1.73049C12.3918 2.16912 10.0913 3.29937 8.24756 5.11577C7.42654 5.90504 6.80947 6.88188 6.44936 7.96231C6.06078 9.16809 6.19092 10.5286 5.9534 11.7662C5.71589 13.0038 5.0361 14.0776 4.0915 14.9085C3.22789 15.6684 2.18683 16.1825 1.28773 16.8923C0.677106 17.3737 -0.286606 18.14 0.0810419 19.0354C0.253946 19.4559 0.674373 19.7243 1.05203 19.9409C1.51069 20.2184 1.99126 20.4579 2.48895 20.6571C6.0626 21.993 10.1923 20.5952 12.8359 18.0435C15.6979 15.2816 16.7926 11.1838 16.931 7.31893C16.9419 7.01771 16.476 7.01862 16.4632 7.31893C16.2976 12.0192 14.5849 16.9287 10.3088 19.3922C8.33128 20.5306 5.85512 20.9483 3.62011 20.4924C3.0863 20.3826 2.56711 20.211 2.07307 19.9809C1.55982 19.7434 0.87822 19.4149 0.556072 18.9408C-0.0372605 18.0699 2.06489 16.9105 2.59543 16.5593C3.85308 15.7293 5.11527 14.8675 5.82691 13.4943C6.66321 11.8827 6.50214 10.1136 6.83521 8.38001C7.15645 6.70466 8.49509 5.40788 9.78094 4.39776C11.3025 3.202 13.1699 2.50765 15.0645 2.18095C15.3612 2.12999 15.2347 1.67953 14.9408 1.72594L14.9398 1.73049Z" fill="#20191B"/>
<path d="M9.35605 24.2553C8.36867 22.5618 9.78012 19.0336 10.0622 17.3392C10.7675 14.6573 11.1916 11.9755 11.6147 9.29369C11.8968 7.17698 11.8968 4.21304 13.7314 2.66055C15.425 1.10806 18.3889 1.53122 20.5065 1.67227C23.1874 1.81332 25.7282 1.81332 28.41 1.81332C30.3857 1.81332 31.9382 1.95528 32.7854 3.93094C33.9138 6.4708 33.6317 9.57306 33.6317 12.2576C33.4907 16.4919 34.62 21.1494 33.7728 25.3837L9.35605 24.2553Z" fill="#B66E43"/>
<path d="M9.55813 24.1379C9.08128 23.2716 9.22597 22.1695 9.38613 21.2386C9.55995 20.2257 9.85388 19.2365 10.1041 18.2437C10.7821 15.5473 11.2872 12.8182 11.7267 10.0717C12.0661 7.935 11.9651 5.50707 13.1827 3.62788C14.525 1.55576 17.2205 1.66587 19.3882 1.8233C22.2092 2.02806 25.0357 2.04717 27.8641 2.04808C28.9143 2.04808 30.0099 1.99621 31.0091 2.3766C32.1212 2.80067 32.6089 3.95093 32.932 5.00837C33.7055 7.53641 33.407 10.3183 33.387 12.9255C33.3652 15.7921 33.8202 18.6387 33.8566 21.5034C33.8844 22.7846 33.7814 24.0652 33.549 25.3255C33.4917 25.6194 33.9421 25.745 33.9994 25.4492C34.54 22.66 34.2852 19.8162 34.0604 17.0079C33.9476 15.5937 33.8447 14.1777 33.8557 12.7581C33.8657 11.4522 33.9121 10.1463 33.8921 8.83956C33.8729 7.56007 33.7601 6.27421 33.4261 5.03568C33.1631 4.06287 32.7436 2.99996 31.9173 2.37023C31.1948 1.82421 30.3093 1.66223 29.423 1.60672C28.0716 1.52118 26.7029 1.58579 25.3497 1.57578C23.8564 1.56395 22.3639 1.53119 20.8715 1.46112C19.7485 1.40834 18.631 1.27911 17.5044 1.27911C16.4552 1.28639 15.3959 1.43109 14.444 1.89156C13.534 2.33201 12.8433 3.15284 12.411 4.05012C11.956 4.98926 11.7686 6.04034 11.6366 7.06502C11.4819 8.26716 11.3554 9.46474 11.1625 10.6623C10.7366 13.3132 10.2197 15.9505 9.54357 18.5504C9.27056 19.5823 8.98481 20.6152 8.85013 21.6754C8.73638 22.5772 8.70362 23.5519 9.1559 24.3727C9.30059 24.6366 9.70191 24.4009 9.55904 24.137L9.55813 24.1379Z" fill="#20191B"/>
<path d="M10.7674 21.4324C6.95716 25.2436 9.21492 29.336 13.4492 31.8767C18.2478 34.6978 24.8809 35.2638 30.2446 33.2882C35.7493 31.1715 36.8777 25.6668 33.3496 21.0093C31.727 18.8252 29.3919 17.3646 27.0322 16.087C25.8109 15.4254 24.5651 14.8093 23.3375 14.1568C20.1752 12.4778 18.5881 15.217 16.4268 17.0316C14.6241 18.5449 12.4309 19.7707 10.7674 21.4324Z" fill="white"/>
<path d="M10.6027 21.2704C9.07208 22.8284 8.17844 24.8477 8.8109 27.0235C9.42972 29.153 11.2589 30.771 13.0662 31.9185C17.1876 34.5358 22.5467 35.2055 27.287 34.341C29.4866 33.9406 31.6943 33.1944 33.3614 31.6528C34.701 30.4014 35.502 28.6786 35.5955 26.8479C35.7084 24.835 34.9303 22.8602 33.7973 21.2304C32.3477 19.1455 30.2774 17.6631 28.1006 16.4154C27.2097 15.904 26.2978 15.4317 25.386 14.9594C24.4742 14.4871 23.5705 13.9202 22.5986 13.588C21.239 13.1221 19.9596 13.6135 18.8812 14.4553C18.307 14.903 17.7955 15.4299 17.275 15.9368C16.6189 16.5729 15.9218 17.1653 15.1883 17.7104C13.6367 18.867 11.9869 19.9054 10.6027 21.2704C10.388 21.4824 10.7183 21.8119 10.9331 21.6007C12.7913 19.7671 15.1374 18.5431 17.0611 16.7867C18.4699 15.5 19.9386 13.5107 22.0981 13.9384C22.7351 14.064 23.2957 14.4034 23.8617 14.6991C24.5579 15.0632 25.2577 15.4181 25.9548 15.7812C27.1487 16.4045 28.3299 17.0552 29.4574 17.7905C31.5641 19.1683 33.396 20.9756 34.4352 23.297C35.2461 25.1098 35.4008 27.2292 34.6173 29.0775C33.791 31.0331 31.9955 32.4045 30.0399 33.1161C25.2832 34.8452 19.7075 34.5612 15.1082 32.4791C12.9406 31.499 10.802 30.0011 9.6554 27.8617C9.13851 26.9183 8.94905 25.8302 9.11667 24.7676C9.32416 23.5318 10.0686 22.4707 10.9294 21.5953C11.1433 21.3832 10.8139 21.052 10.6027 21.2704Z" fill="#20191B"/>
<path d="M25.0164 17.6659C26.6544 19.5769 23.5303 21.2058 22.0024 21.417C15.1936 22.3625 20.3262 12.1985 25.0164 17.6659Z" fill="#303030"/>
<path d="M24.8519 17.8315C26.2634 19.5605 23.3959 20.9383 22.0199 21.1795C20.9944 21.3615 19.4719 21.2877 19.0478 20.1293C18.7202 19.2293 19.1661 18.1755 19.7358 17.4766C20.4156 16.6412 21.4648 16.1216 22.5505 16.319C23.4851 16.4892 24.2459 17.1381 24.8519 17.8315C25.0503 18.059 25.3788 17.7268 25.1823 17.5011C24.3168 16.5065 23.1283 15.6875 21.7524 15.8249C20.6913 15.9305 19.7877 16.592 19.1798 17.4411C18.6338 18.2028 18.3125 19.2293 18.5664 20.1557C18.854 21.2049 19.8905 21.6381 20.8888 21.7027C22.1765 21.7937 23.4842 21.3505 24.5289 20.6107C25.0285 20.2558 25.4653 19.7917 25.6537 19.1983C25.8502 18.5795 25.5708 17.9744 25.1841 17.5011C24.9912 17.2664 24.6626 17.6003 24.8519 17.8315Z" fill="#20191B"/>
<path d="M27.3289 10.565C27.3232 10.8491 27.3826 11.1309 27.5027 11.3885C27.6037 11.6078 27.9377 11.4904 27.9377 11.2711V10.4239C27.9336 10.3703 27.9113 10.3197 27.8745 10.2806C27.8376 10.2415 27.7884 10.2162 27.7352 10.2089C27.6819 10.2017 27.6278 10.213 27.5818 10.2408C27.5359 10.2687 27.5009 10.3115 27.4827 10.362C27.3625 10.8107 27.5837 11.0227 27.7884 11.3885C27.8093 11.4234 27.8388 11.4523 27.8741 11.4723C27.9094 11.4924 27.9494 11.5029 27.99 11.5029C28.0306 11.5029 28.0705 11.4924 28.1059 11.4723C28.1412 11.4523 28.1707 11.4234 28.1916 11.3885C28.3554 11.0582 28.3308 10.8507 28.2152 10.5031C28.1351 10.261 27.7466 10.292 27.7602 10.565C27.773 10.9171 27.9131 11.0946 28.0742 11.3885C28.0952 11.4232 28.1248 11.4518 28.1601 11.4717C28.1954 11.4916 28.2352 11.5021 28.2757 11.5021C28.3163 11.5021 28.3561 11.4916 28.3914 11.4717C28.4267 11.4518 28.4563 11.4232 28.4773 11.3885C28.8076 10.848 28.5956 10.4203 28.1133 10.0808C28.0823 10.063 28.0477 10.0525 28.012 10.0501C27.9763 10.0477 27.9406 10.0535 27.9075 10.067C27.8744 10.0805 27.8448 10.1014 27.8211 10.1281C27.7973 10.1548 27.7799 10.1866 27.7702 10.221C27.6064 10.949 27.8194 11.8845 28.7012 11.9282C28.7524 11.9283 28.8022 11.9115 28.8428 11.8804C28.8835 11.8493 28.9127 11.8056 28.9259 11.7562C29.0888 10.9981 28.6639 10.3739 27.9167 10.1991C27.8671 10.1866 27.8148 10.1902 27.7674 10.2093C27.72 10.2284 27.6798 10.2622 27.6528 10.3056C27.1733 11.0054 27.4818 12.1611 28.4191 12.2103C28.4599 12.2108 28.5001 12.2004 28.5355 12.18C28.5708 12.1597 28.6001 12.1302 28.6202 12.0947C28.9077 11.4577 28.8359 10.7925 28.2562 10.3657C28.2117 10.3391 28.1595 10.3284 28.1082 10.3352C28.0568 10.3419 28.0093 10.3658 27.9732 10.403C27.6911 10.7379 27.6756 11.1055 27.9732 11.4386C28.1743 11.6643 28.5037 11.3321 28.3035 11.1082C28.1943 10.9854 28.1725 10.8889 28.3035 10.7333L28.0205 10.7697C28.3845 11.0354 28.3918 11.4804 28.2189 11.8617L28.4209 11.7453C27.8266 11.7143 27.7975 10.9262 28.0569 10.5449L27.793 10.6523C28.2835 10.767 28.5874 11.1201 28.4764 11.6351L28.7021 11.4632C28.1561 11.4368 28.1306 10.7515 28.2216 10.3475L27.8785 10.4876C28.1561 10.6814 28.2653 10.8462 28.0769 11.1556H28.48C28.3645 10.9435 28.2389 10.8225 28.2298 10.5677L27.7748 10.6296C27.8458 10.8434 27.8994 10.9517 27.7984 11.1556H28.2016C28.0724 10.9244 27.8667 10.7752 27.9431 10.4885L27.4881 10.4266V11.2739L27.9231 11.1556C27.8417 10.9707 27.8043 10.7695 27.8139 10.5677C27.8139 10.2665 27.3452 10.2665 27.3462 10.5677L27.3289 10.565Z" fill="#20191B"/>
<path d="M16.85 10.0253C16.486 9.94887 16.1602 10.0626 15.9545 10.3839C15.7307 10.7369 15.798 11.2029 15.9609 11.5578C16.1029 11.869 16.395 12.1038 16.7463 12.0201C17.123 11.9354 17.3232 11.4813 17.4361 11.1592C17.5343 10.8807 17.649 10.5458 17.5316 10.2537C17.4937 10.1458 17.4179 10.0552 17.3184 9.99887C17.2188 9.94248 17.1022 9.92407 16.9902 9.94705C16.3832 10.0626 16.2294 10.8771 16.2712 11.3794C16.2724 11.4411 16.2974 11.4999 16.341 11.5435C16.3846 11.5871 16.4434 11.6121 16.5051 11.6133H16.7854C16.8263 11.6136 16.8665 11.6031 16.902 11.5828C16.9375 11.5625 16.967 11.5331 16.9874 11.4977C17.1121 11.2365 17.2158 10.9517 17.1348 10.6651C17.0602 10.3984 16.8081 10.2528 16.5652 10.1664C16.5156 10.1529 16.463 10.1561 16.4155 10.1755C16.368 10.195 16.3281 10.2295 16.3022 10.2737C16.0128 10.7397 16.1102 11.1637 16.4842 11.5478C16.528 11.5915 16.5874 11.6161 16.6493 11.6161C16.7113 11.6161 16.7707 11.5915 16.8145 11.5478C17.0229 11.2993 17.0238 10.9872 17.0238 10.6769C17.0238 10.3666 16.557 10.3757 16.557 10.6769C16.557 10.8316 16.5916 11.0882 16.4842 11.2174H16.8145C16.5879 10.9836 16.5315 10.7997 16.7099 10.5122L16.446 10.6196C16.7799 10.7388 16.719 10.9836 16.5888 11.2648L16.7899 11.1492H16.5078L16.7417 11.3821C16.7162 11.0828 16.7308 10.6459 17.0047 10.4476C17.032 10.4275 17.0957 10.4048 17.0775 10.4066C17.103 10.4066 17.0957 10.4066 17.0903 10.4066C17.0848 10.4066 17.1066 10.4321 17.1112 10.4694C17.118 10.5477 17.1125 10.6267 17.0948 10.7033C17.0593 10.8853 16.7881 11.8035 16.4887 11.5168C16.2094 11.2502 16.1602 10.3638 16.7281 10.4821C17.022 10.5431 17.1476 10.0926 16.8527 10.0317L16.85 10.0253Z" fill="#20191B"/>
<path d="M25.164 28.3486C24.8146 30.0594 24.9929 32.5965 22.5013 32.7094C20.5083 32.8004 19.9041 29.8155 19.9632 28.2284C21.3838 28.1302 22.3056 26.5986 22.2001 25.2863C22.3393 27.2538 23.3995 28.0392 25.164 28.4896V28.3486Z" fill="#F66986"/>
<path d="M24.9384 28.2867C24.6253 29.871 24.7363 32.2562 22.6278 32.4682C20.6021 32.6712 20.1544 29.6854 20.1963 28.2284L19.9633 28.4596C21.5203 28.3049 22.5195 26.7824 22.434 25.2845H21.9671C22.0381 26.1418 22.2738 26.9462 22.8726 27.5851C23.4514 28.2021 24.305 28.5042 25.1013 28.7126C25.3934 28.789 25.5171 28.3386 25.2259 28.2621C24.5188 28.0801 23.819 27.828 23.273 27.3239C22.7043 26.7997 22.4959 26.0307 22.434 25.2845C22.4094 24.9879 21.9499 24.9815 21.9671 25.2845C22.0363 26.503 21.2719 27.8626 19.9651 27.9927C19.9034 27.9939 19.8446 28.0189 19.801 28.0625C19.7574 28.1061 19.7324 28.165 19.7312 28.2266C19.6812 29.932 20.2272 32.8677 22.4012 32.9433C23.4641 32.9797 24.3541 32.3763 24.7673 31.4199C25.1804 30.4635 25.1895 29.4087 25.387 28.4086C25.4452 28.1147 24.9948 27.9891 24.9365 28.2849L24.9384 28.2867Z" fill="#20191B"/>
<path d="M16.6353 26.0671C17.2004 27.0682 17.862 28.1001 19.0068 28.4796C19.4154 28.6084 19.8517 28.621 20.2671 28.5159C20.6824 28.4108 21.0602 28.1921 21.3583 27.8844C22.039 27.1892 22.282 26.1281 22.4349 25.2017C22.6551 23.8676 22.6687 22.4999 22.6696 21.1503H22.2028C22.2028 22.4316 22.1837 23.7175 22.3429 24.9915C22.4676 25.9925 22.7224 27.0172 23.3813 27.8126C23.6618 28.151 24.0311 28.4047 24.4478 28.545C24.8644 28.6853 25.3119 28.7068 25.74 28.607C26.7711 28.3549 27.4099 27.3466 27.7885 26.4357C27.9041 26.1572 27.4518 26.0371 27.338 26.311C26.9804 27.1701 26.3907 28.0155 25.4215 28.1993C24.5497 28.364 23.7835 27.6988 23.3831 26.9954C22.9281 26.1945 22.8143 25.2072 22.7388 24.3072C22.6478 23.2588 22.6696 22.2023 22.6696 21.1512C22.6696 20.85 22.2028 20.85 22.2028 21.1512C22.2171 22.3138 22.1648 23.4763 22.0463 24.6329C21.9425 25.532 21.7569 26.4821 21.2637 27.2556C21.0544 27.5855 20.7463 27.8408 20.3834 27.9853C20.0205 28.1298 19.6212 28.1559 19.2425 28.0601C18.1705 27.8098 17.5408 26.7151 17.0421 25.8314C16.8937 25.5684 16.4906 25.8041 16.6389 26.0671H16.6353Z" fill="#20191B"/>
</g>
<path d="M57.5897 16.56C57.3952 16.5805 57.2108 16.5395 57.0368 16.4371C56.8627 16.3245 56.7347 16.176 56.6528 15.9917L54.2873 10.585C54.3078 12.1619 54.3436 13.8311 54.3948 15.5923C54.4051 15.8586 54.318 16.089 54.1337 16.2835C53.9596 16.4781 53.7395 16.5754 53.4732 16.5754C53.207 16.5856 52.9766 16.5037 52.782 16.3296C52.5875 16.1453 52.4902 15.92 52.4902 15.6538C52.3776 12.2439 52.3366 9.17699 52.3673 6.45315C52.3673 6.26883 52.4134 6.09987 52.5056 5.94627C52.608 5.79267 52.7411 5.68003 52.9049 5.60835C53.1404 5.48547 53.3811 5.46499 53.6268 5.54691C53.8726 5.61859 54.062 5.76707 54.1952 5.99235L54.9478 7.40547C55.0502 7.62051 55.1731 7.88163 55.3164 8.18883L55.639 8.91075L55.9923 9.70947L56.3148 10.4467C56.3763 10.5901 56.4889 10.8615 56.6528 11.2608C56.8166 11.6602 56.919 11.9059 56.96 11.9981C57.0009 12.0903 57.1084 12.3565 57.2825 12.7968C57.4668 13.2269 57.5692 13.4727 57.5897 13.5341L58.7878 10.8615C59.8835 8.41411 60.5542 6.88835 60.8 6.28419C60.8409 6.19203 60.887 6.11011 60.9382 6.03843C61.102 5.72099 61.3632 5.54691 61.7216 5.51619C61.9776 5.49571 62.208 5.57251 62.4128 5.74659C62.6176 5.91043 62.7302 6.12547 62.7507 6.39171C62.7916 6.95491 62.8326 7.49763 62.8736 8.01987C62.9043 8.60355 62.9248 9.08995 62.935 9.47907C62.9555 9.86819 62.9657 10.4365 62.9657 11.184C62.976 11.9315 62.9811 12.4179 62.9811 12.6432C62.9913 12.8685 62.9913 13.401 62.9811 14.2407C62.9811 15.0701 62.9811 15.5309 62.9811 15.6231C62.9811 15.8893 62.8889 16.1146 62.7046 16.2989C62.5203 16.4832 62.295 16.5754 62.0288 16.5754C61.7625 16.5754 61.5372 16.4832 61.3529 16.2989C61.1686 16.1146 61.0764 15.8893 61.0764 15.6231C61.0764 12.8992 61.0662 11.1994 61.0457 10.5235L60.5235 11.6602C59.6224 13.6263 58.9619 15.0599 58.542 15.961C58.4704 16.1555 58.3424 16.3091 58.158 16.4218C57.984 16.5344 57.7945 16.5805 57.5897 16.56ZM67.4166 16.4371C67.2221 16.5805 67.0019 16.6317 66.7562 16.5907C66.5206 16.56 66.3312 16.4474 66.1878 16.2528C66.0342 16.048 65.983 15.8176 66.0342 15.5616V15.5309C66.1571 14.0768 66.2134 12.5664 66.2032 10.9997C66.193 9.43299 66.0854 7.94819 65.8806 6.54531C65.8397 6.29955 65.8909 6.07939 66.0342 5.88483C66.1776 5.69027 66.367 5.57763 66.6026 5.54691C66.8483 5.50595 67.0685 5.55715 67.263 5.70051C67.4576 5.84387 67.5702 6.03331 67.601 6.26883C67.9286 8.39875 68.0259 10.8871 67.8928 13.7338C68.3229 13.3139 68.7376 12.8634 69.137 12.3821C69.5363 11.8906 70.2787 10.8768 71.3642 9.34083L73.4992 5.91555C73.6221 5.71075 73.8013 5.58275 74.0368 5.53155C74.2723 5.47011 74.4925 5.50595 74.6973 5.63907C74.8714 5.74147 74.9891 5.88483 75.0506 6.06915C75.1222 6.24323 75.1325 6.42243 75.0813 6.60675V6.63747C75.071 7.29283 75.0352 8.09155 74.9738 9.03363C74.9123 9.96547 74.856 10.7335 74.8048 11.3376C74.7638 11.9315 74.7587 12.6381 74.7894 13.4573C74.8202 14.2765 74.9021 14.9831 75.0352 15.577C75.0864 15.8125 75.0403 16.0327 74.897 16.2375C74.7638 16.432 74.5795 16.5549 74.344 16.6061C74.1085 16.6573 73.8883 16.6163 73.6835 16.4832C73.489 16.3399 73.3661 16.1504 73.3149 15.9149C73.1306 15.0752 73.0333 14.0819 73.023 12.9351C73.0128 11.7882 73.0538 10.7437 73.1459 9.80163C72.7158 10.5082 72.3114 11.1123 71.9325 11.6141C71.5638 12.1056 71.1389 12.6586 70.6576 13.273C70.1763 13.8874 69.6592 14.4608 69.1062 14.9933C68.5635 15.5258 68.0003 16.0071 67.4166 16.4371ZM78.2612 16.6675C78.2509 16.6675 78.1383 16.6522 77.9232 16.6215C77.8311 16.6112 77.7594 16.6061 77.7082 16.6061C77.4624 16.6061 77.2525 16.5242 77.0784 16.3603C76.9146 16.1863 76.8327 15.9763 76.8327 15.7306C76.8327 15.4848 76.9146 15.28 77.0784 15.1162C77.2525 14.9421 77.4624 14.8551 77.7082 14.8551C77.8208 14.8551 77.9591 14.8653 78.1229 14.8858C78.1332 14.8858 78.1741 14.8909 78.2458 14.9011C78.3175 14.9011 78.3738 14.9063 78.4148 14.9165C78.4967 14.9267 78.5581 14.9267 78.5991 14.9165C78.7117 14.7424 78.8039 14.5274 78.8756 14.2714C79.0189 13.7594 79.1162 13.0579 79.1674 12.1671C79.2493 11.0816 79.2442 9.86819 79.152 8.52675C79.1418 8.41411 79.0957 8.04547 79.0138 7.42083C78.9831 7.14435 78.9626 6.94467 78.9524 6.82179C78.9421 6.71939 78.937 6.63747 78.937 6.57603C78.9268 6.52483 78.9268 6.47363 78.937 6.42243C78.937 6.37123 78.9421 6.32003 78.9524 6.26883C78.9933 6.09475 79.0804 5.94627 79.2135 5.82339C79.2852 5.76195 79.362 5.71075 79.4439 5.66979C79.5258 5.62883 79.5872 5.60835 79.6282 5.60835L79.705 5.59299C79.746 5.58275 79.8023 5.57763 79.874 5.57763C79.9559 5.56739 80.0634 5.56227 80.1965 5.56227C80.4013 5.55203 80.6727 5.55203 81.0106 5.56227C81.5431 5.57251 81.9476 5.58275 82.224 5.59299C82.3469 5.59299 82.5415 5.60323 82.8077 5.62371L83.4375 5.66979H83.4682C83.4784 5.66979 83.4887 5.66979 83.4989 5.66979C83.5194 5.65955 83.5552 5.64931 83.6064 5.63907C83.6576 5.62883 83.7191 5.61859 83.7908 5.60835C84.2311 5.54691 84.5997 5.62371 84.8967 5.83875C85.3984 6.20739 85.68 6.79619 85.7415 7.60515C85.762 7.83043 85.7671 8.09155 85.7568 8.38851C85.7568 8.43971 85.7517 8.52675 85.7415 8.64963C85.7312 8.77251 85.7261 8.86467 85.7261 8.92611V12.4282C85.7261 13.8618 85.6852 14.9831 85.6032 15.792C85.5828 16.0275 85.4804 16.2272 85.296 16.3911C85.1117 16.5447 84.8967 16.6112 84.6509 16.5907C84.4154 16.5703 84.2157 16.4679 84.0519 16.2835C83.8983 16.0992 83.8317 15.8842 83.8522 15.6384C83.9239 14.8807 83.9648 13.8106 83.9751 12.4282V8.89539C83.9751 8.83395 83.9751 8.73155 83.9751 8.58819C83.9853 8.44483 83.9956 8.35267 84.0058 8.31171C84.016 8.08643 84.0109 7.89699 83.9904 7.74339C83.9802 7.58979 83.9597 7.46691 83.929 7.37475C83.6935 7.41571 83.5092 7.43107 83.376 7.42083C83.2327 7.42083 83.0228 7.41059 82.7463 7.39011L82.1319 7.34403C81.8759 7.33379 81.497 7.32355 80.9952 7.31331H80.7802C80.8519 7.89699 80.8928 8.26051 80.9031 8.40387C80.9952 9.85795 81.0004 11.1482 80.9184 12.2746C80.857 13.2781 80.7392 14.0973 80.5652 14.7322C80.2989 15.705 79.8688 16.3091 79.2749 16.5447C78.9882 16.6573 78.6503 16.6983 78.2612 16.6675ZM89.8332 16.6829C89.567 16.7034 89.3315 16.6266 89.1267 16.4525C88.9321 16.2784 88.8297 16.0583 88.8195 15.792C88.758 14.8397 88.712 13.3088 88.6812 11.1994C88.6505 9.20259 88.5993 7.67171 88.5276 6.60675C88.5072 6.35075 88.584 6.12547 88.758 5.93091C88.9321 5.72611 89.1472 5.61347 89.4032 5.59299C89.6694 5.57251 89.8998 5.64931 90.0944 5.82339C90.2992 5.99747 90.4118 6.21763 90.4323 6.48387C90.504 7.45667 90.5552 8.69059 90.5859 10.1856H90.9852C91.5894 10.1754 92.0502 10.1754 92.3676 10.1856C93.6169 10.2368 94.5897 10.4621 95.286 10.8615C96.136 11.353 96.6736 11.9367 96.8988 12.6125C97.2777 13.6877 97.1292 14.5888 96.4534 15.3159C95.9619 15.8483 95.2144 16.2016 94.2108 16.3757C93.3404 16.5395 92.0656 16.5703 90.3862 16.4679C90.2224 16.601 90.038 16.6727 89.8332 16.6829ZM90.678 14.5632C92.1014 14.6451 93.1664 14.6247 93.8729 14.5018C94.4566 14.3891 94.8508 14.2253 95.0556 14.0103C95.2092 13.8362 95.2195 13.5443 95.0864 13.1347C95.0147 12.9095 94.7638 12.7047 94.3337 12.5203C93.9139 12.2746 93.238 12.1363 92.3062 12.1056C92.0092 12.0954 91.574 12.0954 91.0006 12.1056H90.6012C90.6217 13.0784 90.6473 13.8976 90.678 14.5632ZM100.017 15.6845C100.007 15.9507 99.9043 16.176 99.7097 16.3603C99.5152 16.5344 99.2848 16.6112 99.0185 16.5907C98.7523 16.5805 98.527 16.4781 98.3427 16.2835C98.1686 16.089 98.0918 15.8586 98.1123 15.5923C98.1225 15.3159 98.1584 14.5837 98.2198 13.3959C98.2915 12.1978 98.3324 11.3581 98.3427 10.8768C98.3632 10.3853 98.3632 9.73507 98.3427 8.92611C98.3324 8.10691 98.2864 7.33379 98.2044 6.60675C98.1737 6.34051 98.2403 6.10499 98.4041 5.90019C98.568 5.69539 98.783 5.57763 99.0492 5.54691C99.3155 5.51619 99.551 5.58275 99.7558 5.74659C99.9606 5.91043 100.078 6.12547 100.109 6.39171C100.201 7.18019 100.252 7.96355 100.263 8.74179C100.283 9.69411 100.283 10.4263 100.263 10.9383C100.252 11.44 100.211 12.3002 100.14 13.5187C100.068 14.7271 100.027 15.449 100.017 15.6845ZM104.003 16.5907C103.696 16.5907 103.45 16.4679 103.266 16.2221C103.092 15.9763 103.056 15.7101 103.159 15.4234C103.404 12.1875 103.353 9.20259 103.005 6.46851C102.974 6.23299 103.031 6.01795 103.174 5.82339C103.327 5.62883 103.522 5.51619 103.758 5.48547C104.003 5.45475 104.223 5.51619 104.418 5.66979C104.613 5.81315 104.725 6.00771 104.756 6.25347C105.043 8.60867 105.13 11.0867 105.017 13.6877C105.437 13.2781 105.841 12.8378 106.231 12.3667C106.62 11.8957 107.009 11.3683 107.398 10.7847L108.381 9.27939L109.456 7.52835L110.455 5.88483C110.577 5.70051 110.736 5.57763 110.931 5.51619C111.135 5.44451 111.335 5.44963 111.53 5.53155C111.735 5.57251 111.903 5.67491 112.037 5.83875C112.17 6.00259 112.236 6.19203 112.236 6.40707C112.226 7.05219 112.19 7.84067 112.129 8.77251L112.006 11.1226C111.965 11.7575 111.955 12.4845 111.975 13.3037C111.996 14.1127 112.067 14.8602 112.19 15.5463C112.231 15.792 112.18 16.0122 112.037 16.2067C111.903 16.4013 111.714 16.5191 111.468 16.56C111.233 16.601 111.018 16.5549 110.823 16.4218C110.629 16.2784 110.511 16.089 110.47 15.8535C110.306 14.9011 110.219 13.8362 110.209 12.6586C110.209 11.4707 110.25 10.4109 110.332 9.47907L109.118 11.3683C108.76 11.9111 108.34 12.4947 107.859 13.1194C107.388 13.744 106.881 14.3226 106.338 14.8551C105.806 15.3875 105.247 15.8688 104.664 16.2989C104.49 16.4935 104.275 16.5907 104.019 16.5907H104.003ZM107.613 4.76355C107.193 4.76355 106.789 4.65603 106.399 4.44099C106.021 4.23619 105.58 3.91875 105.079 3.48867C104.904 3.33507 104.807 3.14051 104.787 2.90499C104.776 2.65923 104.853 2.44419 105.017 2.25987C105.181 2.06531 105.381 1.96291 105.616 1.95267C105.862 1.93219 106.077 2.00899 106.261 2.18307C106.906 2.73603 107.352 3.01251 107.598 3.01251C107.833 3.01251 108.319 2.74627 109.057 2.21379C109.262 2.07043 109.482 2.01923 109.717 2.06019C109.953 2.10115 110.142 2.21891 110.286 2.41347C110.429 2.60803 110.48 2.82819 110.439 3.07395C110.398 3.30947 110.28 3.49891 110.086 3.64227C109.738 3.87779 109.461 4.06211 109.256 4.19523C109.052 4.32835 108.796 4.45635 108.488 4.57923C108.181 4.70211 107.889 4.76355 107.613 4.76355ZM127.542 17.9117C127.542 17.1847 127.547 16.7034 127.558 16.4679C126.503 16.4883 124.23 16.5191 120.738 16.56C120.738 16.5703 120.794 16.9133 120.907 17.5891C120.948 17.8349 120.897 18.0551 120.753 18.2496C120.62 18.4442 120.431 18.5773 120.185 18.649C119.949 18.7207 119.734 18.6695 119.54 18.4954C119.345 18.3315 119.227 18.1319 119.186 17.8963L119.079 17.3434C119.048 17.1488 119.028 17.0413 119.017 17.0208C119.017 17.0003 119.012 16.9338 119.002 16.8211C118.992 16.7085 118.987 16.6368 118.987 16.6061C118.987 16.5754 118.982 16.4679 118.971 16.2835L118.941 15.6999C118.93 15.4746 118.997 15.2749 119.14 15.1008C119.284 14.9165 119.468 14.809 119.693 14.7783C120.912 12.3923 121.378 9.68899 121.091 6.66819V6.60675C121.081 6.53507 121.076 6.46851 121.076 6.40707C121.086 6.16131 121.178 5.95651 121.352 5.79267C121.537 5.62883 121.746 5.55203 121.982 5.56227H126.145C126.38 5.57251 126.564 5.57763 126.697 5.57763C126.779 5.58787 126.846 5.59299 126.897 5.59299C126.948 5.60323 126.989 5.60835 127.02 5.60835C127.133 5.62883 127.245 5.67491 127.358 5.74659C127.88 6.09475 128.141 6.70403 128.141 7.57443C128.141 7.77923 128.131 8.03011 128.111 8.32707C128.08 8.58307 128.065 8.72131 128.065 8.74179C128.034 9.63267 128.07 10.7693 128.172 12.1517C128.182 12.3667 128.208 12.761 128.249 13.3344C128.3 13.9079 128.336 14.3635 128.356 14.7015H128.433C128.669 14.7015 128.868 14.7783 129.032 14.9319C129.206 15.0855 129.304 15.2749 129.324 15.5002C129.334 15.5719 129.339 15.6435 129.339 15.7152C129.309 16.5139 129.293 17.2461 129.293 17.9117C129.293 18.1575 129.206 18.3623 129.032 18.5261C128.868 18.7002 128.664 18.7872 128.418 18.7872C128.172 18.7872 127.962 18.7002 127.788 18.5261C127.624 18.3623 127.542 18.1575 127.542 17.9117ZM121.629 14.7783C123.933 14.768 125.592 14.7527 126.605 14.7322C126.585 14.4147 126.549 13.9847 126.498 13.4419C126.457 12.889 126.431 12.4947 126.421 12.2592C126.319 10.8256 126.283 9.63267 126.313 8.68035C126.313 8.65987 126.329 8.48067 126.36 8.14275C126.38 7.91747 126.39 7.73315 126.39 7.58979C126.39 7.48739 126.385 7.40035 126.375 7.32867H126.114C125.755 7.31843 125.233 7.31331 124.547 7.31331H122.904C123.057 10.0576 122.632 12.5459 121.629 14.7783ZM131.692 15.6384C131.692 15.0855 131.687 14.4403 131.677 13.7031C131.677 12.9658 131.677 12.2746 131.677 11.6295C131.677 10.9843 131.661 10.2931 131.631 9.55587C131.6 8.81859 131.559 8.12227 131.508 7.46691C131.334 7.31331 131.231 7.11875 131.201 6.88323C131.16 6.53507 131.267 6.25347 131.523 6.03843C131.687 5.72099 131.943 5.54691 132.291 5.51619C132.516 5.49571 132.726 5.54691 132.921 5.66979C133.371 5.59811 133.755 5.54691 134.073 5.51619C134.39 5.48547 134.779 5.46499 135.24 5.45475C135.711 5.43427 136.152 5.47011 136.561 5.56227C136.981 5.64419 137.37 5.77219 137.729 5.94627C138.21 6.19203 138.625 6.55043 138.973 7.02147C139.331 7.48227 139.577 7.98403 139.71 8.52675C139.853 9.05923 139.823 9.61219 139.618 10.1856C139.423 10.7591 139.044 11.2557 138.481 11.6755C137.795 12.1875 136.838 12.4435 135.609 12.4435C135.23 12.4435 134.779 12.4179 134.257 12.3667C134.175 12.3565 133.955 12.3309 133.597 12.2899V15.6384C133.607 15.8944 133.515 16.1197 133.32 16.3143C133.136 16.4986 132.911 16.5907 132.644 16.5907C132.388 16.601 132.163 16.5139 131.969 16.3296C131.784 16.1351 131.692 15.9047 131.692 15.6384ZM135.624 10.5235C136.423 10.5235 136.996 10.3955 137.345 10.1395C137.601 9.94499 137.759 9.69411 137.821 9.38691C137.892 9.06947 137.841 8.75203 137.667 8.43459C137.503 8.10691 137.237 7.85091 136.868 7.66659C136.582 7.51299 136.234 7.42083 135.824 7.39011C135.425 7.34915 135.066 7.34403 134.749 7.37475C134.431 7.40547 133.996 7.46179 133.443 7.54371C133.505 8.39363 133.546 9.33059 133.566 10.3546C133.638 10.3648 133.771 10.3802 133.965 10.4007C134.17 10.4211 134.334 10.4365 134.457 10.4467C134.918 10.4979 135.307 10.5235 135.624 10.5235ZM143.146 16.9133C142.849 16.8928 142.511 16.7955 142.132 16.6215L141.779 16.4525C141.666 16.4013 141.579 16.3603 141.517 16.3296C141.292 16.2477 141.128 16.0992 141.026 15.8842C140.924 15.6589 140.913 15.4336 140.995 15.2083C141.087 14.9831 141.241 14.8192 141.456 14.7168C141.681 14.6144 141.907 14.6093 142.132 14.7015C142.255 14.7424 142.393 14.7987 142.547 14.8704L142.869 15.0394C143.043 15.1111 143.176 15.152 143.269 15.1623L143.284 15.1469H143.315L143.361 15.1162C143.381 15.1059 143.402 15.0957 143.422 15.0855C143.443 15.065 143.468 15.0445 143.499 15.024C143.53 15.0035 143.56 14.9831 143.591 14.9626C143.622 14.9319 143.658 14.9011 143.699 14.8704L143.806 14.7475C143.98 14.5632 144.2 14.2816 144.467 13.9027C143.35 12.0903 142.188 9.73507 140.98 6.83715C140.867 6.61187 140.847 6.38659 140.918 6.16131C141 5.92579 141.149 5.75683 141.364 5.65443C141.589 5.54179 141.814 5.52643 142.04 5.60835C142.275 5.68003 142.444 5.82339 142.547 6.03843C143.693 8.79299 144.697 10.8871 145.557 12.3207C146.95 10.0986 147.856 8.07619 148.276 6.25347C148.327 6.01795 148.455 5.83363 148.66 5.70051C148.865 5.56739 149.085 5.52643 149.32 5.57763C149.556 5.62883 149.74 5.75683 149.873 5.96163C150.006 6.16643 150.047 6.38659 149.996 6.62211C149.709 7.87139 149.208 9.21795 148.491 10.6618C147.764 12.1363 146.95 13.488 146.049 14.7168C145.598 15.3312 145.276 15.7408 145.081 15.9456C144.436 16.6317 143.791 16.9543 143.146 16.9133ZM152.437 15.7306C152.273 14.4915 152.176 12.9863 152.145 11.2147C152.104 8.62403 152.073 7.16483 152.053 6.83715C152.022 6.74499 152.007 6.64771 152.007 6.54531C152.007 6.27907 152.104 6.04867 152.298 5.85411C152.493 5.65955 152.723 5.56227 152.99 5.56227C155.468 5.56227 157.275 5.54691 158.412 5.51619C158.688 5.51619 158.924 5.60835 159.118 5.79267C159.313 5.97699 159.41 6.20739 159.41 6.48387C159.42 6.75011 159.333 6.98051 159.149 7.17507C158.965 7.36963 158.739 7.47203 158.473 7.48227C157.357 7.51299 155.877 7.52835 154.034 7.52835C154.044 7.88675 154.055 8.27075 154.065 8.68035C154.075 9.08995 154.08 9.54051 154.08 10.032C154.09 10.5235 154.096 10.9075 154.096 11.184C154.136 12.8839 154.229 14.3175 154.372 15.4848C154.413 15.7511 154.346 15.9917 154.172 16.2067C154.008 16.4218 153.793 16.5447 153.527 16.5754C153.261 16.6163 153.02 16.5549 152.805 16.3911C152.59 16.217 152.467 15.9968 152.437 15.7306Z" fill="white"/>
<path d="M51.9782 29.649C51.9782 27.7512 51.9338 26.3927 51.8451 25.5735C51.8382 25.4915 51.8485 25.413 51.8758 25.3379C51.869 25.3038 51.8656 25.2697 51.8656 25.2355C51.8587 25.0922 51.9031 24.9693 51.9987 24.8669C52.0942 24.7645 52.2137 24.7099 52.3571 24.7031C52.7052 24.6894 53.3299 24.6826 54.231 24.6826C54.7089 24.6826 55.0912 24.686 55.3779 24.6928C55.5485 24.6997 55.6851 24.7065 55.7875 24.7133C55.8489 24.7201 55.9001 24.727 55.9411 24.7338C55.9752 24.7406 56.0093 24.7509 56.0435 24.7645C56.1527 24.7986 56.238 24.8567 56.2995 24.9386C56.3609 25.0205 56.4019 25.1229 56.4224 25.2458C56.4292 25.2936 56.436 25.355 56.4428 25.4301C56.4497 25.5462 56.4531 25.7032 56.4531 25.9011C56.4531 26.222 56.4462 26.6691 56.4326 27.2426C56.4258 27.4952 56.4155 27.8024 56.4019 28.1642C56.3882 28.5192 56.378 28.8298 56.3712 29.096C56.3643 29.3554 56.3609 29.5261 56.3609 29.608C56.3609 29.7514 56.3097 29.8743 56.2073 29.9767C56.1117 30.0722 55.9923 30.12 55.8489 30.12C55.7056 30.12 55.5827 30.0722 55.4803 29.9767C55.3847 29.8743 55.3369 29.7514 55.3369 29.608C55.3369 29.5261 55.3403 29.352 55.3472 29.0858C55.354 28.8195 55.3642 28.5055 55.3779 28.1437C55.3915 27.7751 55.4018 27.4645 55.4086 27.2119C55.4222 26.6521 55.4291 26.2152 55.4291 25.9011V25.7271C55.4086 25.7271 55.3813 25.7237 55.3472 25.7168C55.0741 25.71 54.702 25.7066 54.231 25.7066C53.7941 25.7066 53.3469 25.71 52.8896 25.7168C52.9646 26.5155 53.0022 27.8263 53.0022 29.649C53.0022 29.7923 52.951 29.9152 52.8486 30.0176C52.753 30.1132 52.6336 30.161 52.4902 30.161C52.3468 30.161 52.224 30.1132 52.1216 30.0176C52.026 29.9152 51.9782 29.7923 51.9782 29.649ZM58.2154 31.6867C58.1881 31.2225 58.1676 30.7549 58.154 30.2839C58.1403 29.8128 58.1301 29.2462 58.1232 28.584C58.1164 27.915 58.1096 27.4542 58.1028 27.2016C58.0004 27.1265 57.9355 27.0241 57.9082 26.8944C57.8809 26.7579 57.9014 26.635 57.9696 26.5258L58.0823 26.3517C58.0686 26.0309 58.055 25.7271 58.0413 25.4403C58.0345 25.297 58.0789 25.1741 58.1744 25.0717C58.27 24.9625 58.3861 24.9045 58.5226 24.8976C58.6455 24.8908 58.7547 24.9249 58.8503 25C58.9527 25.0751 59.0209 25.1707 59.0551 25.2867C59.1233 25.2321 59.195 25.1809 59.2701 25.1331C59.6934 24.8464 60.1098 24.6962 60.5194 24.6826C60.9358 24.6621 61.3045 24.7645 61.6253 24.9898C61.9189 25.1878 62.1612 25.454 62.3524 25.7885C62.5435 26.1162 62.6766 26.478 62.7517 26.8739C62.9224 27.7273 62.8336 28.468 62.4855 29.096C62.2807 29.4647 62.0008 29.748 61.6458 29.9459C61.2976 30.1439 60.8846 30.2258 60.4068 30.1917C60.1337 30.1712 59.9186 30.1405 59.7616 30.0995C59.6114 30.0518 59.4203 29.9596 59.1882 29.8231L59.1677 29.8128C59.1814 30.4818 59.2053 31.086 59.2394 31.6253C59.2462 31.7687 59.2018 31.8915 59.1063 31.9939C59.0175 32.1032 58.9015 32.1612 58.7581 32.168C58.6148 32.1749 58.4885 32.1305 58.3792 32.0349C58.2768 31.9462 58.2222 31.8301 58.2154 31.6867ZM60.4682 29.1677C60.987 29.2018 61.3591 29.0141 61.5844 28.6045C61.8096 28.1881 61.8642 27.6795 61.7482 27.0787C61.6936 26.7989 61.6014 26.5497 61.4717 26.3312C61.3488 26.1128 61.2089 25.9489 61.0519 25.8397C60.7174 25.6144 60.3146 25.6588 59.8436 25.9728C59.5637 26.164 59.3213 26.3961 59.1165 26.6691L59.1472 28.4304C59.2838 28.6147 59.3554 28.7103 59.3623 28.7171C59.3964 28.7581 59.509 28.8332 59.7002 28.9424C59.864 29.0312 59.9835 29.0892 60.0586 29.1165C60.1405 29.137 60.277 29.1541 60.4682 29.1677ZM64.2821 30.0688C64.0978 29.9459 64.0261 29.7753 64.0671 29.5568C64.0602 29.5432 64.0568 29.5295 64.0568 29.5159C64.0227 29.1882 64.0022 28.8195 63.9954 28.4099C63.9886 28.0003 63.9886 27.6931 63.9954 27.4883C64.0022 27.2835 64.0193 26.8637 64.0466 26.2288C64.0807 25.5939 64.1012 25.2355 64.108 25.1536C64.1149 25.0171 64.1695 24.901 64.2719 24.8055C64.3811 24.7099 64.504 24.6655 64.6405 24.6723C64.7839 24.6792 64.9033 24.7372 64.9989 24.8464C65.0945 24.9488 65.1389 25.0717 65.132 25.2151C65.1252 25.3584 65.1081 25.6827 65.0808 26.1879C65.0535 26.693 65.033 27.0856 65.0194 27.3655C65.0126 27.6385 65.0092 27.9082 65.0092 28.1744L65.7362 27.2426C66.3779 26.4029 66.866 25.6417 67.2005 24.9591C67.2893 24.8157 67.419 24.7338 67.5896 24.7133C67.6442 24.6928 67.7023 24.6792 67.7637 24.6723C67.9071 24.6655 68.03 24.7099 68.1324 24.8055C68.2416 24.8942 68.2996 25.0103 68.3064 25.1536C68.3337 25.8226 68.344 26.6077 68.3372 27.5088C68.3167 28.4782 68.3167 29.1779 68.3372 29.608C68.344 29.7514 68.2996 29.8743 68.204 29.9767C68.1085 30.0791 67.989 30.1337 67.8456 30.1405C67.7023 30.1473 67.5794 30.103 67.477 30.0074C67.3746 29.9118 67.32 29.7923 67.3132 29.649C67.2927 29.2121 67.2927 28.4953 67.3132 27.4986V26.833L66.5452 27.8672C65.7464 28.9049 65.2276 29.5944 64.9887 29.9357C64.9068 30.0518 64.7975 30.1234 64.661 30.1507C64.5245 30.1781 64.3982 30.1507 64.2821 30.0688ZM74.1291 30.1507C73.5556 30.0757 73.0675 29.8265 72.6648 29.4032C72.2688 28.9731 71.9992 28.4748 71.8558 27.9082C71.5281 27.9696 71.255 27.9969 71.0366 27.9901C71.0707 28.4885 71.1151 29.0209 71.1697 29.5875C71.1834 29.7309 71.1458 29.8572 71.0571 29.9664C70.9683 30.0757 70.8523 30.1371 70.7089 30.1507C70.5656 30.1644 70.4393 30.1269 70.33 30.0381C70.2208 29.9494 70.1594 29.8333 70.1457 29.6899C70.0843 29.0346 70.0297 28.3212 69.9819 27.5498C69.975 27.5088 69.9716 27.4679 69.9716 27.4269C69.958 27.1675 69.9375 26.7852 69.9102 26.28C69.8829 25.768 69.8624 25.413 69.8488 25.2151C69.8419 25.0717 69.8829 24.9488 69.9716 24.8464C70.0672 24.7372 70.1867 24.6792 70.33 24.6723C70.4734 24.6655 70.5963 24.7099 70.6987 24.8055C70.8079 24.8942 70.8659 25.0103 70.8728 25.1536L70.9752 26.9661C71.1868 26.9729 71.4496 26.9456 71.7636 26.8842C71.7909 26.4405 71.9172 26.0445 72.1425 25.6963C72.3746 25.3414 72.7091 25.0785 73.146 24.9079C73.228 24.8737 73.3406 24.843 73.484 24.8157C73.6068 24.6519 73.7707 24.587 73.9755 24.6211C74.4192 24.6962 74.8117 24.8396 75.1531 25.0512C75.5012 25.256 75.7777 25.5018 75.9825 25.7885C76.1873 26.0752 76.3375 26.3824 76.4331 26.7101C76.5355 27.031 76.5833 27.3586 76.5764 27.6931C76.5696 28.014 76.5116 28.328 76.4024 28.6352C76.2931 28.9424 76.1395 29.2189 75.9416 29.4647C75.7436 29.7104 75.4876 29.8982 75.1736 30.0279C74.8595 30.1576 74.5114 30.1985 74.1291 30.1507ZM74.252 29.1267C74.6138 29.1745 74.9176 29.0619 75.1633 28.7888C75.4159 28.5158 75.5456 28.1437 75.5524 27.6727C75.5661 27.2494 75.4569 26.8569 75.2248 26.4951C74.9995 26.1333 74.6581 25.8773 74.2008 25.7271C74.1393 25.7612 74.0779 25.7817 74.0164 25.7885C73.9345 25.8022 73.8628 25.8124 73.8014 25.8192C73.74 25.8261 73.6956 25.8295 73.6683 25.8295C73.6478 25.8295 73.6239 25.8329 73.5966 25.8397C73.5761 25.8397 73.5488 25.8431 73.5147 25.8499C73.2621 25.9523 73.0709 26.1264 72.9412 26.3722C72.8115 26.6111 72.7569 26.8944 72.7774 27.2221C72.7979 27.2767 72.8081 27.3347 72.8081 27.3962V27.4474L72.8286 27.5907C72.9242 28.0003 73.1017 28.3485 73.3611 28.6352C73.6273 28.9219 73.9243 29.0858 74.252 29.1267ZM79.7159 29.6285C79.7159 29.7719 79.6647 29.8913 79.5623 29.9869C79.4599 30.0825 79.337 30.1303 79.1936 30.1303C79.0503 30.1303 78.9308 30.0791 78.8352 29.9767C78.7397 29.8743 78.6919 29.7514 78.6919 29.608C78.726 27.8331 78.726 26.5463 78.6919 25.7475C78.5826 25.7475 78.3881 25.7441 78.1082 25.7373C77.8351 25.7305 77.6235 25.7271 77.4733 25.7271C77.33 25.7271 77.2105 25.6759 77.1149 25.5735C77.0193 25.4711 76.9716 25.3482 76.9716 25.2048C76.9716 25.0615 77.0228 24.942 77.1252 24.8464C77.2276 24.7509 77.3504 24.7031 77.4938 24.7031C79.3097 24.7372 80.477 24.744 80.9959 24.7235C81.1392 24.7167 81.2621 24.7611 81.3645 24.8567C81.4669 24.9522 81.5215 25.0717 81.5284 25.2151C81.5352 25.3584 81.4908 25.4813 81.3952 25.5837C81.2997 25.6861 81.1802 25.7407 81.0368 25.7475C80.6409 25.7612 80.2006 25.768 79.7159 25.768C79.75 26.5804 79.75 27.8672 79.7159 29.6285ZM89.7856 30.12H89.5296C89.1883 30.1269 88.7002 30.1337 88.0653 30.1405C87.7718 30.1405 87.3792 30.1439 86.8877 30.1507C86.3962 30.1576 86.1197 30.1644 86.0583 30.1712C86.0514 30.2327 86.048 30.475 86.048 30.8983C86.048 31.0416 85.9968 31.1611 85.8944 31.2567C85.7989 31.3591 85.6794 31.4103 85.536 31.4103C85.3927 31.4103 85.2698 31.3591 85.1674 31.2567C85.0718 31.1611 85.024 31.0416 85.024 30.8983C85.024 30.475 85.0343 30.0722 85.0548 29.6899C85.0616 29.5875 85.0957 29.492 85.1572 29.4032C85.2527 29.2394 85.3995 29.1541 85.5975 29.1472C86.3006 27.7614 86.6522 26.4439 86.6522 25.1946C86.6522 25.0512 86.7 24.9318 86.7956 24.8362C86.898 24.7338 87.0208 24.6826 87.1642 24.6826C87.212 24.6826 87.2598 24.6894 87.3076 24.7031H87.3178C87.4065 24.6962 87.8366 24.686 88.608 24.6723C88.9494 24.6655 89.2054 24.6621 89.376 24.6621H89.7754C89.7959 24.6621 89.8164 24.6655 89.8368 24.6723C89.8573 24.6792 89.8812 24.686 89.9085 24.6928C90.0041 24.727 90.0826 24.785 90.144 24.8669C90.1918 24.9283 90.226 25 90.2464 25.0819C90.2464 25.1093 90.2498 25.14 90.2567 25.1741C90.2635 25.2219 90.2669 25.2799 90.2669 25.3482V25.7885C90.2601 26.0479 90.2464 26.5019 90.226 27.1504C90.185 28.311 90.1645 28.9629 90.1645 29.1063H90.1952C90.2225 29.1131 90.2464 29.1165 90.2669 29.1165C90.3284 29.1233 90.3898 29.1404 90.4512 29.1677C90.5741 29.2291 90.6629 29.3281 90.7175 29.4647C90.738 29.5056 90.7516 29.5534 90.7584 29.608C90.7721 29.6695 90.7823 29.748 90.7892 29.8435C90.8028 29.9869 90.8096 30.1781 90.8096 30.417V31.3283C90.8096 31.4717 90.7584 31.5912 90.656 31.6867C90.5605 31.7891 90.441 31.8403 90.2976 31.8403C90.1543 31.8403 90.0314 31.7891 89.929 31.6867C89.8334 31.5912 89.7856 31.4717 89.7856 31.3283V30.12ZM86.7444 29.137C87.2973 29.1233 87.7342 29.1165 88.0551 29.1165C88.4852 29.1097 88.847 29.1063 89.1405 29.1063C89.1405 28.9083 89.161 28.2427 89.202 27.1095C89.2224 26.4746 89.2361 26.0274 89.2429 25.768V25.6861C89.0654 25.6861 88.8606 25.6895 88.6285 25.6963C88.2326 25.7032 87.9083 25.71 87.6557 25.7168C87.5806 26.8364 87.2768 27.9765 86.7444 29.137ZM92.104 30.161C91.9742 30.2156 91.8445 30.2156 91.7148 30.161C91.5851 30.1064 91.493 30.0142 91.4384 29.8845C91.3837 29.7548 91.3837 29.6251 91.4384 29.4954C91.493 29.3657 91.5851 29.2735 91.7148 29.2189C91.7626 29.1984 91.8172 29.1779 91.8787 29.1575C91.8855 29.1575 91.9026 29.1541 91.9299 29.1472C91.964 29.1336 91.9879 29.1233 92.0016 29.1165L92.0732 29.0858C92.1756 29.0039 92.2644 28.8264 92.3395 28.5533C92.4214 28.2802 92.476 27.9253 92.5033 27.4883C92.5306 27.0514 92.5238 26.3381 92.4828 25.3482C92.4828 25.3072 92.4862 25.2629 92.4931 25.2151C92.4999 25.0922 92.5477 24.9864 92.6364 24.8976C92.7252 24.8089 92.8344 24.7577 92.9641 24.744C93.4625 24.7031 94.4148 24.6826 95.8211 24.6826C95.8689 24.6826 95.9166 24.6894 95.9644 24.7031C96.1078 24.7099 96.2273 24.7645 96.3228 24.8669C96.4184 24.9693 96.4628 25.0922 96.456 25.2355C96.4491 25.4403 96.4252 25.7237 96.3843 26.0855C96.3365 26.4473 96.3092 26.7033 96.3024 26.8535C96.2682 27.4064 96.2512 28.328 96.2512 29.6183C96.2512 29.7616 96.2 29.8845 96.0976 29.9869C96.002 30.0825 95.8825 30.1303 95.7392 30.1303C95.5958 30.1303 95.4729 30.0825 95.3705 29.9869C95.2749 29.8845 95.2272 29.7616 95.2272 29.6183C95.2272 28.3075 95.2442 27.3655 95.2784 26.792C95.292 26.6214 95.3193 26.3449 95.3603 25.9626L95.391 25.7066C94.5513 25.6998 93.9301 25.71 93.5273 25.7373C93.5546 26.4609 93.5512 27.0651 93.5171 27.5498C93.4898 28.055 93.4283 28.4816 93.3328 28.8298C93.1962 29.3145 92.9948 29.6661 92.7286 29.8845C92.6194 29.9664 92.4862 30.0347 92.3292 30.0893C92.3224 30.0893 92.2746 30.103 92.1859 30.1303C92.1517 30.1439 92.1244 30.1542 92.104 30.161ZM98.5998 29.8026C98.5588 29.9323 98.4735 30.0313 98.3438 30.0995C98.2209 30.161 98.0912 30.1678 97.9547 30.12C97.825 30.0791 97.726 29.9971 97.6577 29.8743C97.5963 29.7446 97.5894 29.6114 97.6372 29.4749C97.6441 29.4408 97.6645 29.3657 97.6987 29.2496C97.7396 29.1336 97.7704 29.0482 97.7908 28.9936L97.8728 28.7888C97.9137 28.6933 97.9478 28.6113 97.9752 28.5431C98.0093 28.4748 98.0468 28.3997 98.0878 28.3178C98.1288 28.2359 98.1731 28.1642 98.2209 28.1027C98.2824 28.014 98.3472 27.9321 98.4155 27.857C98.0468 27.6249 97.825 27.3109 97.7499 26.9149C97.7021 26.6623 97.726 26.3893 97.8216 26.0957C97.9171 25.7953 98.0468 25.5564 98.2107 25.3789C98.6271 24.9283 99.2722 24.6997 100.146 24.6928C100.638 24.6928 101.238 24.7679 101.948 24.9181C102.112 24.9522 102.228 25.0478 102.296 25.2048C102.358 25.2936 102.389 25.3926 102.389 25.5018C102.382 25.7749 102.348 26.4712 102.286 27.5907C102.238 28.4373 102.221 29.1131 102.235 29.6183C102.242 29.7548 102.194 29.8743 102.092 29.9767C101.996 30.0791 101.877 30.1337 101.733 30.1405C101.597 30.1473 101.477 30.103 101.375 30.0074C101.272 29.905 101.218 29.7821 101.211 29.6387C101.197 29.2428 101.204 28.782 101.231 28.2563C100.747 28.2905 100.31 28.2939 99.9208 28.2666L99.8388 28.2871C99.477 28.3212 99.2176 28.4509 99.0606 28.6762L98.9787 28.8298L98.907 28.9629C98.8865 28.9834 98.8592 29.038 98.8251 29.1267C98.7978 29.2087 98.7773 29.2701 98.7636 29.3111L98.692 29.5568C98.651 29.6729 98.6203 29.7548 98.5998 29.8026ZM101.283 27.2426C101.324 26.6145 101.348 26.1469 101.354 25.8397C100.897 25.7578 100.494 25.7168 100.146 25.7168C99.5726 25.7168 99.1801 25.8363 98.9684 26.0752C98.9002 26.1435 98.8421 26.2493 98.7944 26.3927C98.7534 26.536 98.7397 26.6418 98.7534 26.7101C98.8012 26.949 99.0811 27.1129 99.5931 27.2016C100.009 27.2699 100.528 27.2801 101.15 27.2323C101.197 27.2323 101.242 27.2358 101.283 27.2426ZM112.283 29.9459C111.777 29.3452 111.129 28.6694 110.337 27.9184C110.289 27.9116 110.248 27.9014 110.214 27.8877C110.214 28.4475 110.228 29.0141 110.255 29.5875C110.262 29.7309 110.218 29.8572 110.122 29.9664C110.026 30.0688 109.907 30.1234 109.764 30.1303C109.627 30.1371 109.504 30.0927 109.395 29.9971C109.293 29.9016 109.238 29.7855 109.231 29.649C109.204 29.1165 109.19 28.5158 109.19 27.8467H109.016C108.818 28.113 108.528 28.4611 108.146 28.8912C107.675 29.4032 107.367 29.7514 107.224 29.9357C107.135 30.0518 107.019 30.1166 106.876 30.1303C106.739 30.1507 106.613 30.12 106.497 30.0381C106.388 29.9494 106.323 29.8367 106.303 29.7002C106.289 29.5568 106.323 29.4305 106.405 29.3213C106.555 29.1438 106.883 28.7718 107.388 28.2051C107.709 27.8433 107.951 27.5532 108.115 27.3347C107.494 26.8023 106.931 26.2015 106.425 25.5325C106.33 25.4301 106.285 25.3072 106.292 25.1639C106.299 25.0205 106.354 24.901 106.456 24.8055C106.559 24.7099 106.681 24.6655 106.825 24.6723C106.968 24.6792 107.088 24.7338 107.183 24.8362C107.763 25.5803 108.402 26.2425 109.098 26.8227H109.19C109.197 25.9216 109.2 25.3789 109.2 25.1946C109.2 25.0512 109.248 24.9318 109.344 24.8362C109.446 24.7338 109.569 24.6826 109.712 24.6826C109.856 24.6826 109.975 24.7338 110.071 24.8362C110.173 24.9318 110.224 25.0512 110.224 25.1946C110.224 25.3857 110.221 25.9319 110.214 26.833H110.317C110.781 26.4234 111.303 25.768 111.883 24.8669C111.972 24.7577 112.085 24.6962 112.221 24.6826C112.365 24.6689 112.491 24.7099 112.6 24.8055C112.709 24.8942 112.771 25.0103 112.784 25.1536C112.798 25.2902 112.757 25.413 112.662 25.5223C112.129 26.3688 111.655 26.9866 111.238 27.3757C111.969 28.0652 112.576 28.7035 113.061 29.2906C113.156 29.3998 113.197 29.5261 113.184 29.6695C113.17 29.806 113.109 29.9221 112.999 30.0176C112.89 30.1064 112.764 30.1439 112.621 30.1303C112.484 30.1166 112.371 30.0552 112.283 29.9459ZM114.405 30.0688C114.221 29.9459 114.149 29.7753 114.19 29.5568C114.183 29.5432 114.18 29.5295 114.18 29.5159C114.146 29.1882 114.125 28.8195 114.119 28.4099C114.112 28.0003 114.112 27.6931 114.119 27.4883C114.125 27.2835 114.142 26.8637 114.17 26.2288C114.204 25.5939 114.224 25.2355 114.231 25.1536C114.238 25.0171 114.293 24.901 114.395 24.8055C114.504 24.7099 114.627 24.6655 114.764 24.6723C114.907 24.6792 115.027 24.7372 115.122 24.8464C115.218 24.9488 115.262 25.0717 115.255 25.2151C115.248 25.3584 115.231 25.6827 115.204 26.1879C115.177 26.693 115.156 27.0856 115.143 27.3655C115.136 27.6385 115.132 27.9082 115.132 28.1744L115.859 27.2426C116.501 26.4029 116.989 25.6417 117.324 24.9591C117.412 24.8157 117.542 24.7338 117.713 24.7133C117.767 24.6928 117.825 24.6792 117.887 24.6723C118.03 24.6655 118.153 24.7099 118.256 24.8055C118.365 24.8942 118.423 25.0103 118.43 25.1536C118.457 25.8226 118.467 26.6077 118.46 27.5088C118.44 28.4782 118.44 29.1779 118.46 29.608C118.467 29.7514 118.423 29.8743 118.327 29.9767C118.232 30.0791 118.112 30.1337 117.969 30.1405C117.825 30.1473 117.703 30.103 117.6 30.0074C117.498 29.9118 117.443 29.7923 117.436 29.649C117.416 29.2121 117.416 28.4953 117.436 27.4986V26.833L116.668 27.8672C115.87 28.9049 115.351 29.5944 115.112 29.9357C115.03 30.0518 114.921 30.1234 114.784 30.1507C114.648 30.1781 114.521 30.1507 114.405 30.0688ZM120.986 30.2839C120.849 30.3248 120.719 30.3078 120.597 30.2327C120.474 30.1644 120.395 30.062 120.361 29.9255C120.341 29.8504 120.324 29.7787 120.31 29.7104C120.296 29.6763 120.286 29.6422 120.279 29.608C120.197 29.1984 120.136 28.7786 120.095 28.3485C120.054 27.9116 120.023 27.3894 120.003 26.7818C119.982 26.1742 119.965 25.7578 119.951 25.5325C119.931 25.4915 119.914 25.4472 119.9 25.3994C119.88 25.3038 119.887 25.2082 119.921 25.1127C119.934 24.9966 119.982 24.8942 120.064 24.8055C120.153 24.7167 120.259 24.6655 120.382 24.6519C120.498 24.645 120.603 24.6689 120.699 24.7235C121.245 24.6348 121.747 24.5973 122.204 24.6109C122.648 24.6177 123.02 24.6792 123.32 24.7952C123.771 24.9659 124.051 25.2424 124.16 25.6247C124.303 26.1776 124.218 26.635 123.904 26.9968C123.856 27.0583 123.802 27.1163 123.74 27.1709C123.781 27.1914 123.819 27.2187 123.853 27.2528C124.133 27.4508 124.321 27.6897 124.416 27.9696C124.512 28.2427 124.512 28.5192 124.416 28.7991C124.341 29.0448 124.204 29.2667 124.007 29.4647C123.815 29.6558 123.59 29.8026 123.331 29.905C122.88 30.0757 122.194 30.1371 121.272 30.0893C121.197 30.1917 121.102 30.2566 120.986 30.2839ZM121.221 29.0551C121.522 29.0824 121.832 29.0926 122.153 29.0858C122.481 29.0721 122.75 29.0243 122.962 28.9424C123.085 28.8946 123.187 28.8298 123.269 28.7479C123.358 28.6659 123.416 28.5806 123.443 28.4919C123.491 28.3417 123.43 28.2017 123.259 28.072C123.034 27.9082 122.682 27.8365 122.204 27.857C121.924 27.8706 121.556 27.9218 121.098 28.0106C121.126 28.3997 121.167 28.7479 121.221 29.0551ZM121.037 26.9047C121.692 26.8569 122.208 26.7681 122.583 26.6384C122.849 26.5497 123.03 26.4473 123.126 26.3312C123.201 26.2493 123.221 26.1401 123.187 26.0035C123.167 25.8875 123.092 25.8022 122.962 25.7475C122.771 25.6793 122.508 25.6417 122.174 25.6349C121.825 25.6281 121.429 25.6554 120.986 25.7168C120.999 26.0172 121.016 26.4131 121.037 26.9047ZM127.144 30.0995C126.796 30.0313 126.489 29.9016 126.223 29.7104C125.957 29.5125 125.748 29.2838 125.598 29.0243C125.455 28.7649 125.349 28.4919 125.281 28.2051C125.219 27.9184 125.199 27.6249 125.219 27.3245C125.24 26.9354 125.318 26.5633 125.455 26.2083C125.598 25.8465 125.817 25.5257 126.11 25.2458C126.411 24.9659 126.759 24.7986 127.155 24.744C127.216 24.7304 127.284 24.7235 127.359 24.7235C127.476 24.6553 127.598 24.6314 127.728 24.6519L127.79 24.6621C127.824 24.6621 127.865 24.6655 127.912 24.6723C127.96 24.6723 128.011 24.6792 128.066 24.6928C128.127 24.6997 128.189 24.7099 128.25 24.7235C128.312 24.7372 128.366 24.7543 128.414 24.7747C128.817 24.9386 129.145 25.2048 129.397 25.5735C129.657 25.9421 129.827 26.3346 129.909 26.7511C129.991 27.1675 130.005 27.5805 129.95 27.9901C129.848 28.6864 129.571 29.236 129.121 29.6387C128.588 30.1098 127.929 30.2634 127.144 30.0995ZM127.349 29.096C127.807 29.1916 128.172 29.1165 128.445 28.8707C128.704 28.6386 128.868 28.2973 128.936 27.8467C128.998 27.3894 128.947 26.9593 128.783 26.5565C128.619 26.1537 128.383 25.8807 128.076 25.7373C127.974 25.8056 127.865 25.8329 127.749 25.8192C127.735 25.8192 127.629 25.7987 127.431 25.7578C127.37 25.751 127.325 25.7475 127.298 25.7475C127.025 25.7885 126.786 25.9626 126.581 26.2698C126.376 26.5702 126.264 26.9388 126.243 27.3757C126.216 27.8194 126.301 28.1983 126.499 28.5123C126.69 28.8264 126.974 29.0209 127.349 29.096ZM133.124 29.6285C133.124 29.7719 133.073 29.8913 132.97 29.9869C132.868 30.0825 132.745 30.1303 132.602 30.1303C132.458 30.1303 132.339 30.0791 132.243 29.9767C132.148 29.8743 132.1 29.7514 132.1 29.608C132.134 27.8331 132.134 26.5463 132.1 25.7475C131.991 25.7475 131.796 25.7441 131.516 25.7373C131.243 25.7305 131.031 25.7271 130.881 25.7271C130.738 25.7271 130.618 25.6759 130.523 25.5735C130.427 25.4711 130.38 25.3482 130.38 25.2048C130.38 25.0615 130.431 24.942 130.533 24.8464C130.636 24.7509 130.758 24.7031 130.902 24.7031C132.718 24.7372 133.885 24.744 134.404 24.7235C134.547 24.7167 134.67 24.7611 134.773 24.8567C134.875 24.9522 134.93 25.0717 134.936 25.2151C134.943 25.3584 134.899 25.4813 134.803 25.5837C134.708 25.6861 134.588 25.7407 134.445 25.7475C134.049 25.7612 133.609 25.768 133.124 25.768C133.158 26.5804 133.158 27.8672 133.124 29.6285ZM136.082 29.6592C136.047 29.2223 136.02 28.8161 136 28.4407C135.979 28.0447 135.966 27.7068 135.959 27.4269C135.959 27.1402 135.955 26.7545 135.949 26.2698C135.949 25.7851 135.945 25.4301 135.938 25.2048C135.938 25.0615 135.986 24.9386 136.082 24.8362C136.177 24.7338 136.297 24.6826 136.44 24.6826C136.583 24.6826 136.706 24.7304 136.809 24.8259C136.911 24.9215 136.962 25.041 136.962 25.1843L136.983 26.8125C137.672 26.7852 138.437 26.7715 139.277 26.7715C139.27 26.3893 139.249 25.8704 139.215 25.2151C139.208 25.0717 139.253 24.9488 139.348 24.8464C139.444 24.7372 139.56 24.6792 139.696 24.6723C139.84 24.6655 139.963 24.7099 140.065 24.8055C140.174 24.901 140.232 25.0171 140.239 25.1536C140.307 26.4917 140.341 27.9765 140.341 29.608C140.341 29.7514 140.29 29.8743 140.188 29.9767C140.092 30.0722 139.973 30.12 139.829 30.12C139.686 30.12 139.563 30.0722 139.461 29.9767C139.365 29.8743 139.317 29.7514 139.317 29.608C139.317 28.9322 139.314 28.328 139.307 27.7955C138.454 27.7955 137.686 27.8092 137.003 27.8365C137.017 28.4236 137.051 28.997 137.106 29.5568C137.119 29.6934 137.082 29.8197 136.993 29.9357C136.904 30.0449 136.788 30.1064 136.645 30.12C136.508 30.1337 136.382 30.0961 136.266 30.0074C136.157 29.9186 136.095 29.8026 136.082 29.6592ZM142.639 30.0893C142.496 30.0961 142.37 30.0552 142.261 29.9664C142.158 29.8709 142.103 29.7514 142.097 29.608C142.083 29.335 142.052 28.8878 142.005 28.2666C141.957 27.6385 141.919 27.0753 141.892 26.577C141.871 26.0718 141.861 25.6042 141.861 25.1741C141.861 25.0307 141.909 24.9113 142.005 24.8157C142.107 24.7133 142.23 24.6621 142.373 24.6621C142.517 24.6621 142.636 24.7133 142.732 24.8157C142.834 24.9113 142.885 25.0307 142.885 25.1741C142.885 25.6042 142.899 26.1196 142.926 26.7203C143.814 26.5155 144.541 26.4882 145.107 26.6384C145.421 26.7135 145.691 26.8671 145.916 27.0992C146.148 27.3245 146.312 27.5805 146.408 27.8672C146.51 28.1539 146.514 28.4646 146.418 28.7991C146.329 29.1267 146.138 29.3998 145.845 29.6183C145.162 30.1234 144.141 30.2702 142.783 30.0586C142.735 30.0722 142.687 30.0825 142.639 30.0893ZM143.09 29.0653C144.087 29.2018 144.8 29.1131 145.23 28.7991C145.442 28.6421 145.507 28.4338 145.425 28.1744C145.384 28.0447 145.312 27.9287 145.21 27.8263C145.107 27.7239 144.991 27.6556 144.861 27.6215C144.425 27.5122 143.803 27.56 142.998 27.7648C143.005 27.8467 143.018 28.0447 143.039 28.3587C143.059 28.6659 143.076 28.9015 143.09 29.0653ZM146.899 29.6695C146.899 28.6864 146.916 27.1948 146.95 25.1946C146.95 25.0512 147.002 24.9318 147.104 24.8362C147.206 24.7406 147.329 24.6928 147.473 24.6928C147.616 24.6928 147.735 24.744 147.831 24.8464C147.927 24.9488 147.974 25.0717 147.974 25.2151C147.94 27.2085 147.923 28.6933 147.923 29.6695C147.923 29.8128 147.872 29.9357 147.77 30.0381C147.674 30.1337 147.555 30.1815 147.411 30.1815C147.268 30.1815 147.145 30.1337 147.043 30.0381C146.947 29.9357 146.899 29.8128 146.899 29.6695ZM149.846 29.9869C149.743 30.0825 149.621 30.1303 149.477 30.1303C149.341 30.1303 149.221 30.0791 149.119 29.9767C149.023 29.8743 148.975 29.7548 148.975 29.6183C148.975 29.4749 149.027 29.352 149.129 29.2496C149.641 28.7103 150.115 28.1574 150.552 27.5907C150.136 26.9695 149.706 26.263 149.262 25.4711C149.187 25.3482 149.167 25.2185 149.201 25.0819C149.242 24.9454 149.324 24.843 149.446 24.7747C149.569 24.6997 149.699 24.6826 149.836 24.7235C149.972 24.7577 150.074 24.8362 150.143 24.9591C150.505 25.5803 150.856 26.1606 151.197 26.6999C151.559 26.1264 151.88 25.5564 152.16 24.9898C152.221 24.8601 152.317 24.7747 152.447 24.7338C152.583 24.686 152.716 24.6928 152.846 24.7543C152.976 24.8157 153.061 24.9147 153.102 25.0512C153.15 25.1809 153.143 25.3106 153.082 25.4403C152.727 26.1913 152.303 26.9149 151.812 27.6112C152.228 28.1847 152.648 28.7445 153.071 29.2906C153.16 29.393 153.201 29.5159 153.194 29.6592C153.187 29.8026 153.129 29.9221 153.02 30.0176C152.918 30.1064 152.795 30.1473 152.652 30.1405C152.508 30.1337 152.389 30.0757 152.293 29.9664C151.918 29.4681 151.542 28.9663 151.167 28.4611C150.75 28.9731 150.31 29.4817 149.846 29.9869Z" fill="white"/>
<defs>
<clipPath id="clip0_107_105">
<rect width="40.96" height="33.415" fill="white" transform="translate(0 1.28)"/>
</clipPath>
</defs>
</svg>
