<svg width="250" height="56" viewBox="0 0 250 56" fill="none" xmlns="http://www.w3.org/2000/svg">
<g clip-path="url(#clip0_108_1360)">
<path d="M49.0217 3.71777C51.6679 4.15856 54.0936 6.36394 56.0786 7.90813C60.2676 11.6563 63.1355 16.5078 62.4772 22.2424C62.0364 24.6681 60.9344 27.3143 61.3752 29.9605C61.5956 31.9511 64.0214 35.0324 63.5806 36.797C62.918 39.4432 58.9494 37.4582 57.6257 36.5766C54.9795 34.5859 54.0979 31.9455 53.2177 29.0775C51.4546 24.0055 51.4546 17.3908 47.4846 13.6413L49.0217 3.71777Z" fill="#B66E43"/>
<path d="M48.9233 4.069C50.9509 4.4458 52.6601 5.67575 54.2526 6.92134C55.7513 8.09441 57.1348 9.32436 58.3605 10.7875C60.8431 13.7465 62.3418 17.415 62.1854 21.3096C62.0973 23.4425 61.2199 25.4744 60.9654 27.5873C60.7536 29.3491 61.1233 30.8847 61.8513 32.4701C62.42 33.72 63.5888 35.4178 63.1808 36.8553C62.7727 38.2929 60.8574 37.6957 59.899 37.3402C55.3333 35.6524 53.8872 30.7113 52.8165 26.41C51.7031 21.9296 51.2382 16.7695 47.7346 13.3867C47.3948 13.0611 46.8814 13.5759 47.2184 13.9029C49.8205 16.4168 50.658 20.0669 51.4074 23.4752C52.1468 26.8366 52.8819 30.3629 54.4872 33.4385C55.8025 35.9595 58.2126 37.916 61.0436 38.4222C62.0901 38.6099 63.195 38.4137 63.7353 37.4127C64.3666 36.2453 63.7239 34.8248 63.2419 33.7328C62.7243 32.5597 62.0489 31.4265 61.7688 30.1652C61.3565 28.3168 61.857 26.3716 62.3077 24.58C62.6987 23.0159 62.9803 21.5556 62.9149 19.9403C62.8424 18.4359 62.5353 16.952 62.0048 15.5424C60.9796 12.7512 59.1326 10.3296 57.0111 8.27926C55.9006 7.20714 54.6266 6.25731 53.3724 5.35867C52.0927 4.44296 50.6779 3.65949 49.1167 3.368C48.656 3.28268 48.4598 3.98652 48.9219 4.07184L48.9233 4.069Z" fill="#20191B"/>
<path d="M23.4402 3.05615C20.7697 3.48314 18.2167 4.45921 15.9425 5.92272C13.5167 7.68588 11.3113 9.67086 10.4298 12.5374C9.76715 15.185 10.2079 18.272 8.88557 20.6977C7.56177 23.5643 4.69521 24.8881 2.26944 26.6513C0.278769 28.1955 -0.597127 29.5192 1.82865 30.8416C6.45979 33.9286 13.7371 32.8323 17.9275 29.5192C23.6677 25.3289 25.866 18.272 26.0849 11.4354L23.4402 3.05615Z" fill="#B66E43"/>
<path d="M23.3434 2.70375C19.3621 3.38911 15.7675 5.15512 12.8867 7.99324C11.6039 9.22648 10.6397 10.7528 10.077 12.441C9.46987 14.325 9.6732 16.4507 9.30208 18.3845C8.93096 20.3183 7.8688 21.9962 6.39286 23.2944C5.04347 24.4817 3.41681 25.285 2.01197 26.3941C1.05787 27.1463 -0.447929 28.3436 0.126521 29.7427C0.396683 30.3996 1.0536 30.8191 1.64369 31.1575C2.36035 31.5911 3.11124 31.9653 3.88888 32.2766C9.47271 34.3639 15.9253 32.1799 20.056 28.1928C24.5279 23.8774 26.2384 17.4745 26.4545 11.4357C26.4716 10.965 25.7436 10.9664 25.7237 11.4357C25.4649 18.7798 22.7889 26.451 16.1073 30.3001C13.0175 32.0789 9.14851 32.7316 5.65631 32.0192C4.82223 31.8477 4.011 31.5795 3.23907 31.2201C2.43712 30.849 1.37211 30.3357 0.868756 29.5948C-0.0583264 28.2341 3.22628 26.4226 4.05525 25.8737C6.02032 24.5769 7.9925 23.2304 9.10443 21.0847C10.4112 18.5665 10.1595 15.8023 10.6799 13.0936C11.1818 10.4759 13.2735 8.44967 15.2826 6.87135C17.66 5.00297 20.5778 3.91806 23.5382 3.40759C24.0017 3.32797 23.8041 2.62412 23.3448 2.69664L23.3434 2.70375Z" fill="#20191B"/>
<path d="M14.6186 37.8987C13.0758 35.2525 15.2812 29.7398 15.722 27.0922C16.824 22.9018 17.4866 18.7115 18.1478 14.5211C18.5886 11.2138 18.5886 6.5826 21.4551 4.15683C24.1013 1.73106 28.7325 2.39224 32.0412 2.61264C36.2302 2.83304 40.2001 2.83303 44.3905 2.83303C47.4774 2.83303 49.9032 3.05485 51.227 6.14181C52.9902 10.1103 52.5494 14.9576 52.5494 19.1523C52.329 25.7684 54.0936 33.0457 52.7698 39.6618L14.6186 37.8987Z" fill="#B66E43"/>
<path d="M14.9344 37.7154C14.1894 36.3617 14.4154 34.6398 14.6657 33.1852C14.9373 31.6026 15.3966 30.057 15.7876 28.5057C16.8469 24.2926 17.6361 20.0283 18.3228 15.737C18.8532 12.3984 18.6954 8.60471 20.5979 5.66848C22.6952 2.43079 26.9069 2.60284 30.2939 2.84883C34.7018 3.16876 39.1182 3.19862 43.5375 3.20004C45.1784 3.20004 46.8904 3.119 48.4516 3.71335C50.1892 4.37596 50.9513 6.17325 51.4561 7.8255C52.6647 11.7756 52.1983 16.1223 52.1671 20.1961C52.1329 24.6751 52.8439 29.1228 52.9008 33.599C52.9443 35.6008 52.7832 37.6019 52.4202 39.571C52.3306 40.0303 53.0344 40.2265 53.124 39.7644C53.9686 35.4062 53.5705 30.9628 53.2193 26.5748C53.0429 24.3651 52.8823 22.1526 52.8993 19.9345C52.915 17.894 52.9875 15.8536 52.9562 13.8117C52.9263 11.8125 52.75 9.80338 52.2282 7.86816C51.8173 6.34815 51.1618 4.68736 49.8707 3.7034C48.7417 2.85026 47.3582 2.59716 45.9732 2.51042C43.8617 2.37676 41.7232 2.47771 39.6088 2.46207C37.2754 2.44359 34.9435 2.3924 32.6116 2.28292C30.8569 2.20045 29.1108 1.99854 27.3505 1.99854C25.7111 2.00991 24.056 2.23599 22.5687 2.95548C21.1467 3.64368 20.0675 4.92624 19.3921 6.32824C18.6812 7.79564 18.3882 9.43795 18.1821 11.039C17.9403 12.9174 17.7427 14.7886 17.4413 16.6598C16.7758 20.8018 15.9682 24.9225 14.9117 28.9849C14.4851 30.5973 14.0386 32.2112 13.8282 33.8677C13.6505 35.2768 13.5993 36.7997 14.306 38.0823C14.532 38.4946 15.1591 38.1263 14.9359 37.714L14.9344 37.7154Z" fill="#20191B"/>
<path d="M16.8242 33.4884C10.8707 39.4433 14.3984 45.8376 21.0145 49.8076C28.5123 54.2155 38.8765 55.0999 47.2572 52.013C55.8584 48.7056 57.6215 40.1045 52.1088 32.8272C49.5735 29.4146 45.9249 27.1325 42.2379 25.1361C40.3297 24.1024 38.3831 23.1397 36.465 22.1202C31.5239 19.4968 29.044 23.7768 25.667 26.612C22.8502 28.9767 19.4234 30.892 16.8242 33.4884Z" fill="white"/>
<path d="M16.5668 33.2352C14.1752 35.6695 12.7789 38.8247 13.7671 42.2245C14.734 45.5518 17.592 48.0799 20.4159 49.8729C26.8557 53.9623 35.2293 55.0089 42.6361 53.6581C46.0728 53.0324 49.5223 51.8665 52.1273 49.4578C54.2203 47.5025 55.4719 44.8106 55.6181 41.9501C55.7944 38.8048 54.5786 35.7193 52.8084 33.1727C50.5433 29.9151 47.3084 27.5988 43.9072 25.6493C42.5152 24.8502 41.0904 24.1123 39.6657 23.3743C38.2409 22.6363 36.829 21.7505 35.3104 21.2315C33.1861 20.5035 31.1869 21.2713 29.5019 22.5866C28.6047 23.2861 27.8056 24.1094 26.9922 24.9014C25.967 25.8953 24.8779 26.821 23.7318 27.6727C21.3075 29.48 18.7295 31.1024 16.5668 33.2352C16.2313 33.5665 16.7474 34.0813 17.083 33.7514C19.9865 30.8862 23.6522 28.9738 26.6581 26.2295C28.8592 24.2189 31.1542 21.1106 34.5283 21.7789C35.5237 21.9751 36.3996 22.5055 37.284 22.9676C38.3718 23.5364 39.4652 24.0909 40.5544 24.6583C42.4199 25.6323 44.2656 26.6489 46.0273 27.7978C49.319 29.9506 52.1813 32.7745 53.8051 36.4018C55.072 39.2342 55.3138 42.5459 54.0895 45.4338C52.7984 48.4894 49.993 50.6322 46.9373 51.7442C39.505 54.4458 30.793 54.0022 23.6067 50.7488C20.2197 49.2174 16.8782 46.877 15.0866 43.5341C14.279 42.0601 13.9829 40.3598 14.2449 38.6996C14.569 36.7687 15.7322 35.1107 17.0773 33.7428C17.4114 33.4115 16.8967 32.894 16.5668 33.2352Z" fill="#20191B"/>
<path d="M39.0882 27.6028C41.6476 30.5889 36.7662 33.1341 34.3788 33.4639C23.7401 34.9413 31.7597 19.06 39.0882 27.6028Z" fill="#303030"/>
<path d="M38.8311 27.8615C41.0365 30.5632 36.556 32.7159 34.4061 33.0927C32.8036 33.3771 30.4248 33.262 29.7622 31.4519C29.2503 30.0456 29.947 28.399 30.8371 27.307C31.8993 26.0017 33.5388 25.1898 35.2351 25.4983C36.6954 25.7642 37.8841 26.7781 38.8311 27.8615C39.1411 28.217 39.6544 27.698 39.3473 27.3454C37.995 25.7913 36.138 24.5115 33.9881 24.7262C32.3301 24.8912 30.9182 25.9249 29.9684 27.2516C29.1152 28.4417 28.6133 30.0456 29.01 31.4931C29.4593 33.1326 31.0789 33.8094 32.6387 33.9103C34.6507 34.0525 36.694 33.3601 38.3263 32.2041C39.107 31.6495 39.7895 30.9243 40.0838 29.9973C40.3909 29.0304 39.9544 28.0848 39.3501 27.3454C39.0486 26.9785 38.5353 27.5004 38.8311 27.8615Z" fill="#20191B"/>
<path d="M42.7013 16.5079C42.6924 16.9519 42.7853 17.3921 42.9729 17.7947C43.1307 18.1374 43.6525 17.954 43.6525 17.6113V16.2875C43.6462 16.2038 43.6113 16.1247 43.5538 16.0636C43.4962 16.0025 43.4194 15.963 43.3362 15.9516C43.2529 15.9403 43.1684 15.9579 43.0966 16.0014C43.0247 16.045 42.97 16.1118 42.9416 16.1908C42.7539 16.8918 43.0994 17.2231 43.4193 17.7947C43.4519 17.8492 43.498 17.8943 43.5532 17.9257C43.6084 17.957 43.6708 17.9735 43.7343 17.9735C43.7978 17.9735 43.8601 17.957 43.9154 17.9257C43.9706 17.8943 44.0167 17.8492 44.0492 17.7947C44.3052 17.2786 44.2668 16.9544 44.0862 16.4112C43.9611 16.033 43.3539 16.0813 43.3752 16.5079C43.3952 17.0582 43.6141 17.3355 43.8658 17.7947C43.8986 17.8489 43.9449 17.8937 44 17.9247C44.0552 17.9558 44.1174 17.9721 44.1808 17.9721C44.2441 17.9721 44.3063 17.9558 44.3615 17.9247C44.4167 17.8937 44.4629 17.8489 44.4957 17.7947C45.0119 16.9501 44.6806 16.2818 43.9269 15.7514C43.8785 15.7236 43.8244 15.7072 43.7687 15.7035C43.7129 15.6997 43.6571 15.7088 43.6054 15.7299C43.5537 15.751 43.5075 15.7836 43.4703 15.8253C43.4331 15.867 43.406 15.9166 43.3909 15.9704C43.135 17.1079 43.4677 18.5697 44.8455 18.6379C44.9255 18.6381 45.0033 18.6119 45.0668 18.5633C45.1303 18.5147 45.176 18.4464 45.1967 18.3692C45.4512 17.1847 44.7872 16.2093 43.6198 15.9363C43.5423 15.9167 43.4606 15.9223 43.3865 15.9522C43.3124 15.9821 43.2497 16.0348 43.2075 16.1027C42.4581 17.1961 42.9402 19.0019 44.4047 19.0787C44.4685 19.0796 44.5313 19.0632 44.5866 19.0315C44.6419 18.9997 44.6876 18.9536 44.719 18.8981C45.1683 17.9028 45.0559 16.8634 44.1502 16.1965C44.0807 16.1551 43.9992 16.1383 43.919 16.1488C43.8387 16.1594 43.7644 16.1968 43.708 16.2548C43.2672 16.7781 43.243 17.3525 43.708 17.8729C44.0222 18.2256 44.5369 17.7066 44.2241 17.3568C44.0535 17.1648 44.0194 17.0141 44.2241 16.771L43.7819 16.8278C44.3507 17.243 44.3621 17.9383 44.0919 18.5341L44.4076 18.3521C43.479 18.3038 43.4335 17.0724 43.8388 16.4766L43.4264 16.6444C44.1929 16.8236 44.6678 17.3753 44.4943 18.1801L44.8469 17.9113C43.9938 17.8701 43.954 16.7994 44.0962 16.1681L43.5601 16.387C43.9938 16.6899 44.1644 16.9473 43.8701 17.4307H44.5C44.3194 17.0994 44.1232 16.9103 44.109 16.5122L43.398 16.6089C43.5089 16.943 43.5928 17.1122 43.435 17.4307H44.0649C43.863 17.0696 43.5416 16.8364 43.6611 16.3885L42.9501 16.2918V17.6156L43.6298 17.4307C43.5025 17.1419 43.4441 16.8274 43.4591 16.5122C43.4591 16.0415 42.7269 16.0415 42.7283 16.5122L42.7013 16.5079Z" fill="#20191B"/>
<path d="M26.3281 15.6647C25.7594 15.5452 25.2503 15.723 24.929 16.2249C24.5792 16.7766 24.6844 17.5046 24.9389 18.0592C25.1608 18.5455 25.6172 18.9123 26.166 18.7815C26.7547 18.6493 27.0675 17.9397 27.2439 17.4364C27.3974 17.0013 27.5766 16.478 27.3932 16.0216C27.3339 15.8529 27.2155 15.7115 27.06 15.6234C26.9044 15.5353 26.7222 15.5065 26.5471 15.5424C25.5987 15.723 25.3584 16.9956 25.4238 17.7805C25.4256 17.8768 25.4647 17.9687 25.5329 18.0369C25.601 18.105 25.6929 18.1441 25.7892 18.1459H26.2272C26.2911 18.1464 26.354 18.13 26.4094 18.0983C26.4649 18.0665 26.5109 18.0207 26.5429 17.9653C26.7377 17.5572 26.8997 17.1122 26.7732 16.6643C26.6566 16.2477 26.2627 16.0202 25.8831 15.8851C25.8057 15.8641 25.7235 15.8691 25.6492 15.8994C25.575 15.9298 25.5127 15.9837 25.4722 16.0529C25.02 16.7809 25.1721 17.4435 25.7565 18.0435C25.825 18.1119 25.9179 18.1502 26.0146 18.1502C26.1114 18.1502 26.2042 18.1119 26.2727 18.0435C26.5983 17.6554 26.5997 17.1676 26.5997 16.6828C26.5997 16.1979 25.8703 16.2121 25.8703 16.6828C25.8703 16.9245 25.9243 17.3255 25.7565 17.5274H26.2727C25.9186 17.162 25.8305 16.8747 26.1092 16.4254L25.6968 16.5932C26.2187 16.7795 26.1234 17.162 25.9201 17.6013L26.2343 17.4207H25.7935L26.1589 17.7847C26.1191 17.3169 26.1419 16.6344 26.5699 16.3245C26.6125 16.2932 26.7121 16.2576 26.6836 16.2605C26.7234 16.2605 26.7121 16.2605 26.7035 16.2605C26.695 16.2605 26.7291 16.3003 26.7362 16.3586C26.7469 16.481 26.7383 16.6043 26.7106 16.724C26.6552 17.0084 26.2315 18.4431 25.7636 17.9952C25.3271 17.5786 25.2503 16.1936 26.1376 16.3785C26.5969 16.4738 26.7931 15.7699 26.3324 15.6746L26.3281 15.6647Z" fill="#20191B"/>
<path d="M39.3188 44.2945C38.7728 46.9677 39.0515 50.9319 35.1583 51.1083C32.0443 51.2504 31.1002 46.5866 31.1926 44.1068C33.4122 43.9532 34.8526 41.5602 34.6877 39.5098C34.9052 42.5839 36.5617 43.811 39.3188 44.5149V44.2945Z" fill="#F66986"/>
<path d="M38.9662 44.198C38.477 46.6736 38.6505 50.4004 35.3559 50.7317C32.1908 51.0488 31.4912 46.3835 31.5566 44.107L31.1926 44.4682C33.6255 44.2265 35.1867 41.8476 35.0531 39.5072H34.3236C34.4345 40.8466 34.8028 42.1036 35.7384 43.1017C36.6428 44.0658 37.9765 44.5379 39.2207 44.8635C39.6771 44.9829 39.8705 44.2791 39.4155 44.1596C38.3107 43.8753 37.2172 43.4814 36.3641 42.6937C35.4754 41.8746 35.1498 40.6731 35.0531 39.5072C35.0147 39.0436 34.2966 39.0337 34.3236 39.5072C34.4317 41.4111 33.2373 43.5354 31.1954 43.7388C31.0991 43.7406 31.0072 43.7797 30.9391 43.8478C30.8709 43.9159 30.8318 44.0078 30.83 44.1042C30.7518 46.7688 31.6049 51.3559 35.0019 51.4739C36.6627 51.5308 38.0533 50.5881 38.6988 49.0937C39.3444 47.5992 39.3586 45.9512 39.6672 44.3886C39.7582 43.9293 39.0543 43.7331 38.9633 44.1952L38.9662 44.198Z" fill="#20191B"/>
<path d="M25.9927 40.7299C26.8757 42.294 27.9094 43.9065 29.6982 44.4994C30.3366 44.7007 31.0184 44.7203 31.6673 44.5561C32.3162 44.3918 32.9066 44.0502 33.3724 43.5695C34.436 42.4831 34.8156 40.8252 35.0545 39.3777C35.3986 37.2932 35.4199 35.1561 35.4214 33.0474H34.6919C34.6919 35.0494 34.6621 37.0586 34.9109 39.0492C35.1057 40.6133 35.5038 42.2144 36.5333 43.4571C36.9716 43.986 37.5487 44.3823 38.1997 44.6016C38.8507 44.8208 39.5499 44.8544 40.2189 44.6985C41.8299 44.3046 42.8281 42.7291 43.4196 41.3058C43.6002 40.8707 42.8935 40.683 42.7157 41.111C42.1569 42.4533 41.2355 43.7742 39.7212 44.0615C38.359 44.3188 37.1618 43.2794 36.5361 42.1803C35.8252 40.929 35.6474 39.3862 35.5294 37.98C35.3872 36.3419 35.4214 34.6911 35.4214 33.0488C35.4214 32.5781 34.6919 32.5781 34.6919 33.0488C34.7143 34.8654 34.6326 36.6818 34.4474 38.489C34.2853 39.8938 33.9952 41.3783 33.2245 42.5869C32.8976 43.1023 32.4162 43.5013 31.8491 43.7271C31.282 43.9528 30.6582 43.9937 30.0665 43.8439C28.3915 43.4529 27.4075 41.7423 26.6283 40.3617C26.3965 39.9507 25.7666 40.319 25.9984 40.7299H25.9927Z" fill="#20191B"/>
</g>
<path d="M89.984 26C89.68 26.032 89.392 25.968 89.12 25.808C88.848 25.632 88.648 25.4 88.52 25.112L84.824 16.664C84.856 19.128 84.912 21.736 84.992 24.488C85.008 24.904 84.872 25.264 84.584 25.568C84.312 25.872 83.968 26.024 83.552 26.024C83.136 26.04 82.776 25.912 82.472 25.64C82.168 25.352 82.016 25 82.016 24.584C81.84 19.256 81.776 14.464 81.824 10.208C81.824 9.92 81.896 9.656 82.04 9.416C82.2 9.176 82.408 9 82.664 8.888C83.032 8.696 83.408 8.664 83.792 8.792C84.176 8.904 84.472 9.136 84.68 9.488L85.856 11.696C86.016 12.032 86.208 12.44 86.432 12.92L86.936 14.048L87.488 15.296L87.992 16.448C88.088 16.672 88.264 17.096 88.52 17.72C88.776 18.344 88.936 18.728 89 18.872C89.064 19.016 89.232 19.432 89.504 20.12C89.792 20.792 89.952 21.176 89.984 21.272L91.856 17.096C93.568 13.272 94.616 10.888 95 9.944C95.064 9.8 95.136 9.672 95.216 9.56C95.472 9.064 95.88 8.792 96.44 8.744C96.84 8.712 97.2 8.832 97.52 9.104C97.84 9.36 98.016 9.696 98.048 10.112C98.112 10.992 98.176 11.84 98.24 12.656C98.288 13.568 98.32 14.328 98.336 14.936C98.368 15.544 98.384 16.432 98.384 17.6C98.4 18.768 98.408 19.528 98.408 19.88C98.424 20.232 98.424 21.064 98.408 22.376C98.408 23.672 98.408 24.392 98.408 24.536C98.408 24.952 98.264 25.304 97.976 25.592C97.688 25.88 97.336 26.024 96.92 26.024C96.504 26.024 96.152 25.88 95.864 25.592C95.576 25.304 95.432 24.952 95.432 24.536C95.432 20.28 95.416 17.624 95.384 16.568L94.568 18.344C93.16 21.416 92.128 23.656 91.472 25.064C91.36 25.368 91.16 25.608 90.872 25.784C90.6 25.96 90.304 26.032 89.984 26ZM105.339 25.808C105.035 26.032 104.691 26.112 104.307 26.048C103.939 26 103.643 25.824 103.419 25.52C103.179 25.2 103.099 24.84 103.179 24.44V24.392C103.371 22.12 103.459 19.76 103.443 17.312C103.427 14.864 103.259 12.544 102.939 10.352C102.875 9.968 102.955 9.624 103.179 9.32C103.403 9.016 103.699 8.84 104.067 8.792C104.451 8.728 104.795 8.808 105.099 9.032C105.403 9.256 105.579 9.552 105.627 9.92C106.139 13.248 106.291 17.136 106.083 21.584C106.755 20.928 107.403 20.224 108.027 19.472C108.651 18.704 109.811 17.12 111.507 14.72L114.843 9.368C115.035 9.048 115.315 8.848 115.683 8.768C116.051 8.672 116.395 8.728 116.715 8.936C116.987 9.096 117.171 9.32 117.267 9.608C117.379 9.88 117.395 10.16 117.315 10.448V10.496C117.299 11.52 117.243 12.768 117.147 14.24C117.051 15.696 116.963 16.896 116.883 17.84C116.819 18.768 116.811 19.872 116.859 21.152C116.907 22.432 117.035 23.536 117.243 24.464C117.323 24.832 117.251 25.176 117.027 25.496C116.819 25.8 116.531 25.992 116.163 26.072C115.795 26.152 115.451 26.088 115.131 25.88C114.827 25.656 114.635 25.36 114.555 24.992C114.267 23.68 114.115 22.128 114.099 20.336C114.083 18.544 114.147 16.912 114.291 15.44C113.619 16.544 112.987 17.488 112.395 18.272C111.819 19.04 111.155 19.904 110.403 20.864C109.651 21.824 108.843 22.72 107.979 23.552C107.131 24.384 106.251 25.136 105.339 25.808ZM122.283 26.168C122.267 26.168 122.091 26.144 121.755 26.096C121.611 26.08 121.499 26.072 121.419 26.072C121.035 26.072 120.707 25.944 120.435 25.688C120.179 25.416 120.051 25.088 120.051 24.704C120.051 24.32 120.179 24 120.435 23.744C120.707 23.472 121.035 23.336 121.419 23.336C121.595 23.336 121.811 23.352 122.067 23.384C122.083 23.384 122.147 23.392 122.259 23.408C122.371 23.408 122.459 23.416 122.523 23.432C122.651 23.448 122.747 23.448 122.811 23.432C122.987 23.16 123.131 22.824 123.243 22.424C123.467 21.624 123.619 20.528 123.699 19.136C123.827 17.44 123.819 15.544 123.675 13.448C123.659 13.272 123.587 12.696 123.459 11.72C123.411 11.288 123.379 10.976 123.363 10.784C123.347 10.624 123.339 10.496 123.339 10.4C123.323 10.32 123.323 10.24 123.339 10.16C123.339 10.08 123.347 10 123.363 9.92C123.427 9.648 123.563 9.416 123.771 9.224C123.883 9.128 124.003 9.048 124.131 8.984C124.259 8.92 124.355 8.888 124.419 8.888L124.539 8.864C124.603 8.848 124.691 8.84 124.803 8.84C124.931 8.824 125.099 8.816 125.307 8.816C125.627 8.8 126.051 8.8 126.579 8.816C127.411 8.832 128.043 8.848 128.475 8.864C128.667 8.864 128.971 8.88 129.387 8.912L130.371 8.984H130.419C130.435 8.984 130.451 8.984 130.467 8.984C130.499 8.968 130.555 8.952 130.635 8.936C130.715 8.92 130.811 8.904 130.923 8.888C131.611 8.792 132.187 8.912 132.651 9.248C133.435 9.824 133.875 10.744 133.971 12.008C134.003 12.36 134.011 12.768 133.995 13.232C133.995 13.312 133.987 13.448 133.971 13.64C133.955 13.832 133.947 13.976 133.947 14.072V19.544C133.947 21.784 133.883 23.536 133.755 24.8C133.723 25.168 133.563 25.48 133.275 25.736C132.987 25.976 132.651 26.08 132.267 26.048C131.899 26.016 131.587 25.856 131.331 25.568C131.091 25.28 130.987 24.944 131.019 24.56C131.131 23.376 131.195 21.704 131.211 19.544V14.024C131.211 13.928 131.211 13.768 131.211 13.544C131.227 13.32 131.243 13.176 131.259 13.112C131.275 12.76 131.267 12.464 131.235 12.224C131.219 11.984 131.187 11.792 131.139 11.648C130.771 11.712 130.483 11.736 130.275 11.72C130.051 11.72 129.723 11.704 129.291 11.672L128.331 11.6C127.931 11.584 127.339 11.568 126.555 11.552H126.219C126.331 12.464 126.395 13.032 126.411 13.256C126.555 15.528 126.563 17.544 126.435 19.304C126.339 20.872 126.155 22.152 125.883 23.144C125.467 24.664 124.795 25.608 123.867 25.976C123.419 26.152 122.891 26.216 122.283 26.168ZM140.365 26.192C139.949 26.224 139.581 26.104 139.261 25.832C138.957 25.56 138.797 25.216 138.781 24.8C138.685 23.312 138.613 20.92 138.565 17.624C138.517 14.504 138.437 12.112 138.325 10.448C138.293 10.048 138.413 9.696 138.685 9.392C138.957 9.072 139.293 8.896 139.693 8.864C140.109 8.832 140.469 8.952 140.773 9.224C141.093 9.496 141.269 9.84 141.301 10.256C141.413 11.776 141.493 13.704 141.541 16.04H142.165C143.109 16.024 143.829 16.024 144.325 16.04C146.277 16.12 147.797 16.472 148.885 17.096C150.213 17.864 151.053 18.776 151.405 19.832C151.997 21.512 151.765 22.92 150.709 24.056C149.941 24.888 148.773 25.44 147.205 25.712C145.845 25.968 143.853 26.016 141.229 25.856C140.973 26.064 140.685 26.176 140.365 26.192ZM141.685 22.88C143.909 23.008 145.573 22.976 146.677 22.784C147.589 22.608 148.205 22.352 148.525 22.016C148.765 21.744 148.781 21.288 148.573 20.648C148.461 20.296 148.069 19.976 147.397 19.688C146.741 19.304 145.685 19.088 144.229 19.04C143.765 19.024 143.085 19.024 142.189 19.04H141.565C141.597 20.56 141.637 21.84 141.685 22.88ZM156.277 24.632C156.261 25.048 156.101 25.4 155.797 25.688C155.493 25.96 155.133 26.08 154.717 26.048C154.301 26.032 153.949 25.872 153.661 25.568C153.389 25.264 153.269 24.904 153.301 24.488C153.317 24.056 153.373 22.912 153.469 21.056C153.581 19.184 153.645 17.872 153.661 17.12C153.693 16.352 153.693 15.336 153.661 14.072C153.645 12.792 153.573 11.584 153.445 10.448C153.397 10.032 153.501 9.664 153.757 9.344C154.013 9.024 154.349 8.84 154.765 8.792C155.181 8.744 155.549 8.848 155.869 9.104C156.189 9.36 156.373 9.696 156.421 10.112C156.565 11.344 156.645 12.568 156.661 13.784C156.693 15.272 156.693 16.416 156.661 17.216C156.645 18 156.581 19.344 156.469 21.248C156.357 23.136 156.293 24.264 156.277 24.632ZM162.505 26.048C162.025 26.048 161.641 25.856 161.353 25.472C161.081 25.088 161.025 24.672 161.185 24.224C161.569 19.168 161.489 14.504 160.945 10.232C160.897 9.864 160.985 9.528 161.209 9.224C161.449 8.92 161.753 8.744 162.121 8.696C162.505 8.648 162.849 8.744 163.153 8.984C163.457 9.208 163.633 9.512 163.681 9.896C164.129 13.576 164.265 17.448 164.089 21.512C164.745 20.872 165.377 20.184 165.985 19.448C166.593 18.712 167.201 17.888 167.809 16.976L169.345 14.624L171.025 11.888L172.585 9.32C172.777 9.032 173.025 8.84 173.329 8.744C173.649 8.632 173.961 8.64 174.265 8.768C174.585 8.832 174.849 8.992 175.057 9.248C175.265 9.504 175.369 9.8 175.369 10.136C175.353 11.144 175.297 12.376 175.201 13.832L175.009 17.504C174.945 18.496 174.929 19.632 174.961 20.912C174.993 22.176 175.105 23.344 175.297 24.416C175.361 24.8 175.281 25.144 175.057 25.448C174.849 25.752 174.553 25.936 174.169 26C173.801 26.064 173.465 25.992 173.161 25.784C172.857 25.56 172.673 25.264 172.609 24.896C172.353 23.408 172.217 21.744 172.201 19.904C172.201 18.048 172.265 16.392 172.393 14.936L170.497 17.888C169.937 18.736 169.281 19.648 168.529 20.624C167.793 21.6 167.001 22.504 166.153 23.336C165.321 24.168 164.449 24.92 163.537 25.592C163.265 25.896 162.929 26.048 162.529 26.048H162.505ZM168.145 7.568C167.489 7.568 166.857 7.4 166.249 7.064C165.657 6.744 164.969 6.248 164.185 5.576C163.913 5.336 163.761 5.032 163.729 4.664C163.713 4.28 163.833 3.944 164.089 3.656C164.345 3.352 164.657 3.192 165.025 3.176C165.409 3.144 165.745 3.264 166.033 3.536C167.041 4.4 167.737 4.832 168.121 4.832C168.489 4.832 169.249 4.416 170.401 3.584C170.721 3.36 171.065 3.28 171.433 3.344C171.801 3.408 172.097 3.592 172.321 3.896C172.545 4.2 172.625 4.544 172.561 4.928C172.497 5.296 172.313 5.592 172.009 5.816C171.465 6.184 171.033 6.472 170.713 6.68C170.393 6.888 169.993 7.088 169.513 7.28C169.033 7.472 168.577 7.568 168.145 7.568ZM199.285 28.112C199.285 26.976 199.293 26.224 199.309 25.856C197.661 25.888 194.109 25.936 188.653 26C188.653 26.016 188.741 26.552 188.917 27.608C188.981 27.992 188.901 28.336 188.677 28.64C188.469 28.944 188.173 29.152 187.789 29.264C187.421 29.376 187.085 29.296 186.781 29.024C186.477 28.768 186.293 28.456 186.229 28.088L186.061 27.224C186.013 26.92 185.981 26.752 185.965 26.72C185.965 26.688 185.957 26.584 185.941 26.408C185.925 26.232 185.917 26.12 185.917 26.072C185.917 26.024 185.909 25.856 185.893 25.568L185.845 24.656C185.829 24.304 185.933 23.992 186.157 23.72C186.381 23.432 186.669 23.264 187.021 23.216C188.925 19.488 189.653 15.264 189.205 10.544V10.448C189.189 10.336 189.181 10.232 189.181 10.136C189.197 9.752 189.341 9.432 189.613 9.176C189.901 8.92 190.229 8.8 190.597 8.816H197.101C197.469 8.832 197.757 8.84 197.965 8.84C198.093 8.856 198.197 8.864 198.277 8.864C198.357 8.88 198.421 8.888 198.469 8.888C198.645 8.92 198.821 8.992 198.997 9.104C199.813 9.648 200.221 10.6 200.221 11.96C200.221 12.28 200.205 12.672 200.173 13.136C200.125 13.536 200.101 13.752 200.101 13.784C200.053 15.176 200.109 16.952 200.269 19.112C200.285 19.448 200.325 20.064 200.389 20.96C200.469 21.856 200.525 22.568 200.557 23.096H200.677C201.045 23.096 201.357 23.216 201.613 23.456C201.885 23.696 202.037 23.992 202.069 24.344C202.085 24.456 202.093 24.568 202.093 24.68C202.045 25.928 202.021 27.072 202.021 28.112C202.021 28.496 201.885 28.816 201.613 29.072C201.357 29.344 201.037 29.48 200.653 29.48C200.269 29.48 199.941 29.344 199.669 29.072C199.413 28.816 199.285 28.496 199.285 28.112ZM190.045 23.216C193.645 23.2 196.237 23.176 197.821 23.144C197.789 22.648 197.733 21.976 197.653 21.128C197.589 20.264 197.549 19.648 197.533 19.28C197.373 17.04 197.317 15.176 197.365 13.688C197.365 13.656 197.389 13.376 197.437 12.848C197.469 12.496 197.485 12.208 197.485 11.984C197.485 11.824 197.477 11.688 197.461 11.576H197.053C196.493 11.56 195.677 11.552 194.605 11.552H192.037C192.277 15.84 191.613 19.728 190.045 23.216ZM205.769 24.56C205.769 23.696 205.761 22.688 205.745 21.536C205.745 20.384 205.745 19.304 205.745 18.296C205.745 17.288 205.721 16.208 205.673 15.056C205.625 13.904 205.561 12.816 205.481 11.792C205.209 11.552 205.049 11.248 205.001 10.88C204.937 10.336 205.105 9.896 205.505 9.56C205.761 9.064 206.161 8.792 206.705 8.744C207.057 8.712 207.385 8.792 207.689 8.984C208.393 8.872 208.993 8.792 209.489 8.744C209.985 8.696 210.593 8.664 211.313 8.648C212.049 8.616 212.737 8.672 213.377 8.816C214.033 8.944 214.641 9.144 215.201 9.416C215.953 9.8 216.601 10.36 217.145 11.096C217.705 11.816 218.089 12.6 218.297 13.448C218.521 14.28 218.473 15.144 218.153 16.04C217.849 16.936 217.257 17.712 216.377 18.368C215.305 19.168 213.809 19.568 211.889 19.568C211.297 19.568 210.593 19.528 209.777 19.448C209.649 19.432 209.305 19.392 208.745 19.328V24.56C208.761 24.96 208.617 25.312 208.313 25.616C208.025 25.904 207.673 26.048 207.257 26.048C206.857 26.064 206.505 25.928 206.201 25.64C205.913 25.336 205.769 24.976 205.769 24.56ZM211.913 16.568C213.161 16.568 214.057 16.368 214.601 15.968C215.001 15.664 215.249 15.272 215.345 14.792C215.457 14.296 215.377 13.8 215.105 13.304C214.849 12.792 214.433 12.392 213.857 12.104C213.409 11.864 212.865 11.72 212.225 11.672C211.601 11.608 211.041 11.6 210.545 11.648C210.049 11.696 209.369 11.784 208.505 11.912C208.601 13.24 208.665 14.704 208.697 16.304C208.809 16.32 209.017 16.344 209.321 16.376C209.641 16.408 209.897 16.432 210.089 16.448C210.809 16.528 211.417 16.568 211.913 16.568ZM223.665 26.552C223.201 26.52 222.673 26.368 222.081 26.096L221.529 25.832C221.353 25.752 221.217 25.688 221.121 25.64C220.769 25.512 220.513 25.28 220.353 24.944C220.193 24.592 220.177 24.24 220.305 23.888C220.449 23.536 220.689 23.28 221.025 23.12C221.377 22.96 221.729 22.952 222.081 23.096C222.273 23.16 222.489 23.248 222.729 23.36L223.233 23.624C223.505 23.736 223.713 23.8 223.857 23.816L223.881 23.792H223.929L224.001 23.744C224.033 23.728 224.065 23.712 224.097 23.696C224.129 23.664 224.169 23.632 224.217 23.6C224.265 23.568 224.313 23.536 224.361 23.504C224.409 23.456 224.465 23.408 224.529 23.36L224.697 23.168C224.969 22.88 225.313 22.44 225.729 21.848C223.985 19.016 222.169 15.336 220.281 10.808C220.105 10.456 220.073 10.104 220.185 9.752C220.313 9.384 220.545 9.12 220.881 8.96C221.233 8.784 221.585 8.76 221.937 8.888C222.305 9 222.569 9.224 222.729 9.56C224.521 13.864 226.089 17.136 227.433 19.376C229.609 15.904 231.025 12.744 231.681 9.896C231.761 9.528 231.961 9.24 232.281 9.032C232.601 8.824 232.945 8.76 233.313 8.84C233.681 8.92 233.969 9.12 234.177 9.44C234.385 9.76 234.449 10.104 234.369 10.472C233.921 12.424 233.137 14.528 232.017 16.784C230.881 19.088 229.609 21.2 228.201 23.12C227.497 24.08 226.993 24.72 226.689 25.04C225.681 26.112 224.673 26.616 223.665 26.552ZM238.182 24.704C237.926 22.768 237.774 20.416 237.726 17.648C237.662 13.6 237.614 11.32 237.582 10.808C237.534 10.664 237.51 10.512 237.51 10.352C237.51 9.936 237.662 9.576 237.966 9.272C238.27 8.968 238.63 8.816 239.046 8.816C242.918 8.816 245.742 8.792 247.518 8.744C247.95 8.744 248.318 8.888 248.622 9.176C248.926 9.464 249.078 9.824 249.078 10.256C249.094 10.672 248.958 11.032 248.67 11.336C248.382 11.64 248.03 11.8 247.614 11.816C245.87 11.864 243.558 11.888 240.678 11.888C240.694 12.448 240.71 13.048 240.726 13.688C240.742 14.328 240.75 15.032 240.75 15.8C240.766 16.568 240.774 17.168 240.774 17.6C240.838 20.256 240.982 22.496 241.206 24.32C241.27 24.736 241.166 25.112 240.894 25.448C240.638 25.784 240.302 25.976 239.886 26.024C239.47 26.088 239.094 25.992 238.758 25.736C238.422 25.464 238.23 25.12 238.182 24.704Z" fill="#F6F6F4"/>
<path d="M81.216 46.264C81.216 43.2987 81.1467 41.176 81.008 39.896C80.9973 39.768 81.0133 39.6453 81.056 39.528C81.0453 39.4747 81.04 39.4213 81.04 39.368C81.0293 39.144 81.0987 38.952 81.248 38.792C81.3973 38.632 81.584 38.5467 81.808 38.536C82.352 38.5147 83.328 38.504 84.736 38.504C85.4827 38.504 86.08 38.5093 86.528 38.52C86.7947 38.5307 87.008 38.5413 87.168 38.552C87.264 38.5627 87.344 38.5733 87.408 38.584C87.4613 38.5947 87.5147 38.6107 87.568 38.632C87.7387 38.6853 87.872 38.776 87.968 38.904C88.064 39.032 88.128 39.192 88.16 39.384C88.1707 39.4587 88.1813 39.5547 88.192 39.672C88.2027 39.8533 88.208 40.0987 88.208 40.408C88.208 40.9093 88.1973 41.608 88.176 42.504C88.1653 42.8987 88.1493 43.3787 88.128 43.944C88.1067 44.4987 88.0907 44.984 88.08 45.4C88.0693 45.8053 88.064 46.072 88.064 46.2C88.064 46.424 87.984 46.616 87.824 46.776C87.6747 46.9253 87.488 47 87.264 47C87.04 47 86.848 46.9253 86.688 46.776C86.5387 46.616 86.464 46.424 86.464 46.2C86.464 46.072 86.4693 45.8 86.48 45.384C86.4907 44.968 86.5067 44.4773 86.528 43.912C86.5493 43.336 86.5653 42.8507 86.576 42.456C86.5973 41.5813 86.608 40.8987 86.608 40.408V40.136C86.576 40.136 86.5333 40.1307 86.48 40.12C86.0533 40.1093 85.472 40.104 84.736 40.104C84.0533 40.104 83.3547 40.1093 82.64 40.12C82.7573 41.368 82.816 43.416 82.816 46.264C82.816 46.488 82.736 46.68 82.576 46.84C82.4267 46.9893 82.24 47.064 82.016 47.064C81.792 47.064 81.6 46.9893 81.44 46.84C81.2907 46.68 81.216 46.488 81.216 46.264ZM90.9616 49.448C90.919 48.7227 90.887 47.992 90.8656 47.256C90.8443 46.52 90.8283 45.6347 90.8176 44.6C90.807 43.5547 90.7963 42.8347 90.7856 42.44C90.6256 42.3227 90.5243 42.1627 90.4816 41.96C90.439 41.7467 90.471 41.5547 90.5776 41.384L90.7536 41.112C90.7323 40.6107 90.711 40.136 90.6896 39.688C90.679 39.464 90.7483 39.272 90.8976 39.112C91.047 38.9413 91.2283 38.8507 91.4416 38.84C91.6336 38.8293 91.8043 38.8827 91.9536 39C92.1136 39.1173 92.2203 39.2667 92.2736 39.448C92.3803 39.3627 92.4923 39.2827 92.6096 39.208C93.271 38.76 93.9216 38.5253 94.5616 38.504C95.2123 38.472 95.7883 38.632 96.2896 38.984C96.7483 39.2933 97.127 39.7093 97.4256 40.232C97.7243 40.744 97.9323 41.3093 98.0496 41.928C98.3163 43.2613 98.1776 44.4187 97.6336 45.4C97.3136 45.976 96.8763 46.4187 96.3216 46.728C95.7776 47.0373 95.1323 47.1653 94.3856 47.112C93.959 47.08 93.623 47.032 93.3776 46.968C93.143 46.8933 92.8443 46.7493 92.4816 46.536L92.4496 46.52C92.471 47.5653 92.5083 48.5093 92.5616 49.352C92.5723 49.576 92.503 49.768 92.3536 49.928C92.215 50.0987 92.0336 50.1893 91.8096 50.2C91.5856 50.2107 91.3883 50.1413 91.2176 49.992C91.0576 49.8533 90.9723 49.672 90.9616 49.448ZM94.4816 45.512C95.2923 45.5653 95.8736 45.272 96.2256 44.632C96.5776 43.9813 96.663 43.1867 96.4816 42.248C96.3963 41.8107 96.2523 41.4213 96.0496 41.08C95.8576 40.7387 95.639 40.4827 95.3936 40.312C94.871 39.96 94.2416 40.0293 93.5056 40.52C93.0683 40.8187 92.6896 41.1813 92.3696 41.608L92.4176 44.36C92.631 44.648 92.743 44.7973 92.7536 44.808C92.807 44.872 92.983 44.9893 93.2816 45.16C93.5376 45.2987 93.7243 45.3893 93.8416 45.432C93.9696 45.464 94.183 45.4907 94.4816 45.512ZM100.441 46.92C100.153 46.728 100.041 46.4613 100.105 46.12C100.094 46.0987 100.089 46.0773 100.089 46.056C100.036 45.544 100.004 44.968 99.9929 44.328C99.9822 43.688 99.9822 43.208 99.9929 42.888C100.004 42.568 100.03 41.912 100.073 40.92C100.126 39.928 100.158 39.368 100.169 39.24C100.18 39.0267 100.265 38.8453 100.425 38.696C100.596 38.5467 100.788 38.4773 101.001 38.488C101.225 38.4987 101.412 38.5893 101.561 38.76C101.71 38.92 101.78 39.112 101.769 39.336C101.758 39.56 101.732 40.0667 101.689 40.856C101.646 41.6453 101.614 42.2587 101.593 42.696C101.582 43.1227 101.577 43.544 101.577 43.96L102.713 42.504C103.716 41.192 104.478 40.0027 105.001 38.936C105.14 38.712 105.342 38.584 105.609 38.552C105.694 38.52 105.785 38.4987 105.881 38.488C106.105 38.4773 106.297 38.5467 106.457 38.696C106.628 38.8347 106.718 39.016 106.729 39.24C106.772 40.2853 106.788 41.512 106.777 42.92C106.745 44.4347 106.745 45.528 106.777 46.2C106.788 46.424 106.718 46.616 106.569 46.776C106.42 46.936 106.233 47.0213 106.009 47.032C105.785 47.0427 105.593 46.9733 105.433 46.824C105.273 46.6747 105.188 46.488 105.177 46.264C105.145 45.5813 105.145 44.4613 105.177 42.904V41.864L103.977 43.48C102.729 45.1013 101.918 46.1787 101.545 46.712C101.417 46.8933 101.246 47.0053 101.033 47.048C100.82 47.0907 100.622 47.048 100.441 46.92ZM115.827 47.048C114.931 46.9307 114.168 46.5413 113.539 45.88C112.92 45.208 112.499 44.4293 112.275 43.544C111.763 43.64 111.336 43.6827 110.995 43.672C111.048 44.4507 111.117 45.2827 111.203 46.168C111.224 46.392 111.165 46.5893 111.027 46.76C110.888 46.9307 110.707 47.0267 110.483 47.048C110.259 47.0693 110.061 47.0107 109.891 46.872C109.72 46.7333 109.624 46.552 109.603 46.328C109.507 45.304 109.421 44.1893 109.347 42.984C109.336 42.92 109.331 42.856 109.331 42.792C109.309 42.3867 109.277 41.7893 109.235 41C109.192 40.2 109.16 39.6453 109.139 39.336C109.128 39.112 109.192 38.92 109.331 38.76C109.48 38.5893 109.667 38.4987 109.891 38.488C110.115 38.4773 110.307 38.5467 110.467 38.696C110.637 38.8347 110.728 39.016 110.739 39.24L110.899 42.072C111.229 42.0827 111.64 42.04 112.131 41.944C112.173 41.2507 112.371 40.632 112.723 40.088C113.085 39.5333 113.608 39.1227 114.291 38.856C114.419 38.8027 114.595 38.7547 114.819 38.712C115.011 38.456 115.267 38.3547 115.587 38.408C116.28 38.5253 116.893 38.7493 117.427 39.08C117.971 39.4 118.403 39.784 118.723 40.232C119.043 40.68 119.277 41.16 119.427 41.672C119.587 42.1733 119.661 42.6853 119.651 43.208C119.64 43.7093 119.549 44.2 119.379 44.68C119.208 45.16 118.968 45.592 118.659 45.976C118.349 46.36 117.949 46.6533 117.459 46.856C116.968 47.0587 116.424 47.1227 115.827 47.048ZM116.019 45.448C116.584 45.5227 117.059 45.3467 117.443 44.92C117.837 44.4933 118.04 43.912 118.051 43.176C118.072 42.5147 117.901 41.9013 117.539 41.336C117.187 40.7707 116.653 40.3707 115.939 40.136C115.843 40.1893 115.747 40.2213 115.651 40.232C115.523 40.2533 115.411 40.2693 115.315 40.28C115.219 40.2907 115.149 40.296 115.107 40.296C115.075 40.296 115.037 40.3013 114.995 40.312C114.963 40.312 114.92 40.3173 114.867 40.328C114.472 40.488 114.173 40.76 113.971 41.144C113.768 41.5173 113.683 41.96 113.715 42.472C113.747 42.5573 113.763 42.648 113.763 42.744V42.824L113.795 43.048C113.944 43.688 114.221 44.232 114.627 44.68C115.043 45.128 115.507 45.384 116.019 45.448ZM124.556 46.232C124.556 46.456 124.476 46.6427 124.316 46.792C124.156 46.9413 123.964 47.016 123.74 47.016C123.516 47.016 123.329 46.936 123.18 46.776C123.031 46.616 122.956 46.424 122.956 46.2C123.009 43.4267 123.009 41.416 122.956 40.168C122.785 40.168 122.481 40.1627 122.044 40.152C121.617 40.1413 121.287 40.136 121.052 40.136C120.828 40.136 120.641 40.056 120.492 39.896C120.343 39.736 120.268 39.544 120.268 39.32C120.268 39.096 120.348 38.9093 120.508 38.76C120.668 38.6107 120.86 38.536 121.084 38.536C123.921 38.5893 125.745 38.6 126.556 38.568C126.78 38.5573 126.972 38.6267 127.132 38.776C127.292 38.9253 127.377 39.112 127.388 39.336C127.399 39.56 127.329 39.752 127.18 39.912C127.031 40.072 126.844 40.1573 126.62 40.168C126.001 40.1893 125.313 40.2 124.556 40.2C124.609 41.4693 124.609 43.48 124.556 46.232ZM140.29 47H139.89C139.357 47.0107 138.594 47.0213 137.602 47.032C137.143 47.032 136.53 47.0373 135.762 47.048C134.994 47.0587 134.562 47.0693 134.466 47.08C134.455 47.176 134.45 47.5547 134.45 48.216C134.45 48.44 134.37 48.6267 134.21 48.776C134.061 48.936 133.874 49.016 133.65 49.016C133.426 49.016 133.234 48.936 133.074 48.776C132.925 48.6267 132.85 48.44 132.85 48.216C132.85 47.5547 132.866 46.9253 132.898 46.328C132.909 46.168 132.962 46.0187 133.058 45.88C133.207 45.624 133.437 45.4907 133.746 45.48C134.845 43.3147 135.394 41.256 135.394 39.304C135.394 39.08 135.469 38.8933 135.618 38.744C135.778 38.584 135.97 38.504 136.194 38.504C136.269 38.504 136.343 38.5147 136.418 38.536H136.434C136.573 38.5253 137.245 38.5093 138.45 38.488C138.983 38.4773 139.383 38.472 139.65 38.472H140.274C140.306 38.472 140.338 38.4773 140.37 38.488C140.402 38.4987 140.439 38.5093 140.482 38.52C140.631 38.5733 140.754 38.664 140.85 38.792C140.925 38.888 140.978 39 141.01 39.128C141.01 39.1707 141.015 39.2187 141.026 39.272C141.037 39.3467 141.042 39.4373 141.042 39.544V40.232C141.031 40.6373 141.01 41.3467 140.978 42.36C140.914 44.1733 140.882 45.192 140.882 45.416H140.93C140.973 45.4267 141.01 45.432 141.042 45.432C141.138 45.4427 141.234 45.4693 141.33 45.512C141.522 45.608 141.661 45.7627 141.746 45.976C141.778 46.04 141.799 46.1147 141.81 46.2C141.831 46.296 141.847 46.4187 141.858 46.568C141.879 46.792 141.89 47.0907 141.89 47.464V48.888C141.89 49.112 141.81 49.2987 141.65 49.448C141.501 49.608 141.314 49.688 141.09 49.688C140.866 49.688 140.674 49.608 140.514 49.448C140.365 49.2987 140.29 49.112 140.29 48.888V47ZM135.538 45.464C136.402 45.4427 137.085 45.432 137.586 45.432C138.258 45.4213 138.823 45.416 139.282 45.416C139.282 45.1067 139.314 44.0667 139.378 42.296C139.41 41.304 139.431 40.6053 139.442 40.2V40.072C139.165 40.072 138.845 40.0773 138.482 40.088C137.863 40.0987 137.357 40.1093 136.962 40.12C136.845 41.8693 136.37 43.6507 135.538 45.464ZM143.913 47.064C143.71 47.1493 143.507 47.1493 143.305 47.064C143.102 46.9787 142.958 46.8347 142.873 46.632C142.787 46.4293 142.787 46.2267 142.873 46.024C142.958 45.8213 143.102 45.6773 143.305 45.592C143.379 45.56 143.465 45.528 143.561 45.496C143.571 45.496 143.598 45.4907 143.641 45.48C143.694 45.4587 143.731 45.4427 143.753 45.432L143.865 45.384C144.025 45.256 144.163 44.9787 144.281 44.552C144.409 44.1253 144.494 43.5707 144.537 42.888C144.579 42.2053 144.569 41.0907 144.505 39.544C144.505 39.48 144.51 39.4107 144.521 39.336C144.531 39.144 144.606 38.9787 144.745 38.84C144.883 38.7013 145.054 38.6213 145.257 38.6C146.035 38.536 147.523 38.504 149.721 38.504C149.795 38.504 149.87 38.5147 149.945 38.536C150.169 38.5467 150.355 38.632 150.505 38.792C150.654 38.952 150.723 39.144 150.713 39.368C150.702 39.688 150.665 40.1307 150.601 40.696C150.526 41.2613 150.483 41.6613 150.473 41.896C150.419 42.76 150.393 44.2 150.393 46.216C150.393 46.44 150.313 46.632 150.153 46.792C150.003 46.9413 149.817 47.016 149.593 47.016C149.369 47.016 149.177 46.9413 149.017 46.792C148.867 46.632 148.793 46.44 148.793 46.216C148.793 44.168 148.819 42.696 148.873 41.8C148.894 41.5333 148.937 41.1013 149.001 40.504L149.049 40.104C147.737 40.0933 146.766 40.1093 146.137 40.152C146.179 41.2827 146.174 42.2267 146.121 42.984C146.078 43.7733 145.982 44.44 145.833 44.984C145.619 45.7413 145.305 46.2907 144.889 46.632C144.718 46.76 144.51 46.8667 144.265 46.952C144.254 46.952 144.179 46.9733 144.041 47.016C143.987 47.0373 143.945 47.0533 143.913 47.064ZM154.062 46.504C153.998 46.7067 153.865 46.8613 153.662 46.968C153.47 47.064 153.268 47.0747 153.054 47C152.852 46.936 152.697 46.808 152.59 46.616C152.494 46.4133 152.484 46.2053 152.558 45.992C152.569 45.9387 152.601 45.8213 152.654 45.64C152.718 45.4587 152.766 45.3253 152.798 45.24L152.926 44.92C152.99 44.7707 153.044 44.6427 153.086 44.536C153.14 44.4293 153.198 44.312 153.262 44.184C153.326 44.056 153.396 43.944 153.47 43.848C153.566 43.7093 153.668 43.5813 153.774 43.464C153.198 43.1013 152.852 42.6107 152.734 41.992C152.66 41.5973 152.697 41.1707 152.846 40.712C152.996 40.2427 153.198 39.8693 153.454 39.592C154.105 38.888 155.113 38.5307 156.478 38.52C157.246 38.52 158.185 38.6373 159.294 38.872C159.55 38.9253 159.732 39.0747 159.838 39.32C159.934 39.4587 159.982 39.6133 159.982 39.784C159.972 40.2107 159.918 41.2987 159.822 43.048C159.748 44.3707 159.721 45.4267 159.742 46.216C159.753 46.4293 159.678 46.616 159.518 46.776C159.369 46.936 159.182 47.0213 158.958 47.032C158.745 47.0427 158.558 46.9733 158.398 46.824C158.238 46.664 158.153 46.472 158.142 46.248C158.121 45.6293 158.132 44.9093 158.174 44.088C157.417 44.1413 156.734 44.1467 156.126 44.104L155.998 44.136C155.433 44.1893 155.028 44.392 154.782 44.744L154.654 44.984L154.542 45.192C154.51 45.224 154.468 45.3093 154.414 45.448C154.372 45.576 154.34 45.672 154.318 45.736L154.206 46.12C154.142 46.3013 154.094 46.4293 154.062 46.504ZM158.254 42.504C158.318 41.5227 158.356 40.792 158.366 40.312C157.652 40.184 157.022 40.12 156.478 40.12C155.582 40.12 154.969 40.3067 154.638 40.68C154.532 40.7867 154.441 40.952 154.366 41.176C154.302 41.4 154.281 41.5653 154.302 41.672C154.377 42.0453 154.814 42.3013 155.614 42.44C156.265 42.5467 157.076 42.5627 158.046 42.488C158.121 42.488 158.19 42.4933 158.254 42.504ZM175.442 46.728C174.652 45.7893 173.639 44.7333 172.402 43.56C172.327 43.5493 172.263 43.5333 172.21 43.512C172.21 44.3867 172.231 45.272 172.274 46.168C172.284 46.392 172.215 46.5893 172.066 46.76C171.916 46.92 171.73 47.0053 171.506 47.016C171.292 47.0267 171.1 46.9573 170.93 46.808C170.77 46.6587 170.684 46.4773 170.674 46.264C170.631 45.432 170.61 44.4933 170.61 43.448H170.338C170.028 43.864 169.575 44.408 168.978 45.08C168.242 45.88 167.762 46.424 167.538 46.712C167.399 46.8933 167.218 46.9947 166.994 47.016C166.78 47.048 166.583 47 166.402 46.872C166.231 46.7333 166.13 46.5573 166.098 46.344C166.076 46.12 166.13 45.9227 166.258 45.752C166.492 45.4747 167.004 44.8933 167.794 44.008C168.295 43.4427 168.674 42.9893 168.93 42.648C167.959 41.816 167.079 40.8773 166.29 39.832C166.14 39.672 166.071 39.48 166.082 39.256C166.092 39.032 166.178 38.8453 166.338 38.696C166.498 38.5467 166.69 38.4773 166.914 38.488C167.138 38.4987 167.324 38.584 167.474 38.744C168.38 39.9067 169.378 40.9413 170.466 41.848H170.61C170.62 40.44 170.626 39.592 170.626 39.304C170.626 39.08 170.7 38.8933 170.85 38.744C171.01 38.584 171.202 38.504 171.426 38.504C171.65 38.504 171.836 38.584 171.986 38.744C172.146 38.8933 172.226 39.08 172.226 39.304C172.226 39.6027 172.22 40.456 172.21 41.864H172.37C173.095 41.224 173.911 40.2 174.818 38.792C174.956 38.6213 175.132 38.5253 175.346 38.504C175.57 38.4827 175.767 38.5467 175.938 38.696C176.108 38.8347 176.204 39.016 176.226 39.24C176.247 39.4533 176.183 39.6453 176.034 39.816C175.202 41.1387 174.46 42.104 173.81 42.712C174.951 43.7893 175.9 44.7867 176.658 45.704C176.807 45.8747 176.871 46.072 176.85 46.296C176.828 46.5093 176.732 46.6907 176.562 46.84C176.391 46.9787 176.194 47.0373 175.97 47.016C175.756 46.9947 175.58 46.8987 175.442 46.728ZM178.758 46.92C178.47 46.728 178.358 46.4613 178.422 46.12C178.412 46.0987 178.406 46.0773 178.406 46.056C178.353 45.544 178.321 44.968 178.31 44.328C178.3 43.688 178.3 43.208 178.31 42.888C178.321 42.568 178.348 41.912 178.39 40.92C178.444 39.928 178.476 39.368 178.486 39.24C178.497 39.0267 178.582 38.8453 178.742 38.696C178.913 38.5467 179.105 38.4773 179.318 38.488C179.542 38.4987 179.729 38.5893 179.878 38.76C180.028 38.92 180.097 39.112 180.086 39.336C180.076 39.56 180.049 40.0667 180.006 40.856C179.964 41.6453 179.932 42.2587 179.91 42.696C179.9 43.1227 179.894 43.544 179.894 43.96L181.03 42.504C182.033 41.192 182.796 40.0027 183.318 38.936C183.457 38.712 183.66 38.584 183.926 38.552C184.012 38.52 184.102 38.4987 184.198 38.488C184.422 38.4773 184.614 38.5467 184.774 38.696C184.945 38.8347 185.036 39.016 185.046 39.24C185.089 40.2853 185.105 41.512 185.094 42.92C185.062 44.4347 185.062 45.528 185.094 46.2C185.105 46.424 185.036 46.616 184.886 46.776C184.737 46.936 184.55 47.0213 184.326 47.032C184.102 47.0427 183.91 46.9733 183.75 46.824C183.59 46.6747 183.505 46.488 183.494 46.264C183.462 45.5813 183.462 44.4613 183.494 42.904V41.864L182.294 43.48C181.046 45.1013 180.236 46.1787 179.862 46.712C179.734 46.8933 179.564 47.0053 179.35 47.048C179.137 47.0907 178.94 47.048 178.758 46.92ZM189.04 47.256C188.827 47.32 188.624 47.2933 188.432 47.176C188.24 47.0693 188.118 46.9093 188.064 46.696C188.032 46.5787 188.006 46.4667 187.984 46.36C187.963 46.3067 187.947 46.2533 187.936 46.2C187.808 45.56 187.712 44.904 187.648 44.232C187.584 43.5493 187.536 42.7333 187.504 41.784C187.472 40.8347 187.446 40.184 187.424 39.832C187.392 39.768 187.366 39.6987 187.344 39.624C187.312 39.4747 187.323 39.3253 187.376 39.176C187.398 38.9947 187.472 38.8347 187.6 38.696C187.739 38.5573 187.904 38.4773 188.096 38.456C188.278 38.4453 188.443 38.4827 188.592 38.568C189.446 38.4293 190.23 38.3707 190.944 38.392C191.638 38.4027 192.219 38.4987 192.688 38.68C193.392 38.9467 193.83 39.3787 194 39.976C194.224 40.84 194.091 41.5547 193.6 42.12C193.526 42.216 193.44 42.3067 193.344 42.392C193.408 42.424 193.467 42.4667 193.52 42.52C193.958 42.8293 194.251 43.2027 194.4 43.64C194.55 44.0667 194.55 44.4987 194.4 44.936C194.283 45.32 194.07 45.6667 193.76 45.976C193.462 46.2747 193.11 46.504 192.704 46.664C192 46.9307 190.928 47.0267 189.488 46.952C189.371 47.112 189.222 47.2133 189.04 47.256ZM189.408 45.336C189.878 45.3787 190.363 45.3947 190.864 45.384C191.376 45.3627 191.798 45.288 192.128 45.16C192.32 45.0853 192.48 44.984 192.608 44.856C192.747 44.728 192.838 44.5947 192.88 44.456C192.955 44.2213 192.859 44.0027 192.592 43.8C192.24 43.544 191.691 43.432 190.944 43.464C190.507 43.4853 189.931 43.5653 189.216 43.704C189.259 44.312 189.323 44.856 189.408 45.336ZM189.12 41.976C190.144 41.9013 190.95 41.7627 191.536 41.56C191.952 41.4213 192.235 41.2613 192.384 41.08C192.502 40.952 192.534 40.7813 192.48 40.568C192.448 40.3867 192.331 40.2533 192.128 40.168C191.83 40.0613 191.419 40.0027 190.896 39.992C190.352 39.9813 189.734 40.024 189.04 40.12C189.062 40.5893 189.088 41.208 189.12 41.976ZM198.663 46.968C198.119 46.8613 197.639 46.6587 197.223 46.36C196.807 46.0507 196.482 45.6933 196.247 45.288C196.023 44.8827 195.858 44.456 195.751 44.008C195.655 43.56 195.623 43.1013 195.655 42.632C195.687 42.024 195.81 41.4427 196.023 40.888C196.247 40.3227 196.589 39.8213 197.047 39.384C197.517 38.9467 198.061 38.6853 198.679 38.6C198.775 38.5787 198.882 38.568 198.999 38.568C199.181 38.4613 199.373 38.424 199.575 38.456L199.671 38.472C199.725 38.472 199.789 38.4773 199.863 38.488C199.938 38.488 200.018 38.4987 200.103 38.52C200.199 38.5307 200.295 38.5467 200.391 38.568C200.487 38.5893 200.573 38.616 200.647 38.648C201.277 38.904 201.789 39.32 202.183 39.896C202.589 40.472 202.855 41.0853 202.983 41.736C203.111 42.3867 203.133 43.032 203.047 43.672C202.887 44.76 202.455 45.6187 201.751 46.248C200.919 46.984 199.89 47.224 198.663 46.968ZM198.983 45.4C199.698 45.5493 200.269 45.432 200.695 45.048C201.101 44.6853 201.357 44.152 201.463 43.448C201.559 42.7333 201.479 42.0613 201.223 41.432C200.967 40.8027 200.599 40.376 200.119 40.152C199.959 40.2587 199.789 40.3013 199.607 40.28C199.586 40.28 199.421 40.248 199.111 40.184C199.015 40.1733 198.946 40.168 198.903 40.168C198.477 40.232 198.103 40.504 197.783 40.984C197.463 41.4533 197.287 42.0293 197.255 42.712C197.213 43.4053 197.346 43.9973 197.655 44.488C197.954 44.9787 198.397 45.2827 198.983 45.4ZM208.006 46.232C208.006 46.456 207.926 46.6427 207.766 46.792C207.606 46.9413 207.414 47.016 207.19 47.016C206.966 47.016 206.779 46.936 206.63 46.776C206.481 46.616 206.406 46.424 206.406 46.2C206.459 43.4267 206.459 41.416 206.406 40.168C206.235 40.168 205.931 40.1627 205.494 40.152C205.067 40.1413 204.737 40.136 204.502 40.136C204.278 40.136 204.091 40.056 203.942 39.896C203.793 39.736 203.718 39.544 203.718 39.32C203.718 39.096 203.798 38.9093 203.958 38.76C204.118 38.6107 204.31 38.536 204.534 38.536C207.371 38.5893 209.195 38.6 210.006 38.568C210.23 38.5573 210.422 38.6267 210.582 38.776C210.742 38.9253 210.827 39.112 210.838 39.336C210.849 39.56 210.779 39.752 210.63 39.912C210.481 40.072 210.294 40.1573 210.07 40.168C209.451 40.1893 208.763 40.2 208.006 40.2C208.059 41.4693 208.059 43.48 208.006 46.232ZM212.628 46.28C212.574 45.5973 212.532 44.9627 212.5 44.376C212.468 43.7573 212.446 43.2293 212.436 42.792C212.436 42.344 212.43 41.7413 212.42 40.984C212.42 40.2267 212.414 39.672 212.404 39.32C212.404 39.096 212.478 38.904 212.628 38.744C212.777 38.584 212.964 38.504 213.188 38.504C213.412 38.504 213.604 38.5787 213.764 38.728C213.924 38.8773 214.004 39.064 214.004 39.288L214.036 41.832C215.113 41.7893 216.308 41.768 217.62 41.768C217.609 41.1707 217.577 40.36 217.524 39.336C217.513 39.112 217.582 38.92 217.732 38.76C217.881 38.5893 218.062 38.4987 218.276 38.488C218.5 38.4773 218.692 38.5467 218.852 38.696C219.022 38.8453 219.113 39.0267 219.124 39.24C219.23 41.3307 219.284 43.6507 219.284 46.2C219.284 46.424 219.204 46.616 219.044 46.776C218.894 46.9253 218.708 47 218.484 47C218.26 47 218.068 46.9253 217.908 46.776C217.758 46.616 217.684 46.424 217.684 46.2C217.684 45.144 217.678 44.2 217.668 43.368C216.334 43.368 215.134 43.3893 214.068 43.432C214.089 44.3493 214.142 45.2453 214.228 46.12C214.249 46.3333 214.19 46.5307 214.052 46.712C213.913 46.8827 213.732 46.9787 213.508 47C213.294 47.0213 213.097 46.9627 212.916 46.824C212.745 46.6853 212.649 46.504 212.628 46.28ZM222.874 46.952C222.65 46.9627 222.453 46.8987 222.282 46.76C222.122 46.6107 222.037 46.424 222.026 46.2C222.005 45.7733 221.957 45.0747 221.882 44.104C221.807 43.1227 221.749 42.2427 221.706 41.464C221.674 40.6747 221.658 39.944 221.658 39.272C221.658 39.048 221.733 38.8613 221.882 38.712C222.042 38.552 222.234 38.472 222.458 38.472C222.682 38.472 222.869 38.552 223.018 38.712C223.178 38.8613 223.258 39.048 223.258 39.272C223.258 39.944 223.279 40.7493 223.322 41.688C224.709 41.368 225.845 41.3253 226.73 41.56C227.221 41.6773 227.642 41.9173 227.994 42.28C228.357 42.632 228.613 43.032 228.762 43.48C228.922 43.928 228.927 44.4133 228.778 44.936C228.639 45.448 228.341 45.8747 227.882 46.216C226.815 47.0053 225.221 47.2347 223.098 46.904C223.023 46.9253 222.949 46.9413 222.874 46.952ZM223.578 45.352C225.135 45.5653 226.25 45.4267 226.922 44.936C227.253 44.6907 227.354 44.3653 227.226 43.96C227.162 43.7573 227.05 43.576 226.89 43.416C226.73 43.256 226.549 43.1493 226.346 43.096C225.663 42.9253 224.693 43 223.434 43.32C223.445 43.448 223.466 43.7573 223.498 44.248C223.53 44.728 223.557 45.096 223.578 45.352ZM229.53 46.296C229.53 44.76 229.557 42.4293 229.61 39.304C229.61 39.08 229.69 38.8933 229.85 38.744C230.01 38.5947 230.202 38.52 230.426 38.52C230.65 38.52 230.837 38.6 230.986 38.76C231.135 38.92 231.21 39.112 231.21 39.336C231.157 42.4507 231.13 44.7707 231.13 46.296C231.13 46.52 231.05 46.712 230.89 46.872C230.741 47.0213 230.554 47.096 230.33 47.096C230.106 47.096 229.914 47.0213 229.754 46.872C229.605 46.712 229.53 46.52 229.53 46.296ZM234.134 46.792C233.974 46.9413 233.782 47.016 233.558 47.016C233.345 47.016 233.158 46.936 232.998 46.776C232.849 46.616 232.774 46.4293 232.774 46.216C232.774 45.992 232.854 45.8 233.014 45.64C233.814 44.7973 234.555 43.9333 235.238 43.048C234.587 42.0773 233.915 40.9733 233.222 39.736C233.105 39.544 233.073 39.3413 233.126 39.128C233.19 38.9147 233.318 38.7547 233.51 38.648C233.702 38.5307 233.905 38.504 234.118 38.568C234.331 38.6213 234.491 38.744 234.598 38.936C235.163 39.9067 235.713 40.8133 236.246 41.656C236.811 40.76 237.313 39.8693 237.75 38.984C237.846 38.7813 237.995 38.648 238.198 38.584C238.411 38.5093 238.619 38.52 238.822 38.616C239.025 38.712 239.158 38.8667 239.222 39.08C239.297 39.2827 239.286 39.4853 239.19 39.688C238.635 40.8613 237.974 41.992 237.206 43.08C237.857 43.976 238.513 44.8507 239.174 45.704C239.313 45.864 239.377 46.056 239.366 46.28C239.355 46.504 239.265 46.6907 239.094 46.84C238.934 46.9787 238.742 47.0427 238.518 47.032C238.294 47.0213 238.107 46.9307 237.958 46.76C237.371 45.9813 236.785 45.1973 236.198 44.408C235.547 45.208 234.859 46.0027 234.134 46.792Z" fill="#8D8D8D"/>
<defs>
<clipPath id="clip0_108_1360">
<rect width="64" height="52.211" fill="white" transform="translate(0 2)"/>
</clipPath>
</defs>
</svg>
