<svg width="121" height="72" viewBox="0 0 121 72" fill="none" xmlns="http://www.w3.org/2000/svg">
<path d="M2 31.8748C27.5 41.6019 52.969 36.1583 63.9817 16.6743C66.1871 12.7726 66.6831 6.61448 63.2083 3.13965C60.5178 0.449155 55.3269 3.00942 53.7787 5.7871C43.5448 24.1479 70.242 29.8052 82.2164 31.8748C87.8993 32.8571 92.8649 33.2054 97.5953 36.7533C101.37 39.5842 105.92 43.0625 107.769 47.5513C110.017 53.0116 111.478 58.7805 114.194 64.0606C115.745 67.0769 110.392 60.6508 109.672 59.8068C107.56 57.3302 105.111 54.5993 101.879 53.7683C98.5682 52.917 101.814 56.6981 102.712 57.9031C105.34 61.4324 108.568 63.1579 111.993 65.7264C113.236 66.6591 114.743 68.6245 116.217 69.177C116.317 69.2145 116.331 68.9862 116.336 68.8795C116.464 66.0531 116.505 63.2288 116.663 60.4018C117.008 54.2211 116.663 56 118.5 49" stroke="#00B96E" stroke-width="4" stroke-linecap="round"/>
</svg>
