<svg width="50" height="53" viewBox="0 0 50 53" fill="none" xmlns="http://www.w3.org/2000/svg">
<path fill-rule="evenodd" clip-rule="evenodd" d="M11.6754 27.3061C11.5897 26.7975 11.5251 26.2947 11.4834 25.7919C11.4206 25.0376 11.4594 24.2775 11.4371 23.5233C11.4274 23.2033 11.3891 22.369 11.4046 22.249C11.5446 21.2033 12.3886 21.0432 12.6354 21.0147C12.7549 20.9975 13.9811 20.8604 14.2457 22.2204C14.5703 23.8833 14.6743 25.5576 14.5594 27.1976C14.8274 28.5919 15.2857 29.9804 15.8909 31.2375C18.2989 36.2375 22.8874 36.7233 27.8589 36.6775C28.6234 36.6661 29.2583 37.2661 29.2983 38.0261C29.3383 38.7918 28.7692 39.4547 28.008 39.5233C25.2292 39.7918 20.2988 42.0204 18.5943 44.3404C18.2377 44.8261 18.0303 45.9976 17.756 47.1462C17.3731 48.7404 16.9177 50.3176 16.4074 50.9804C16.3309 51.0833 15.4 52.1347 15.1223 52.289C14.4548 52.6547 13.9206 52.4433 13.6172 52.249C13.3137 52.0547 12.9703 51.6718 12.8331 51.0376C12.6897 50.3747 12.8109 49.0147 12.7886 48.7232C12.7074 47.6661 12.496 45.5918 12.0646 43.809C11.832 42.849 11.584 41.9633 11.1737 41.5233C9.65486 39.8947 7.22629 40.1347 5.18115 40.4033C4.94629 40.4318 4.71144 40.4661 4.47715 40.4947C3.64458 40.7404 2.76056 40.9233 1.82627 41.0318C0.415417 41.1975 0.183433 39.9004 0.170861 39.8147C0.144575 39.6261 0.0468509 38.6547 1.11028 38.2661C1.22628 38.2261 2.08229 38.0375 2.412 37.9633C2.87143 37.8604 3.33599 37.7804 3.80228 37.7061C8.61885 36.209 11.2349 32.0032 11.6754 27.3061ZM13.3286 32.5004C15.1469 36.2604 17.9063 38.0776 21.1771 38.9004C19.1349 39.969 17.2766 41.3062 16.292 42.649C15.9183 43.1576 15.5754 44.1804 15.2663 45.329C15.0989 44.2604 14.8726 43.1232 14.5737 42.1518C14.2337 41.0432 13.776 40.1233 13.2651 39.5747C12.2788 38.5176 11.0411 37.929 9.71027 37.6376C11.3034 36.2262 12.5114 34.4662 13.3286 32.5004Z" fill="#00B96E"/>
<g clip-path="url(#clip0_218_23)">
<path fill-rule="evenodd" clip-rule="evenodd" d="M29.0561 10.6152C30.1269 10.2336 31.2537 9.72654 32.1226 8.99239C33.1546 8.12039 33.5743 6.99733 33.8561 5.81518C34.218 4.29641 34.3626 2.67855 34.8013 1.15731C34.9638 0.592392 35.2765 0.378849 35.4106 0.28408C35.7497 0.0446953 36.0924 -0.0192921 36.4149 0.00470795C36.797 0.0324003 37.322 0.177006 37.6672 0.817621C37.7164 0.909313 37.7804 1.04901 37.8235 1.2404C37.8549 1.38071 37.8752 1.81947 37.9084 2.00039C37.9915 2.44593 38.061 2.89148 38.1263 3.33948C38.3435 4.83056 38.4684 6.097 39.1546 7.46685C40.0857 9.32654 41.0186 10.4644 42.2838 10.9684C43.5072 11.4558 44.97 11.3641 46.8389 10.9819C47.0167 10.9389 47.1927 10.9019 47.3669 10.8718C48.1909 10.7278 48.9786 11.2687 49.1404 12.0896C49.3023 12.9099 48.7786 13.7093 47.962 13.8896C47.7915 13.9272 47.6235 13.9629 47.4574 13.9955C44.9318 14.6207 42.0081 16.8521 40.309 18.8059C39.7853 19.4084 39.0186 21.0927 38.2364 22.1672C37.6592 22.9598 37.0106 23.4822 36.466 23.6669C36.101 23.7912 35.7934 23.7721 35.5392 23.7093C35.17 23.6183 34.8635 23.4182 34.6285 23.1001C34.5005 22.9259 34.3817 22.6927 34.325 22.3948C34.298 22.2515 34.2949 21.8872 34.2955 21.7223C34.1361 21.174 33.9411 20.6385 33.7989 20.0853C33.4598 18.7653 32.7946 17.9296 32.0044 16.8256C31.2654 15.7924 30.4715 15.1432 29.3078 14.625C29.1565 14.5881 27.9349 14.289 27.5035 14.1173C26.8734 13.8656 26.5731 13.4441 26.4641 13.217C26.2789 12.8318 26.2598 12.4952 26.2968 12.2146C26.3515 11.8004 26.5374 11.4459 26.8672 11.1598C27.0715 10.9819 27.3768 10.809 27.7854 10.7247C28.1011 10.6589 28.9386 10.6207 29.0561 10.6152ZM36.2223 8.46377C36.2789 8.58992 36.3392 8.7167 36.4032 8.8447C37.7669 11.5684 39.2918 13.089 41.1454 13.8269L41.2075 13.8509C39.9675 14.7715 38.845 15.8004 37.9872 16.7869C37.634 17.193 37.1663 18.0367 36.6611 18.9019C36.202 17.4096 35.4512 16.3549 34.5072 15.0349C33.786 14.0275 33.0303 13.2693 32.1017 12.6515C32.8223 12.2816 33.5097 11.8484 34.1084 11.3426C35.1054 10.5001 35.7644 9.52408 36.2223 8.46377Z" fill="#00B96E"/>
</g>
<defs>
<clipPath id="clip0_218_23">
<rect width="24" height="24" fill="white" transform="translate(26)"/>
</clipPath>
</defs>
</svg>
